<?xml version="1.0" encoding="utf-8"?>
<!-- Generator: Adobe Illustrator 16.0.0, SVG Export Plug-In . SVG Version: 6.00 Build 0)  -->
<!DOCTYPE svg PUBLIC "-//W3C//DTD SVG 1.1//EN" "http://www.w3.org/Graphics/SVG/1.1/DTD/svg11.dtd">
<svg version="1.1" id="Camada_3" xmlns="http://www.w3.org/2000/svg" xmlns:xlink="http://www.w3.org/1999/xlink" x="0px" y="0px"
	 width="200px" height="200px" viewBox="-75.838 -75.838 200 200" enable-background="new -75.838 -75.838 200 200"
	 xml:space="preserve">
<g>
	<polyline fill="none" stroke="#000000" stroke-width="4" stroke-miterlimit="10" points="-27.338,-12.545 -9.934,2.07 58.266,2.07 
		75.662,-12.545 	"/>
	<polyline fill="none" stroke="#000000" stroke-width="4" stroke-miterlimit="10" points="-27.338,60.528 -9.934,45.913 
		58.266,45.913 75.662,60.528 	"/>
</g>
<g>
	<g>
		<path fill="none" stroke="#000000" stroke-width="2" stroke-linecap="round" stroke-linejoin="round" stroke-miterlimit="10" d="
			M9.434-73.77c0,0-7.129,4.522-7.129,10.093c0,7.654,8.262,12.224,8.262,22.791c0,2.889-8.225,5.211-8.783,9.22
			c-1.044,7.483-0.358,9.34-0.351,17.225c0,4.41,8.225,11.137,6.003,9.2"/>
		<path fill="none" stroke="#000000" stroke-width="2" stroke-linecap="round" stroke-linejoin="round" stroke-miterlimit="10" d="
			M16.741-73.77c0,0-7.128,4.522-7.128,10.093c0,7.654,8.262,12.224,8.262,22.791c0,2.889-8.229,5.211-8.783,9.22
			c-1.044,7.483-0.359,9.34-0.351,17.225c0.008,4.41,8.229,11.137,6.011,9.2"/>
		<path fill="none" stroke="#000000" stroke-width="2" stroke-linecap="round" stroke-linejoin="round" stroke-miterlimit="10" d="
			M24.057-73.77c0,0-7.133,4.522-7.133,10.093c0,7.654,8.264,12.224,8.264,22.791c0,2.889-8.23,5.211-8.785,9.22
			c-1.044,7.483-0.354,9.34-0.347,17.225c0.004,4.41,8.225,11.137,6.003,9.2"/>
		<path fill="none" stroke="#000000" stroke-width="2" stroke-linecap="round" stroke-linejoin="round" stroke-miterlimit="10" d="
			M31.365-73.77c0,0-7.133,4.522-7.133,10.093c0,7.654,8.264,12.224,8.264,22.791c0,2.889-8.227,5.211-8.785,9.22
			c-1.044,7.483-0.357,9.34-0.347,17.225c0.004,4.41,8.221,11.137,6,9.2"/>
		<path fill="none" stroke="#000000" stroke-width="2" stroke-linecap="round" stroke-linejoin="round" stroke-miterlimit="10" d="
			M38.676-73.77c0,0-7.133,4.522-7.133,10.093c0,7.654,8.264,12.224,8.264,22.791c0,2.889-8.227,5.211-8.785,9.22
			c-1.044,7.483-0.357,9.34-0.347,17.225c0.004,4.41,8.225,11.137,6.005,9.2"/>
		<path fill="none" stroke="#000000" stroke-width="2" stroke-linecap="round" stroke-linejoin="round" stroke-miterlimit="10" d="
			M45.988-73.77c0,0-7.133,4.522-7.133,10.093c0,7.654,8.264,12.224,8.264,22.791c0,2.889-8.227,5.211-8.785,9.22
			c-1.044,7.483-0.354,9.34-0.347,17.225c0.004,4.41,8.225,11.137,6.005,9.2"/>
	</g>
	<g>
		<path fill="none" stroke="#000000" stroke-width="2" stroke-linecap="round" stroke-linejoin="round" stroke-miterlimit="10" d="
			M9.434,53.22c0,0-7.129,4.526-7.129,10.097c0,7.65,8.262,12.217,8.262,22.787c0,2.891-8.225,5.211-8.783,9.224
			c-1.044,7.479-0.358,9.339-0.351,17.225c0,4.412,8.225,11.133,6.003,9.2"/>
		<path fill="none" stroke="#000000" stroke-width="2" stroke-linecap="round" stroke-linejoin="round" stroke-miterlimit="10" d="
			M16.741,53.22c0,0-7.128,4.526-7.128,10.097c0,7.65,8.262,12.217,8.262,22.787c0,2.891-8.229,5.211-8.783,9.224
			c-1.044,7.479-0.359,9.339-0.351,17.225c0.008,4.412,8.229,11.133,6.011,9.2"/>
		<path fill="none" stroke="#000000" stroke-width="2" stroke-linecap="round" stroke-linejoin="round" stroke-miterlimit="10" d="
			M24.057,53.22c0,0-7.133,4.526-7.133,10.097c0,7.65,8.264,12.217,8.264,22.787c0,2.891-8.23,5.211-8.785,9.224
			c-1.044,7.479-0.354,9.339-0.347,17.225c0.004,4.412,8.225,11.133,6.003,9.2"/>
		<path fill="none" stroke="#000000" stroke-width="2" stroke-linecap="round" stroke-linejoin="round" stroke-miterlimit="10" d="
			M31.365,53.22c0,0-7.133,4.526-7.133,10.097c0,7.65,8.264,12.217,8.264,22.787c0,2.891-8.227,5.211-8.785,9.224
			c-1.044,7.479-0.357,9.339-0.347,17.225c0.004,4.412,8.221,11.133,6,9.2"/>
		<path fill="none" stroke="#000000" stroke-width="2" stroke-linecap="round" stroke-linejoin="round" stroke-miterlimit="10" d="
			M38.676,53.22c0,0-7.133,4.526-7.133,10.097c0,7.65,8.264,12.217,8.264,22.787c0,2.891-8.227,5.211-8.785,9.224
			c-1.044,7.479-0.357,9.339-0.347,17.225c0.004,4.412,8.225,11.133,6.005,9.2"/>
		<path fill="none" stroke="#000000" stroke-width="2" stroke-linecap="round" stroke-linejoin="round" stroke-miterlimit="10" d="
			M45.988,53.22c0,0-7.133,4.526-7.133,10.097c0,7.65,8.264,12.217,8.264,22.787c0,2.891-8.227,5.211-8.785,9.224
			c-1.044,7.479-0.354,9.339-0.347,17.225c0.004,4.412,8.225,11.133,6.005,9.2"/>
	</g>
</g>
</svg>
