<?xml version="1.0" encoding="utf-8"?>
<!-- Generator: Adobe Illustrator 16.0.0, SVG Export Plug-In . SVG Version: 6.00 Build 0)  -->
<!DOCTYPE svg PUBLIC "-//W3C//DTD SVG 1.1//EN" "http://www.w3.org/Graphics/SVG/1.1/DTD/svg11.dtd">
<svg version="1.1" id="Camada_2" xmlns="http://www.w3.org/2000/svg" xmlns:xlink="http://www.w3.org/1999/xlink" x="0px" y="0px"
	 width="98px" height="99px" viewBox="0 0 98 99" enable-background="new 0 0 98 99" xml:space="preserve">
<circle fill="none" stroke="#000000" stroke-width="6" stroke-miterlimit="10" cx="49.5" cy="49" r="46"/>
<g transform="translate(0.000000,1136.000000) scale(0.100000,-0.100000)">
	<path d="M831.221,10659.989c-13.428,29.219-46.855,94.463-50.801,103.105c-6.26,13.682-18.73,40.527-62.334,134.556
		c-5.537,11.958-21.982,47.495-36.621,78.945c-38.857,83.809-72.93,156.548-74.473,158.979c-0.381,0.64-1.455,0.64-4.6,0.122
		c-9.453-1.465-16.006-4.727-16.006-8.052c0-1.528-0.186-1.597-2.354-1.343c-1.338,0.19-7.275,2.437-13.164,4.927
		c-5.918,2.49-13.623,5.557-17.051,6.772c-8.184,2.813-22.783,6.396-31.328,7.676c-8.193,1.211-27.666,1.719-35.483,0.957
		c-14.893-1.533-31.704-6.396-45.386-13.105c-23.447-11.572-43.022-29.087-90.454-81.182
		c-34.771-38.164-55.933-58.047-76.387-71.602c-24.419-16.294-49.727-23.584-74.468-21.475
		c-20.967,1.792-41.426,7.417-64.565,17.837c-15.405,6.904-19.814,8.369-19.814,6.587c0-2.686,40.21-91.284,134.751-296.938
		l26.147-56.895l9.844-5.225c33.618-18.037,48.198-21.289,91.343-20.518c20.84,0.371,23.071,0.762,36.504,6.26
		c32.534,13.359,51.514,29.072,100.937,83.662c29.15,32.168,46.797,49.688,64.434,63.73c20.898,16.826,41.025,26.807,62.148,31.025
		c6.045,1.133,9.424,1.406,19.16,1.406c13.486,0,22.314-1.104,35.713-4.492c17.09-4.209,28.574-8.691,46.748-17.9l10.625-5.371
		l12.715-27.607c6.953-15.215,39.414-78.604,48.721-98.828 M514.482,11142.475c31.523-5.43,58.047-14.639,67.91-23.647
		c6.953-6.328,10.85-12.979,22.754-39.063c11.748-25.752,12.627-28.369,9.248-27.417c-0.82,0.254-5.176,2.295-9.756,4.531
		c-19.326,9.458-46.748,15.918-70.449,16.685l-12.275,0.386l-9.395,20.845c-9.98,22.109-17.266,39.121-19.063,44.673
		c-1.719,5.249-1.396,5.503,5.576,5.059C502.227,11144.33,509.258,11143.373,514.482,11142.475z M415.864,11107.191
		c2.998-3.579,10.874-19.243,24.473-48.77c3.848-8.252,7.041-15.151,7.168-15.283c0.063-0.132,1.396,0.576,2.876,1.538
		c23.901,15.85,52.988,28.379,65.82,28.442c3.418,0,3.779-0.122,5.244-2.109c3.525-4.6,22.969-46.274,27.178-58.296
		c3.066-8.628,3.145-8.501-5.996-10.933c-22.246-5.815-32.344-10.229-51.592-22.568c-9.453-6.074-10.864-6.582-12.275-4.409
		c-0.566,0.898-5.361,11.06-10.674,22.632c-12.144,26.528-20.132,43.086-20.84,43.086c-0.957,0-7.676-5.439-14.194-11.509
		c-3.579-3.325-12.466-12.397-19.756-20.137c-16.104-17.002-24.98-25.894-26.074-25.894c-0.444,0-1.406,0.962-2.114,2.114
		c-2.935,4.8-22.368,47.114-25.562,55.62c-0.767,2.041-1.343,5.171-1.343,7.085c0,3.076,0.322,3.838,2.813,7.231
		c9.146,12.085,50.176,53.247,53.184,53.247C414.58,11108.28,415.352,11107.772,415.864,11107.191z M576.953,11003.7
		c19.287-2.69,41.416-8.95,58.652-16.685c5.137-2.3,10.635-4.727,12.295-5.425l2.959-1.284l10.342-22.441
		c10.605-23.018,19.307-42.378,20.117-45.063c0.605-1.987,0.645-1.987-14.355,4.351c-24.893,10.479-39.326,14.121-66.816,16.68
		c-7.744,0.767-14.102,1.411-14.102,1.47c-0.342,0.254-16.455,35.347-20.732,45.132c-4.6,10.288-8.945,21.094-8.945,22.109
		c0,0.2,0.957,0.703,2.109,1.221C561.23,11004.984,568.135,11004.984,576.953,11003.7z M296.45,10982.479
		c0.894-1.733,5.947-12.598,11.25-24.17c12.788-27.808,18.022-38.608,18.54-38.608c0.259,0,1.66,0.825,3.198,1.855
		c5.747,3.838,16.616,14.321,32.915,31.704c9.209,9.844,18.472,19.434,20.527,21.357c3.447,3.193,3.765,3.32,4.604,2.231
		c1.348-1.787,4.912-9.072,12.91-26.143c9.131-19.497,16.753-34.707,18.34-36.694l1.284-1.538l3.066,2.817
		c1.655,1.533,9.019,9.141,16.235,16.807c14.121,15.088,27.417,27.686,35.405,33.696c2.754,2.104,5.254,3.77,5.488,3.77
		c0.596,0,3.149-5.234,12.856-26.206c8.687-18.857,16.44-34.839,18.55-38.232l1.27-2.104l2.109,1.089
		c1.074,0.566,5.645,3.389,10.039,6.255c17.852,11.519,32.09,17.393,52.031,21.484c3.438,0.708,6.777,1.279,7.363,1.279
		c1.23,0,4.453-6.392,16.973-33.56c8.594-18.604,12.48-28.452,12.949-32.603c0.43-4.541-1.035-5.752-8.066-6.323
		c-11.27-0.898-30.879-9.268-49.922-21.162c-7.871-4.912-11.074-6.709-12.031-6.709c-0.625,0-7.227,14.053-22.305,47.559
		c-5.039,11.245-9.277,20.581-9.473,20.703c-0.566,0.64-13.086-10.098-21.475-18.408c-4.717-4.731-11.694-12.334-15.396-16.938
		c-6.904-8.569-21.538-23.325-23.076-23.325c-1.216,0-6.465,9.648-14.004,25.757c-9.146,19.692-17.959,37.524-18.789,38.228
		c-1.284,1.084-7.607-4.863-25.054-23.594c-20.723-22.173-34.072-34.834-35.806-33.74c-0.708,0.439-10.679,21.216-22.051,46.074
		c-8.823,19.316-9.15,19.824-11.055,20.015c-1.479,0.127-4.16-1.152-12.085-5.942c-5.625-3.452-13.047-7.607-16.494-9.399
		c-12.979-6.455-28.896-12.144-36.563-13.037c-5.249-0.576-6.333-1.221-5.82-3.521c0.508-2.808,5.947-15.913,13.677-33.174
		c7.861-17.578,12.915-30.479,12.915-32.861c0-2.559-2.041-3.135-9.902-3.057c-17.783,0.195-54.277,9.707-72.427,18.916
		c-7.544,3.828-9.277,5.488-13.936,13.301c-10.098,16.992-26.079,50.166-28.008,58.286c-0.444,1.797-0.444,1.797,1.987,1.348
		c1.343-0.195,8.438-2.817,15.854-5.757c24.414-9.775,40.972-13.74,63.726-15.342c7.031-0.508,10.43-0.127,11.006,1.348
		c0.698,1.851-5.82,17.256-21.68,51.265c-4.092,8.887-7.412,16.299-7.285,16.426c0.132,0.132,6.074,1.665,13.164,3.452
		c19.307,4.863,24.937,6.978,35.991,13.804c12.275,7.554,23.843,14.385,24.355,14.385
		C294.663,10985.541,295.62,10984.135,296.45,10982.479z M651.592,10861.215c13.447-2.104,29.873-6.841,45.283-13.042
		c9.512-3.838,15.469-7.09,17.705-9.775c3.506-4.16,28.389-56.826,29.551-62.52l0.303-1.914l-2.432,0.889
		c-1.406,0.498-6.66,2.627-11.699,4.795c-10.684,4.531-20.273,7.725-31.016,10.283c-12.09,2.939-20.059,3.975-35.059,4.424
		l-13.965,0.381l-14.961,32.598c-8.232,17.9-15.01,32.92-15.01,33.311c0,1.655,3.564,2.168,14.053,1.914
		C640.156,10862.426,647.9,10861.791,651.592,10861.215z M361.655,10840.956c2.173-4.033,15.215-32.285,24.043-52.305
		c2.554-5.801,4.722-10.664,4.849-10.791c0.449-0.508,11.641,9.453,19.497,17.393c4.663,4.6,15.791,16.299,24.678,25.879
		c8.95,9.531,16.367,17.383,16.558,17.383c0.444,0,5.889-11.24,16.489-34.131c11.826-25.381,15.85-33.623,16.431-33.623
		c0.181,0,7.158,7.295,15.469,16.172c19.951,21.416,32.979,33.887,41.875,40.01c4.141,2.891,3.457,4.033,19.355-30.928
		c7.998-17.588,14.57-32.285,14.57-32.617c0.068-0.381-5.801-6.064-12.949-12.637c-7.158-6.592-17.334-16.494-22.578-21.982
		c-18.672-19.883-23.74-24.746-24.678-23.984c-1.416,1.152-10.928,20.215-21.221,42.324c-5.122,11.045-9.59,20.381-9.844,20.654
		c-0.322,0.293-8.76-8.398-18.804-19.248c-26.963-29.238-38.857-39.971-41.86-38.037c-1.475,0.908-6.079,9.766-17.778,34.375
		c-10.933,22.949-14.761,30.371-15.659,30.371c-0.317,0-5.884-3.252-12.275-7.285c-18.154-11.328-24.99-14.443-42.183-19.316
		c-11.958-3.389-17.07-5.234-17.07-6.055c0-1.016,4.673-11.699,15.664-35.732c11.758-25.703,14.507-32.041,14.131-32.432
		c-0.771-0.752-10.161-0.889-17.974-0.254c-22.236,1.934-36.426,5.957-66.475,18.936c-6.333,2.695-11.826,5.234-12.217,5.703
		c-0.703,0.635-6.006,11.943-20.898,44.473c-7.861,17.344-10.732,23.848-10.415,24.092c0.127,0.205,5.107-1.719,11.055-4.141
		c27.427-11.436,38.291-14.824,54.849-17.139c7.856-1.094,27.935-1.572,28.828-0.713c0.645,0.645-0.64,3.643-14.126,33.389
		c-6.455,14.053-12.529,27.666-13.623,30.166l-1.968,4.668l1.719,0.889c0.957,0.518,4.478,1.475,7.798,2.178
		c15.981,3.447,33.12,10.869,49.224,21.211c7.803,5,11.699,6.973,13.877,7.051
		C359.097,10844.921,359.932,10843.954,361.655,10840.956z M426.099,10701.278c1.211-2.744,8.169-17.822,15.469-33.496
		c7.207-15.654,13.159-28.838,13.159-29.15c0-0.586-12.598-8.506-23.652-14.893c-12.08-7.031-29.985-14.238-39.448-15.986
		c-9.185-1.67-12.646,1.748-21.406,20.693c-5.366,11.66-15.405,34.863-17.51,40.41c-0.84,2.256-1.348,4.482-1.157,5.01
		c0.454,1.152,3.579,2.275,6.396,2.275c10.039,0,35.342,10.82,54.272,23.213c5.62,3.711,10.542,6.777,10.928,6.777
		C423.535,10706.2,424.814,10703.974,426.099,10701.278z"/>
</g>
</svg>
