<?xml version="1.0" encoding="utf-8"?>
<!-- Generator: Adobe Illustrator 16.0.0, SVG Export Plug-In . SVG Version: 6.00 Build 0)  -->
<!DOCTYPE svg PUBLIC "-//W3C//DTD SVG 1.1//EN" "http://www.w3.org/Graphics/SVG/1.1/DTD/svg11.dtd">
<svg version="1.1" id="Camada_2" xmlns="http://www.w3.org/2000/svg" xmlns:xlink="http://www.w3.org/1999/xlink" x="0px" y="0px"
	 width="99px" height="98px" viewBox="0 0 99 98" enable-background="new 0 0 99 98" xml:space="preserve">
<circle fill="none" stroke="#000000" stroke-width="6" stroke-miterlimit="10" cx="49.5" cy="49" r="46"/>
<g>
	<path d="M10.958,51.989l5.722-0.357c0.124,0.929,0.376,1.637,0.757,2.123c0.62,0.789,1.504,1.183,2.655,1.183
		c0.858,0,1.521-0.201,1.985-0.604c0.465-0.402,0.697-0.869,0.697-1.4c0-0.505-0.222-0.956-0.664-1.354s-1.469-0.774-3.08-1.128
		c-2.638-0.594-4.519-1.382-5.643-2.364c-1.133-0.982-1.7-2.235-1.7-3.758c0-1,0.29-1.945,0.87-2.834
		c0.58-0.89,1.452-1.589,2.616-2.098c1.164-0.509,2.759-0.764,4.787-0.764c2.487,0,4.383,0.462,5.689,1.387
		c1.306,0.925,2.083,2.397,2.33,4.415l-5.669,0.332c-0.15-0.876-0.467-1.514-0.949-1.912c-0.483-0.398-1.149-0.597-1.999-0.597
		c-0.699,0-1.226,0.148-1.58,0.444c-0.354,0.297-0.531,0.657-0.531,1.082c0,0.31,0.146,0.589,0.438,0.837
		c0.283,0.256,0.956,0.496,2.018,0.717c2.628,0.566,4.512,1.14,5.649,1.719c1.137,0.58,1.965,1.299,2.483,2.158
		c0.518,0.858,0.777,1.818,0.777,2.882c0,1.248-0.345,2.397-1.036,3.451c-0.69,1.054-1.655,1.853-2.894,2.396
		c-1.239,0.545-2.802,0.817-4.687,0.817c-3.311,0-5.603-0.638-6.877-1.913C11.848,55.575,11.125,53.955,10.958,51.989z"/>
	<path d="M30.276,38.965h18.282v4.807h-6.134v14.657H36.41V43.771h-6.134V38.965z"/>
	<path d="M49.595,48.71c0-3.177,0.885-5.651,2.655-7.421c1.77-1.771,4.235-2.656,7.396-2.656c3.239,0,5.735,0.87,7.488,2.609
		s2.628,4.176,2.628,7.31c0,2.274-0.383,4.14-1.147,5.596c-0.766,1.456-1.872,2.589-3.32,3.398c-1.446,0.81-3.25,1.216-5.41,1.216
		c-2.195,0-4.012-0.351-5.45-1.05c-1.438-0.698-2.604-1.805-3.498-3.319C50.041,52.88,49.595,50.984,49.595,48.71z M55.609,48.737
		c0,1.965,0.364,3.377,1.095,4.235c0.73,0.859,1.725,1.289,2.98,1.289c1.293,0,2.293-0.421,3.001-1.262
		c0.709-0.841,1.063-2.351,1.063-4.527c0-1.833-0.369-3.171-1.109-4.017c-0.739-0.845-1.741-1.268-3.007-1.268
		c-1.213,0-2.187,0.43-2.921,1.288C55.976,45.333,55.609,46.754,55.609,48.737z"/>
	<path d="M72.976,38.965h9.997c2.178,0,3.809,0.518,4.893,1.554c1.085,1.035,1.627,2.509,1.627,4.421c0,1.965-0.591,3.5-1.772,4.607
		c-1.183,1.106-2.985,1.659-5.411,1.659h-3.292v7.223h-6.041V38.965z M79.017,47.263h1.474c1.159,0,1.974-0.201,2.442-0.604
		c0.47-0.402,0.704-0.918,0.704-1.547c0-0.61-0.204-1.128-0.61-1.553c-0.407-0.425-1.173-0.637-2.297-0.637h-1.713V47.263z"/>
</g>
</svg>
