<?xml version="1.0" encoding="utf-8"?>
<!-- Generator: Adobe Illustrator 16.0.0, SVG Export Plug-In . SVG Version: 6.00 Build 0)  -->
<!DOCTYPE svg PUBLIC "-//W3C//DTD SVG 1.1//EN" "http://www.w3.org/Graphics/SVG/1.1/DTD/svg11.dtd">
<svg version="1.1" id="Camada_2" xmlns="http://www.w3.org/2000/svg" xmlns:xlink="http://www.w3.org/1999/xlink" x="0px" y="0px"
	 width="98px" height="99px" viewBox="0 0 98 99" enable-background="new 0 0 98 99" xml:space="preserve">
<circle fill="none" stroke="#1E1E1C" stroke-width="6" stroke-miterlimit="10" cx="49.5" cy="49" r="46"/>
<path stroke="#000000" stroke-miterlimit="10" d="M35.673,46.063L56.357,67.51l-4.781,4.78c-2.615,2.525-9.366-0.232-15.078-6.153
	c-5.711-5.923-8.222-12.77-5.605-15.293L35.673,46.063z"/>
<path fill="#FFFFFF" stroke="#000000" stroke-miterlimit="10" d="M53.715,55.745"/>
<path fill="#FFFFFF" stroke="#000000" stroke-miterlimit="10" d="M48.557,50.135"/>
<path fill="#FFFFFF" stroke="#000000" stroke-miterlimit="10" d="M53.715,55.745c3.535,4.898,4.751,9.733,2.643,11.765
	c-2.615,2.525-9.367-0.232-15.079-6.153c-5.711-5.923-8.222-12.77-5.605-15.293c2.126-2.05,6.982-0.615,11.793,3.171
	c0.364,0.287,0.728,0.587,1.09,0.9"/>
<polyline fill="none" stroke="#1E1E1C" stroke-width="2" stroke-miterlimit="10" points="24.5,77.5 24.5,26.5 75.25,26.5 "/>
<polygon fill="#FFFFFF" points="43.107,52.438 51.625,48.25 54,49.813 52.205,54.125 54,55.745 52.75,59.063 49.875,62.563 
	45.438,59.645 42.063,55.406 "/>
<path d="M54.188,58.25c0.875-2.313,10.146-13.326,10.146-13.326l-5.75-6.216c0,0-7.416,9.125-11.75,10.292s-5.13,0.45-6.146,1.438
	c-1.028,1-0.913,2.481,1.56,3.171c2.042,0.569,8.748-3.873,9.585-4.108c0.667-0.188,1.474-0.144,1.084,1.417
	c-0.583,2.334-5.198,5.958-8.662,7.464c-1.663,0.723,1.307,4.15,2.588,0.9c0.542-1.373,4.547-3.156,5.508-3.031
	s0.065,1.417,0.065,1.417S50.458,59.226,49,60.334c-0.818,0.622-0.919,2.968,0.5,3.541c0.213,0.086,2.458,1.813,3.625-1.125
	C54.258,59.897,53.182,60.908,54.188,58.25z"/>
<circle cx="66.125" cy="38.708" r="7.542"/>
<path fill="#FFFFFF" d="M66.083,33.833c0,0-2.293,0.109-3.385,1.747c-1.093,1.638-0.972,3.118-0.539,4.041
	c0.242,0.515,1.412,1.856,2.231,0.437c0.818-1.42-0.264-0.958,0.57-3.569C65.81,33.833,66.083,33.833,66.083,33.833L66.083,33.833z"
	/>
</svg>
