<?xml version="1.0" encoding="utf-8"?>
<!-- Generator: Adobe Illustrator 16.0.0, SVG Export Plug-In . SVG Version: 6.00 Build 0)  -->
<!DOCTYPE svg PUBLIC "-//W3C//DTD SVG 1.1//EN" "http://www.w3.org/Graphics/SVG/1.1/DTD/svg11.dtd">
<svg version="1.1" id="Camada_2" xmlns="http://www.w3.org/2000/svg" xmlns:xlink="http://www.w3.org/1999/xlink" x="0px" y="0px"
	 width="171px" height="88px" viewBox="0 0 171 88" enable-background="new 0 0 171 88" xml:space="preserve">
<circle fill="none" stroke="#000000" stroke-width="6" stroke-miterlimit="10" cx="37.028" cy="38.657" r="31.714"/>
<circle fill="none" stroke="#000000" stroke-width="6" stroke-miterlimit="10" cx="133.771" cy="38.657" r="31.714"/>
<polygon points="100.812,20.132 104.317,17.232 107.319,22.735 103.387,25.466 "/>
<polygon points="104.96,16.901 102.812,12.49 106.584,11.754 110.666,12.134 112.209,15.754 108.918,15.75 "/>
<polygon points="105.479,32.497 107.556,30.747 110.253,29.403 113.752,37.355 111.184,38.364 108.491,40.473 "/>
<polygon points="114.184,38.336 117.25,45.305 120.69,45.507 125.826,47.706 125.123,46.055 122.418,40.473 121.448,37.433 
	118.426,36.963 114.99,37.099 113.752,37.355 "/>
<polygon points="129.151,40.348 134.797,53.497 138.152,54.878 141.497,55.776 144.511,55.863 144.03,54.764 140.079,45.711 
	134.751,43.167 "/>
<polygon points="146.743,45.678 150.55,53.359 152.734,49.519 155.166,42.333 151.349,35.466 150.168,40.75 148.584,44 "/>
<polygon points="136.31,37.076 139.688,38.063 143.444,38.214 146.084,43.083 147.084,45.584 144.511,47 141.697,46.224 
	140.079,45.711 138.084,42.038 "/>
<polygon points="121.448,37.433 118.039,29.434 121.908,30.747 125.211,32.171 128.001,36.963 129.151,40.348 125.826,38.856 "/>
<polygon points="107.319,22.735 110.253,29.403 114.085,28.883 118.624,29.632 116.001,24.651 114.8,21.833 110.918,21.349 "/>
<polygon points="112.209,15.754 112.481,15.833 116.176,16.901 119.125,18.144 122.084,24.696 118.624,23.264 114.8,21.833 "/>
<polygon points="117.25,13.991 119.125,18.144 125.012,20.225 129.334,21.094 127.533,16.968 123.292,15.417 "/>
<polygon points="133.333,15.333 136,20.002 139.207,17.542 142.505,12.918 139.684,7.097 136.415,10.85 "/>
<polygon points="129.933,21.147 132.123,21.147 135.495,20.225 139.563,28.459 137.001,29.434 132.822,29.086 "/>
<polygon points="122.258,25.081 125.826,32.167 130.751,34.891 136.31,37.076 134.604,33.168 132.822,29.086 127.751,27.417 "/>
<polygon points="139.563,28.459 142.947,25.081 146.743,21.667 149.102,28.747 147.857,34.429 143.444,38.214 "/>
<line fill="none" stroke="#000000" stroke-width="4" stroke-miterlimit="10" x1="2" y1="75.999" x2="31.668" y2="3.333"/>
<path fill="none" stroke="#000000" stroke-width="2" stroke-miterlimit="10" d="M30.755,5.567c0,0,4.578,4.1,7.912,9.766
	c2.798,4.756,14-1.399,22.667-3.2S73,15.333,73,15.333L60.667,48c0,0-2.667-2.666-7.5-4c-4.833-1.333-10.999,7.334-16.333,9.667
	s-8.167,3-13.167,1.333s-6.833-14.682-6.833-14.682L30.755,5.567z"/>
<g>
	<path d="M21.248,76.449h5.003c0.986,0,1.783,0.134,2.39,0.401c0.607,0.268,1.109,0.652,1.505,1.152
		c0.396,0.501,0.684,1.083,0.862,1.747s0.268,1.368,0.268,2.111c0,1.164-0.132,2.067-0.397,2.709
		c-0.265,0.643-0.633,1.18-1.104,1.613s-0.976,0.723-1.517,0.866c-0.738,0.198-1.407,0.297-2.007,0.297h-5.003V76.449z
		 M24.615,78.917v5.955h0.825c0.704,0,1.205-0.078,1.502-0.234s0.53-0.429,0.699-0.817c0.168-0.39,0.252-1.021,0.252-1.893
		c0-1.154-0.188-1.944-0.565-2.371c-0.376-0.426-1.001-0.64-1.873-0.64H24.615z"/>
	<path d="M32.458,83.742l3.204-0.201c0.069,0.521,0.211,0.917,0.424,1.189c0.347,0.441,0.842,0.662,1.487,0.662
		c0.48,0,0.851-0.113,1.111-0.339s0.39-0.486,0.39-0.784c0-0.282-0.124-0.535-0.372-0.758c-0.248-0.224-0.823-0.434-1.725-0.632
		c-1.477-0.332-2.53-0.773-3.159-1.323c-0.634-0.551-0.952-1.252-0.952-2.104c0-0.561,0.162-1.09,0.487-1.588
		s0.813-0.89,1.464-1.174c0.652-0.285,1.545-0.428,2.68-0.428c1.393,0,2.454,0.259,3.185,0.776c0.731,0.519,1.166,1.342,1.305,2.472
		l-3.174,0.187c-0.084-0.491-0.261-0.848-0.531-1.07c-0.27-0.224-0.643-0.335-1.119-0.335c-0.392,0-0.687,0.083-0.885,0.249
		s-0.297,0.368-0.297,0.605c0,0.174,0.082,0.33,0.245,0.469c0.159,0.144,0.535,0.277,1.13,0.401
		c1.472,0.317,2.526,0.638,3.163,0.963c0.637,0.324,1.1,0.728,1.39,1.208s0.435,1.019,0.435,1.613c0,0.698-0.193,1.343-0.58,1.933
		c-0.386,0.59-0.927,1.037-1.621,1.342s-1.568,0.457-2.624,0.457c-1.854,0-3.137-0.357-3.851-1.07
		C32.956,85.749,32.552,84.842,32.458,83.742z"/>
	<path d="M43.452,83.742l3.204-0.201c0.069,0.521,0.21,0.917,0.423,1.189c0.347,0.441,0.843,0.662,1.487,0.662
		c0.481,0,0.851-0.113,1.111-0.339s0.39-0.486,0.39-0.784c0-0.282-0.124-0.535-0.372-0.758c-0.248-0.224-0.823-0.434-1.725-0.632
		c-1.477-0.332-2.53-0.773-3.159-1.323c-0.634-0.551-0.952-1.252-0.952-2.104c0-0.561,0.163-1.09,0.487-1.588
		c0.324-0.498,0.813-0.89,1.464-1.174c0.651-0.285,1.545-0.428,2.68-0.428c1.393,0,2.454,0.259,3.185,0.776
		c0.731,0.519,1.166,1.342,1.305,2.472l-3.174,0.187c-0.084-0.491-0.262-0.848-0.532-1.07c-0.27-0.224-0.643-0.335-1.119-0.335
		c-0.392,0-0.687,0.083-0.885,0.249s-0.297,0.368-0.297,0.605c0,0.174,0.082,0.33,0.246,0.469c0.158,0.144,0.535,0.277,1.13,0.401
		c1.472,0.317,2.526,0.638,3.163,0.963c0.637,0.324,1.1,0.728,1.39,1.208c0.29,0.48,0.435,1.019,0.435,1.613
		c0,0.698-0.193,1.343-0.58,1.933c-0.387,0.59-0.927,1.037-1.621,1.342s-1.569,0.457-2.624,0.457c-1.854,0-3.137-0.357-3.851-1.07
		C43.95,85.749,43.546,84.842,43.452,83.742z"/>
</g>
<g>
	<path d="M124.317,85.761h-3.911l-0.543,1.84h-3.517l4.189-11.146h3.757l4.189,11.146h-3.607L124.317,85.761z M123.604,83.35
		l-1.23-4.007l-1.219,4.007H123.604z"/>
	<path d="M128.977,83.913l3.276-0.206c0.071,0.532,0.216,0.938,0.434,1.217c0.354,0.451,0.862,0.677,1.521,0.677
		c0.492,0,0.871-0.115,1.137-0.346s0.399-0.498,0.399-0.803c0-0.288-0.127-0.547-0.38-0.775c-0.254-0.228-0.842-0.443-1.765-0.646
		c-1.511-0.339-2.587-0.79-3.231-1.353c-0.648-0.563-0.973-1.28-0.973-2.152c0-0.572,0.166-1.113,0.498-1.623
		s0.831-0.91,1.498-1.201c0.666-0.292,1.58-0.438,2.74-0.438c1.425,0,2.511,0.265,3.258,0.795c0.748,0.529,1.193,1.372,1.335,2.527
		l-3.247,0.19c-0.086-0.502-0.268-0.867-0.543-1.095c-0.276-0.229-0.658-0.342-1.145-0.342c-0.4,0-0.702,0.084-0.904,0.254
		c-0.203,0.17-0.305,0.377-0.305,0.62c0,0.178,0.084,0.337,0.251,0.479c0.162,0.147,0.548,0.284,1.155,0.411
		c1.506,0.324,2.584,0.652,3.235,0.984s1.126,0.744,1.422,1.235c0.297,0.492,0.444,1.042,0.444,1.65
		c0,0.715-0.197,1.374-0.592,1.977c-0.396,0.604-0.949,1.061-1.658,1.373c-0.709,0.312-1.604,0.467-2.684,0.467
		c-1.896,0-3.209-0.364-3.939-1.095C129.485,85.966,129.072,85.038,128.977,83.913z"/>
	<path d="M140.222,83.913l3.276-0.206c0.071,0.532,0.216,0.938,0.434,1.217c0.355,0.451,0.861,0.677,1.521,0.677
		c0.491,0,0.87-0.115,1.137-0.346c0.266-0.23,0.398-0.498,0.398-0.803c0-0.288-0.127-0.547-0.38-0.775
		c-0.253-0.228-0.841-0.443-1.765-0.646c-1.51-0.339-2.587-0.79-3.23-1.353c-0.649-0.563-0.974-1.28-0.974-2.152
		c0-0.572,0.166-1.113,0.498-1.623s0.831-0.91,1.498-1.201c0.667-0.292,1.58-0.438,2.741-0.438c1.424,0,2.51,0.265,3.258,0.795
		c0.748,0.529,1.192,1.372,1.334,2.527l-3.246,0.19c-0.086-0.502-0.268-0.867-0.544-1.095c-0.276-0.229-0.657-0.342-1.145-0.342
		c-0.4,0-0.702,0.084-0.905,0.254c-0.202,0.17-0.303,0.377-0.303,0.62c0,0.178,0.083,0.337,0.25,0.479
		c0.162,0.147,0.548,0.284,1.156,0.411c1.506,0.324,2.584,0.652,3.234,0.984c0.652,0.332,1.126,0.744,1.422,1.235
		c0.297,0.492,0.445,1.042,0.445,1.65c0,0.715-0.197,1.374-0.594,1.977c-0.395,0.604-0.947,1.061-1.656,1.373
		c-0.711,0.312-1.605,0.467-2.685,0.467c-1.896,0-3.208-0.364-3.938-1.095C140.73,85.966,140.318,85.038,140.222,83.913z"/>
</g>
<line fill="none" stroke="#000000" stroke-width="4" stroke-miterlimit="10" x1="170" y1="75.999" x2="140.332" y2="3.333"/>
<path fill="none" stroke="#000000" stroke-miterlimit="10" d="M155.166,40.318c0,0-1.833,13.015-6.833,14.682s-7.832,1-13.167-1.333
	c-5.334-2.333-13.083-9.696-17.916-8.362c-4.833,1.334-5.917,2.695-5.917,2.695L99,15.333c0,0,3-5,11.666-3.2
	c8.667,1.8,19.869,7.956,22.667,3.2c3.333-5.667,7.911-9.766,7.911-9.766L155.166,40.318z M100.812,20.132
	c0,0,4.272-5.933,12.938-4.132c2.691,0.559,15.522,8.037,22.25,4.002c6.25-3.749,7.293-9.32,7.293-9.32 M105.587,32.78
	c0,0,2.997-5.331,11.663-3.53c8.667,1.8,23.082,12.5,28.25,8c5.994-4.5,2.705-14.91,2.705-14.91 M108.491,40.473
	c0,0,3.759-4.96,12.425-3.16C132.273,39.672,143.675,51.7,148.205,44c3.333-5.667,3.289-10.127,3.289-10.127 M113.75,16
	c-8.666-1.8-12.938,4.132-12.938,4.132 M102.812,26.132c0,0,4.272-5.933,12.938-4.132c2.691,0.559,19.091,11.428,24.582,5.825
	c5.343-5.452,6.747-7.693,6.747-7.693 M117.25,45.305L102.812,12.49 M125.992,48.095l-15.326-35.961 M135.166,53.667L117.25,13.991
	 M127.533,16.968l16.978,38.895 M133.333,15.333l16.94,38.333"/>
</svg>
