<?xml version="1.0" encoding="utf-8"?>
<!-- Generator: Adobe Illustrator 16.0.0, SVG Export Plug-In . SVG Version: 6.00 Build 0)  -->
<!DOCTYPE svg PUBLIC "-//W3C//DTD SVG 1.1//EN" "http://www.w3.org/Graphics/SVG/1.1/DTD/svg11.dtd">
<svg version="1.1" id="Camada_3" xmlns="http://www.w3.org/2000/svg" xmlns:xlink="http://www.w3.org/1999/xlink" x="0px" y="0px"
	 width="88.234px" height="81.135px" viewBox="0 0 88.234 81.135" enable-background="new 0 0 88.234 81.135" xml:space="preserve">
<ellipse fill="none" stroke="#000000" stroke-width="6" stroke-miterlimit="10" cx="44" cy="41.317" rx="40.5" ry="38.317"/>
<g>
	<rect x="24.834" y="63.959" width="39.334" height="2.576"/>
	<polygon points="33.001,31.881 33.001,64.731 56.001,64.731 56.001,16.035 33.001,16.035 	"/>
	
		<rect x="37.178" y="19.61" fill="#FFFFFF" stroke="#FFFFFF" stroke-linecap="round" stroke-linejoin="round" stroke-miterlimit="10" width="14.646" height="10.406"/>
	<path fill="none" stroke="#000000" stroke-width="2" stroke-miterlimit="10" d="M33.001,19.61c0,0-3.625,2.608-3.625,5.797
		s0,27.344,0,27.344s-0.375,6.28-5.625,6.28s-7.125-2.512-7.625-4.928c-0.586-2.83,3.309-11.274,4.625-14.783
		c0.834-2.222,2.75-7.439,7.125-7.439s5.125,0,5.125,0"/>
	<ellipse cx="33.188" cy="20.794" rx="1.438" ry="3.019"/>
</g>
</svg>
