<?xml version="1.0" encoding="utf-8"?>
<!-- Generator: Adobe Illustrator 16.0.0, SVG Export Plug-In . SVG Version: 6.00 Build 0)  -->
<!DOCTYPE svg PUBLIC "-//W3C//DTD SVG 1.1//EN" "http://www.w3.org/Graphics/SVG/1.1/DTD/svg11.dtd">
<svg version="1.1" id="Camada_3" xmlns="http://www.w3.org/2000/svg" xmlns:xlink="http://www.w3.org/1999/xlink" x="0px" y="0px"
	 width="90.263px" height="86.206px" viewBox="0 0 90.263 86.206" enable-background="new 0 0 90.263 86.206" xml:space="preserve">
<path d="M34.667,44.667c0,0-10.743,8.506-13.542,11.208c-3.625,3.5,2.283,8.737,5.375,6.75S36.75,54.625,42,51s9.271-1.444,12.333-1
	c3.1,0.45,8.126-0.541,11.334-5.333s0-13.042,0-13.042s-2.624,1.428-4.167,2.625c-1.018,0.79-1.893,1.79-5.188,4.425
	c-1.265,1.011-4.172,0.079-5.187-1.675c-1.542-2.667,0.208-6,3.049-7.937S58.667,26,58.667,26S55,23.708,51,23.667
	s-7.783,2.303-9.125,4.458c-1.593,2.559-2.263,8.389-3.138,11.639S34.667,44.667,34.667,44.667z"/>
<g>
	<line fill="none" stroke="#000000" stroke-width="4" stroke-miterlimit="10" x1="61.187" y1="76.724" x2="13.51" y2="29.048"/>
	<line fill="none" stroke="#000000" stroke-width="4" stroke-miterlimit="10" x1="68.854" y1="70.747" x2="18.157" y2="20.051"/>
	<line fill="none" stroke="#000000" stroke-width="4" stroke-miterlimit="10" x1="74.753" y1="63.158" x2="27.076" y2="15.482"/>
</g>
<circle fill="none" stroke="#000000" stroke-width="6" stroke-miterlimit="10" cx="46.131" cy="45.103" r="35.455"/>
</svg>
