<?xml version="1.0" encoding="utf-8"?>
<!-- Generator: Adobe Illustrator 16.0.0, SVG Export Plug-In . SVG Version: 6.00 Build 0)  -->
<!DOCTYPE svg PUBLIC "-//W3C//DTD SVG 1.1//EN" "http://www.w3.org/Graphics/SVG/1.1/DTD/svg11.dtd">
<svg version="1.1" xmlns="http://www.w3.org/2000/svg" xmlns:xlink="http://www.w3.org/1999/xlink" x="0px" y="0px"
	 width="88.234px" height="80.12px" viewBox="0 0 88.234 80.12" enable-background="new 0 0 88.234 80.12" xml:space="preserve">
<g id="Camada_2">
	<ellipse fill="none" stroke="#000000" stroke-width="6" stroke-miterlimit="10" cx="43.25" cy="40.56" rx="39.75" ry="37.56"/>
</g>
<g id="Camada_3">
	<ellipse transform="matrix(-0.9159 -0.4013 0.4013 -0.9159 76.933 80.2134)" cx="46.868" cy="32.049" rx="8.829" ry="13.027"/>
	<path d="M55.78,57.666l0.718-3.45L45.333,41.667l-7.282-1.606l-14.717,1.606l-2.439,5.049c-1.351,4.304,5.364,10.244,14.998,13.269
		C45.525,63.007,54.43,61.97,55.78,57.666z"/>
</g>
<g id="Camada_4">
	<path fill="#FFFFFF" d="M21.75,48.5c-0.294-2.252,1.789-6.345,2.875-4.625c6.5,10.291,30.671,10.943,30.671,10.943
		s0.12,3.549-2.212,4.682C46.578,62.66,22.75,56.167,21.75,48.5z"/>
</g>
</svg>
