<?xml version="1.0" encoding="utf-8"?>
<!-- Generator: Adobe Illustrator 16.0.0, SVG Export Plug-In . SVG Version: 6.00 Build 0)  -->
<!DOCTYPE svg PUBLIC "-//W3C//DTD SVG 1.1//EN" "http://www.w3.org/Graphics/SVG/1.1/DTD/svg11.dtd">
<svg version="1.1" id="Camada_2" xmlns="http://www.w3.org/2000/svg" xmlns:xlink="http://www.w3.org/1999/xlink" x="0px" y="0px"
	 width="100px" height="87px" viewBox="0 0 100 87" enable-background="new 0 0 100 87" xml:space="preserve">
<polygon points="87.058,37.545 99,43.498 87.058,49.455 "/>
<line fill="none" stroke="#000000" stroke-width="4" stroke-miterlimit="10" x1="92.029" y1="43.5" x2="0" y2="43.5"/>
<polygon points="40.06,11.942 46.012,0 51.969,11.942 "/>
<line fill="none" stroke="#000000" stroke-width="4" stroke-miterlimit="10" x1="46.015" y1="11.942" x2="46.015" y2="25.667"/>
<line fill="none" stroke="#000000" stroke-width="4" stroke-miterlimit="10" x1="48" y1="87" x2="48" y2="62.667"/>
<line fill="none" stroke="#000000" stroke-width="4" stroke-miterlimit="10" x1="26.169" y1="62.667" x2="69" y2="62.667"/>
<polygon points="26.169,60.667 18.835,64.833 18.835,73.167 26.169,64.625 "/>
<polygon points="69,60.667 76.333,64.833 76.333,73.167 69,64.625 "/>
<line fill="none" stroke="#000000" stroke-width="4" stroke-miterlimit="10" x1="24.169" y1="25.167" x2="67" y2="25.167"/>
<polygon points="24.169,27.167 16.835,23.001 16.835,14.667 24.169,23.209 "/>
<polygon points="67,27.167 74.333,23.001 74.333,14.667 67,23.209 "/>
</svg>
