<?xml version="1.0" encoding="utf-8"?>
<!-- Generator: Adobe Illustrator 16.0.0, SVG Export Plug-In . SVG Version: 6.00 Build 0)  -->
<!DOCTYPE svg PUBLIC "-//W3C//DTD SVG 1.1//EN" "http://www.w3.org/Graphics/SVG/1.1/DTD/svg11.dtd">
<svg version="1.1" id="Camada_2" xmlns="http://www.w3.org/2000/svg" xmlns:xlink="http://www.w3.org/1999/xlink" x="0px" y="0px"
	 width="57px" height="100px" viewBox="0 0 57 100" enable-background="new 0 0 57 100" xml:space="preserve">
<path fill="none" stroke="#000000" stroke-width="4" stroke-miterlimit="10" d="M44.316,2.667c0,0,7.434,2.583,8.684,7.583
	c1.482,5.929-12.155,9.887-12.549,15.75s12.147,9.903,12.147,16.266c0,6.363-12.139,9.985-12.139,16.186
	c0,4.404,12.139,10.637,12.139,16.118c0,5.482-11.902,9.999-11.902,15.089s5.666,6.276,9.259,8.602"/>
<path fill="none" stroke="#000000" stroke-width="4" stroke-miterlimit="10" d="M6.875,2.667c0,0,7.434,2.583,8.684,7.583
	C17.041,16.179,3.403,20.137,3.009,26s12.147,9.903,12.147,16.266c0,6.363-12.139,9.985-12.139,16.186
	c0,4.404,12.139,10.637,12.139,16.118c0,5.482-11.902,9.999-11.902,15.089s5.666,6.276,9.259,8.602"/>
</svg>
