<?xml version="1.0" encoding="utf-8"?>
<!-- Generator: Adobe Illustrator 16.0.0, SVG Export Plug-In . SVG Version: 6.00 Build 0)  -->
<!DOCTYPE svg PUBLIC "-//W3C//DTD SVG 1.1//EN" "http://www.w3.org/Graphics/SVG/1.1/DTD/svg11.dtd">
<svg version="1.1" id="Camada_2" xmlns="http://www.w3.org/2000/svg" xmlns:xlink="http://www.w3.org/1999/xlink" x="0px" y="0px"
	 width="60px" height="100px" viewBox="0 0 60 100" enable-background="new 0 0 60 100" xml:space="preserve">
<polygon points="5.808,17.94 16.624,3.749 27.442,17.94 "/>
<path fill="none" stroke="#000000" stroke-width="4" stroke-miterlimit="10" d="M16.625,17.94c0,0,0-1.44,0,5.81
	c0,12.75,21.572,10.224,31.125,15c8,4,9.531,8.324,10,12.25c0.371,3.103,0.128,9.377,0,12.5c-0.203,4.946-0.5,11.75-13.75,14.25
	C24.25,81.5,16.625,95,16.625,95"/>
<line fill="none" stroke="#000000" stroke-width="4" stroke-miterlimit="10" x1="16.625" y1="51" x2="16.625" y2="100"/>
<line fill="none" stroke="#000000" stroke-width="2" stroke-miterlimit="10" x1="1.5" y1="52.25" x2="30" y2="59.5"/>
<line fill="none" stroke="#000000" stroke-width="2" stroke-miterlimit="10" x1="1.5" y1="56.25" x2="30" y2="63.5"/>
</svg>
