<?xml version="1.0" encoding="utf-8"?>
<!-- Generator: Adobe Illustrator 16.0.0, SVG Export Plug-In . SVG Version: 6.00 Build 0)  -->
<!DOCTYPE svg PUBLIC "-//W3C//DTD SVG 1.1//EN" "http://www.w3.org/Graphics/SVG/1.1/DTD/svg11.dtd">
<svg version="1.1" id="Camada_2" xmlns="http://www.w3.org/2000/svg" xmlns:xlink="http://www.w3.org/1999/xlink" x="0px" y="0px"
	 width="59px" height="75px" viewBox="0 0 59 75" enable-background="new 0 0 59 75" xml:space="preserve">
<g>
	<line fill="none" stroke="#000000" stroke-width="4" stroke-miterlimit="10" x1="6.25" y1="6.375" x2="25.75" y2="6.375"/>
	<line fill="none" stroke="#000000" stroke-width="4" stroke-miterlimit="10" x1="16" y1="18.75" x2="16" y2="0"/>
</g>
<g>
	<line fill="none" stroke="#000000" stroke-width="4" stroke-miterlimit="10" x1="33.25" y1="6.375" x2="52.75" y2="6.375"/>
	<line fill="none" stroke="#000000" stroke-width="4" stroke-miterlimit="10" x1="43" y1="18.75" x2="43" y2="0"/>
</g>
<g>
	<line fill="none" stroke="#000000" stroke-width="4" stroke-miterlimit="10" x1="5.25" y1="28.333" x2="24.75" y2="28.333"/>
	<line fill="none" stroke="#000000" stroke-width="4" stroke-miterlimit="10" x1="15" y1="40.709" x2="15" y2="21.958"/>
</g>
<g>
	<line fill="none" stroke="#000000" stroke-width="4" stroke-miterlimit="10" x1="35.25" y1="28.333" x2="54.75" y2="28.333"/>
	<line fill="none" stroke="#000000" stroke-width="4" stroke-miterlimit="10" x1="45" y1="40.709" x2="45" y2="21.958"/>
</g>
<g>
	<line fill="none" stroke="#000000" stroke-width="4" stroke-miterlimit="10" x1="19.25" y1="19.958" x2="38.75" y2="19.958"/>
	<line fill="none" stroke="#000000" stroke-width="4" stroke-miterlimit="10" x1="29" y1="32.333" x2="29" y2="13.583"/>
</g>
<g>
	<line fill="none" stroke="#000000" stroke-width="4" stroke-miterlimit="10" x1="22.25" y1="40.333" x2="41.75" y2="40.333"/>
	<line fill="none" stroke="#000000" stroke-width="4" stroke-miterlimit="10" x1="32" y1="52.709" x2="32" y2="33.958"/>
</g>
<g>
	<line fill="none" stroke="#000000" stroke-width="4" stroke-miterlimit="10" x1="19.25" y1="62.624" x2="38.75" y2="62.624"/>
	<line fill="none" stroke="#000000" stroke-width="4" stroke-miterlimit="10" x1="29" y1="75" x2="29" y2="56.249"/>
</g>
<g>
	<line fill="none" stroke="#000000" stroke-width="4" stroke-miterlimit="10" x1="0.75" y1="46.708" x2="20.25" y2="46.708"/>
	<line fill="none" stroke="#000000" stroke-width="4" stroke-miterlimit="10" x1="10.5" y1="59.084" x2="10.5" y2="40.333"/>
</g>
<g>
	<line fill="none" stroke="#000000" stroke-width="4" stroke-miterlimit="10" x1="39.5" y1="48.707" x2="59" y2="48.707"/>
	<line fill="none" stroke="#000000" stroke-width="4" stroke-miterlimit="10" x1="49.25" y1="61.083" x2="49.25" y2="42.332"/>
</g>
</svg>
