<?xml version="1.0" encoding="utf-8"?>
<!-- Generator: Adobe Illustrator 16.0.0, SVG Export Plug-In . SVG Version: 6.00 Build 0)  -->
<!DOCTYPE svg PUBLIC "-//W3C//DTD SVG 1.1//EN" "http://www.w3.org/Graphics/SVG/1.1/DTD/svg11.dtd">
<svg version="1.1" id="Camada_2" xmlns="http://www.w3.org/2000/svg" xmlns:xlink="http://www.w3.org/1999/xlink" x="0px" y="0px"
	 width="162px" height="66px" viewBox="0 0 162 66" enable-background="new 0 0 162 66" xml:space="preserve">
<g>
	<ellipse fill="none" stroke="#000000" stroke-width="4" stroke-miterlimit="10" cx="11.833" cy="33" rx="9.167" ry="31.167"/>
	<ellipse fill="none" stroke="#000000" stroke-width="6" stroke-miterlimit="10" cx="13.5" cy="33" rx="5.5" ry="19.5"/>
	<path fill="none" stroke="#000000" stroke-width="4" stroke-miterlimit="10" d="M34.833,1.833C39.896,1.833,44,15.787,44,33
		s-4.104,31.167-9.167,31.167"/>
	<path fill="none" stroke="#000000" stroke-width="4" stroke-miterlimit="10" d="M27.833,1.833C32.896,1.833,37,15.787,37,33
		s-4.104,31.167-9.167,31.167"/>
	<path fill="none" stroke="#000000" stroke-width="4" stroke-miterlimit="10" d="M19.833,1.833C24.896,1.833,29,15.787,29,33
		s-4.104,31.167-9.167,31.167"/>
	<line fill="none" stroke="#000000" stroke-width="4" stroke-miterlimit="10" x1="11.833" y1="1.833" x2="34.833" y2="1.833"/>
	<line fill="none" stroke="#000000" stroke-width="4" stroke-miterlimit="10" x1="34.833" y1="64.167" x2="11.833" y2="64.167"/>
	<line fill="none" stroke="#FFFFFF" stroke-width="3" stroke-miterlimit="10" x1="21.375" y1="6.5" x2="43.629" y2="6.5"/>
	<line fill="none" stroke="#FFFFFF" stroke-width="2" stroke-miterlimit="10" x1="23.224" y1="12.5" x2="45.477" y2="12.5"/>
	<line fill="none" stroke="#FFFFFF" stroke-width="2" stroke-miterlimit="10" x1="24.072" y1="18.5" x2="46.326" y2="18.5"/>
	<line fill="none" stroke="#FFFFFF" stroke-width="2" stroke-miterlimit="10" x1="24.072" y1="25.5" x2="46.326" y2="25.5"/>
	<line fill="none" stroke="#FFFFFF" stroke-width="2" stroke-miterlimit="10" x1="25.496" y1="32.5" x2="47.75" y2="32.5"/>
	<line fill="none" stroke="#FFFFFF" stroke-width="2" stroke-miterlimit="10" x1="24.072" y1="39.5" x2="46.326" y2="39.5"/>
	<line fill="none" stroke="#FFFFFF" stroke-width="2" stroke-miterlimit="10" x1="24.072" y1="45.5" x2="46.326" y2="45.5"/>
	<line fill="none" stroke="#FFFFFF" stroke-width="2" stroke-miterlimit="10" x1="23.224" y1="52.5" x2="45.477" y2="52.5"/>
	<line fill="none" stroke="#FFFFFF" stroke-width="2" stroke-miterlimit="10" x1="21.375" y1="58.5" x2="43.629" y2="58.5"/>
</g>
<g>
	<ellipse fill="none" stroke="#000000" stroke-width="4" stroke-miterlimit="10" cx="123.938" cy="24.416" rx="34.938" ry="9.167"/>
	<ellipse fill="none" stroke="#000000" stroke-width="6" stroke-miterlimit="10" cx="123.938" cy="26.082" rx="21.859" ry="5.5"/>
	<path fill="none" stroke="#000000" stroke-width="4" stroke-miterlimit="10" d="M158.876,47.416c0,5.063-15.642,9.166-34.938,9.166
		S89,52.479,89,47.416"/>
	<path fill="none" stroke="#000000" stroke-width="4" stroke-miterlimit="10" d="M158.876,40.416c0,5.063-15.642,9.166-34.938,9.166
		S89,45.479,89,40.416"/>
	<path fill="none" stroke="#000000" stroke-width="4" stroke-miterlimit="10" d="M158.876,32.416c0,5.063-15.642,9.166-34.938,9.166
		S89,37.479,89,32.416"/>
	<line fill="none" stroke="#000000" stroke-width="4" stroke-miterlimit="10" x1="158.876" y1="24.416" x2="158.876" y2="47.416"/>
	<line fill="none" stroke="#000000" stroke-width="4" stroke-miterlimit="10" x1="89" y1="47.416" x2="89" y2="24.416"/>
	<line fill="none" stroke="#FFFFFF" stroke-width="3" stroke-miterlimit="10" x1="153.646" y1="33.957" x2="153.646" y2="56.211"/>
	<line fill="none" stroke="#FFFFFF" stroke-width="2" stroke-miterlimit="10" x1="146.919" y1="35.806" x2="146.919" y2="58.059"/>
	<line fill="none" stroke="#FFFFFF" stroke-width="2" stroke-miterlimit="10" x1="140.193" y1="36.654" x2="140.193" y2="58.908"/>
	<line fill="none" stroke="#FFFFFF" stroke-width="2" stroke-miterlimit="10" x1="132.347" y1="36.654" x2="132.347" y2="58.908"/>
	<line fill="none" stroke="#FFFFFF" stroke-width="2" stroke-miterlimit="10" x1="124.499" y1="38.078" x2="124.499" y2="60.332"/>
	<line fill="none" stroke="#FFFFFF" stroke-width="2" stroke-miterlimit="10" x1="116.652" y1="36.654" x2="116.652" y2="58.908"/>
	<line fill="none" stroke="#FFFFFF" stroke-width="2" stroke-miterlimit="10" x1="109.926" y1="36.654" x2="109.926" y2="58.908"/>
	<line fill="none" stroke="#FFFFFF" stroke-width="2" stroke-miterlimit="10" x1="102.079" y1="35.806" x2="102.079" y2="58.059"/>
	<line fill="none" stroke="#FFFFFF" stroke-width="2" stroke-miterlimit="10" x1="95.352" y1="33.957" x2="95.352" y2="56.211"/>
</g>
</svg>
