<?xml version="1.0" encoding="utf-8"?>
<!-- Generator: Adobe Illustrator 16.0.0, SVG Export Plug-In . SVG Version: 6.00 Build 0)  -->
<!DOCTYPE svg PUBLIC "-//W3C//DTD SVG 1.1//EN" "http://www.w3.org/Graphics/SVG/1.1/DTD/svg11.dtd">
<svg version="1.1" id="Camada_2" xmlns="http://www.w3.org/2000/svg" xmlns:xlink="http://www.w3.org/1999/xlink" x="0px" y="0px"
	 width="67px" height="61px" viewBox="0 0 67 61" enable-background="new 0 0 67 61" xml:space="preserve">
<polygon points="0.083,16.839 18.773,0 46.808,0 67,19.975 67,42.922 48.728,61 19.106,61 0.083,42.923 "/>
<g>
	<path fill="#FFFFFF" stroke="#FFFFFF" stroke-width="0.75" stroke-miterlimit="10" d="M4.178,33.859l4.304-0.27
		c0.093,0.7,0.283,1.232,0.569,1.597c0.465,0.594,1.132,0.89,1.998,0.89c0.646,0,1.143-0.15,1.492-0.454
		c0.35-0.303,0.525-0.653,0.525-1.053c0-0.38-0.167-0.72-0.5-1.02c-0.333-0.301-1.105-0.581-2.316-0.849
		c-1.984-0.444-3.399-1.038-4.245-1.777c-0.852-0.739-1.278-1.681-1.278-2.826c0-0.752,0.218-1.463,0.654-2.132
		c0.437-0.669,1.092-1.195,1.968-1.578c0.875-0.383,2.075-0.574,3.6-0.574c1.87,0,3.296,0.348,4.278,1.043
		c0.981,0.696,1.566,1.802,1.753,3.32l-4.264,0.25c-0.113-0.659-0.351-1.138-0.714-1.438c-0.363-0.3-0.864-0.45-1.503-0.45
		c-0.525,0-0.922,0.112-1.188,0.334c-0.266,0.223-0.4,0.494-0.4,0.813c0,0.234,0.11,0.443,0.33,0.629
		c0.213,0.193,0.719,0.373,1.518,0.54c1.977,0.426,3.393,0.857,4.249,1.292c0.854,0.436,1.478,0.977,1.867,1.624
		c0.389,0.646,0.584,1.368,0.584,2.165c0,0.94-0.26,1.806-0.78,2.597c-0.519,0.794-1.244,1.394-2.176,1.803
		c-0.932,0.41-2.107,0.614-3.525,0.614c-2.49,0-4.213-0.479-5.172-1.438C4.847,36.556,4.304,35.338,4.178,33.859z"/>
	<path fill="#FFFFFF" stroke="#FFFFFF" stroke-width="0.75" stroke-miterlimit="10" d="M18.706,24.064h13.75v3.615h-4.613v11.024
		h-4.524V27.679h-4.613V24.064z"/>
	<path fill="#FFFFFF" stroke="#FFFFFF" stroke-width="0.75" stroke-miterlimit="10" d="M33.235,31.394
		c0-2.39,0.665-4.25,1.997-5.582c1.331-1.332,3.186-1.997,5.562-1.997c2.437,0,4.314,0.654,5.632,1.962
		c1.318,1.309,1.978,3.141,1.978,5.497c0,1.711-0.288,3.114-0.864,4.21c-0.576,1.095-1.408,1.945-2.496,2.555
		s-2.445,0.914-4.068,0.914c-1.651,0-3.018-0.264-4.099-0.789c-1.083-0.524-1.959-1.359-2.633-2.497
		C33.571,34.528,33.235,33.104,33.235,31.394z M37.76,31.414c0,1.477,0.274,2.539,0.822,3.185c0.55,0.646,1.298,0.968,2.242,0.968
		c0.973,0,1.724-0.316,2.257-0.948c0.532-0.632,0.799-1.766,0.799-3.404c0-1.378-0.279-2.385-0.834-3.021
		c-0.556-0.635-1.311-0.953-2.261-0.953c-0.912,0-1.646,0.323-2.197,0.968C38.035,28.854,37.76,29.922,37.76,31.414z"/>
	<path fill="#FFFFFF" stroke="#FFFFFF" stroke-width="0.75" stroke-miterlimit="10" d="M50.819,24.064h7.519
		c1.638,0,2.864,0.39,3.68,1.168c0.816,0.779,1.224,1.887,1.224,3.325c0,1.478-0.444,2.633-1.333,3.465
		c-0.89,0.832-2.245,1.247-4.069,1.247h-2.477v5.434h-4.543V24.064z M55.362,30.305h1.109c0.871,0,1.483-0.151,1.836-0.455
		c0.354-0.302,0.529-0.69,0.529-1.163c0-0.46-0.153-0.849-0.459-1.168c-0.306-0.32-0.882-0.48-1.728-0.48h-1.288V30.305z"/>
</g>
</svg>
