<?xml version="1.0" encoding="utf-8"?>
<!-- Generator: Adobe Illustrator 16.0.0, SVG Export Plug-In . SVG Version: 6.00 Build 0)  -->
<!DOCTYPE svg PUBLIC "-//W3C//DTD SVG 1.1//EN" "http://www.w3.org/Graphics/SVG/1.1/DTD/svg11.dtd">
<svg version="1.1" id="Camada_2" xmlns="http://www.w3.org/2000/svg" xmlns:xlink="http://www.w3.org/1999/xlink" x="0px" y="0px"
	 width="150px" height="51px" viewBox="0 0 150 51" enable-background="new 0 0 150 51" xml:space="preserve">
<path fill="none" stroke="#000000" stroke-width="2" stroke-miterlimit="10" d="M146.299,50H0.965V1.333
	c0,0,38.626,0.134,52.535,1.5C68.479,4.305,77.854,2.073,86,7c6.643,4.018,8.152,6.826,10.5,11.25
	c2.464,4.643,4.275,7.102,10.5,7.916c7.333,0.959,15.296,4.771,19.5,8.917C132.5,41,146.299,50,146.299,50z"/>
<rect x="12.153" y="14.083" width="9.833" height="5.833"/>
<rect x="17.903" y="18.25" width="9" height="6.584"/>
<rect x="21.986" y="24.25" width="7.861" height="5.75"/>
<rect x="21" y="20.917" fill="#FFFFFF" width="3.083" height="1.25"/>
<rect x="24.833" y="26.166" fill="#FFFFFF" width="3.083" height="1.25"/>
<rect x="94.152" y="28.25" width="10.348" height="5.75"/>
<rect x="97.9" y="30.166" fill="#FFFFFF" width="4.06" height="1.25"/>
<rect x="110.319" y="35.083" width="14.348" height="5.75"/>
<rect x="115.517" y="36.999" fill="#FFFFFF" width="5.629" height="1.25"/>
<path fill="none" stroke="#000000" stroke-width="2" stroke-miterlimit="10" d="M59,50V16.688c0-3.555,6.436-7.813,14.375-7.813
	c7.939,0,14.375,4.257,14.375,7.813V50"/>
</svg>
