<?xml version="1.0" encoding="utf-8"?>
<!-- Generator: Adobe Illustrator 16.0.0, SVG Export Plug-In . SVG Version: 6.00 Build 0)  -->
<!DOCTYPE svg PUBLIC "-//W3C//DTD SVG 1.1//EN" "http://www.w3.org/Graphics/SVG/1.1/DTD/svg11.dtd">
<svg version="1.1" id="Camada_4" xmlns="http://www.w3.org/2000/svg" xmlns:xlink="http://www.w3.org/1999/xlink" x="0px" y="0px"
	 width="87px" height="81px" viewBox="0 0 87 81" enable-background="new 0 0 87 81" xml:space="preserve">
<path d="M38.46,6.688h0.26V7.12c0,0.317-0.145,0.835-0.433,1.558c0.203,0,0.303,0.146,0.303,0.433
	c-0.087,0.173-0.13,0.317-0.13,0.433c0.837,0.289,1.256,0.521,1.256,0.694c-0.088,0-0.131,0.056-0.131,0.171
	c-0.635-0.287-1.067-0.433-1.298-0.433L38.72,10.8v0.433c0.203-0.088,0.346-0.13,0.433-0.13v0.13c0,0.202-0.188,0.303-0.563,0.303
	v0.866l0.303-0.173c0.088,0.173,0.13,0.418,0.13,0.736c1.127-0.521,1.689-1.24,1.689-2.164h0.173l0.26,0.173
	c0-0.49,0.1-0.735,0.303-0.735c0,0.287,0.188,0.433,0.563,0.433v0.302c-0.26,0-0.823,0.521-1.689,1.559v0.13h0.997
	c0.114,0,0.245-0.289,0.39-0.866h0.303l-0.13-0.26c0.029-0.203,0.115-0.303,0.26-0.303h0.173c0,0.202,0.13,0.303,0.39,0.303
	l-0.13,0.692v0.173l0.433-0.303c0-0.694-0.333-1.256-0.996-1.689v-0.171h0.865v-0.131c-0.375-1.152-0.563-1.772-0.563-1.861h0.13
	c0.23,0,0.462,0.521,0.692,1.56h0.174c0.26,0,0.389-0.188,0.389-0.564H44l0.131,0.735v0.433c0.23,0,0.375,0.276,0.432,0.824
	C44.188,12.156,44,12.675,44,12.79l0.303,0.173c0-0.115,0.045-0.26,0.131-0.433c0.664,0.173,0.994,0.36,0.994,0.563
	c0,0.202-0.098,0.303-0.301,0.303l-1.43-0.173v0.303h0.605v0.13l-0.172,0.303c0.145,0,0.346,0.087,0.605,0.26h0.129
	c0-0.287,0.09-0.433,0.262-0.433c0.145,0.49,0.287,0.735,0.434,0.735h0.301c0.49,0,0.908-0.851,1.256-2.553v-0.173h0.303
	c-0.088,0.692-0.23,1.356-0.432,1.991c0.201,0.115,0.344,0.173,0.432,0.173v0.13c-0.865,0.521-1.297,0.851-1.297,0.995l-0.695-0.129
	h-0.432v0.129l0.303,0.433v0.13h-0.174l-0.563-0.563c0,0.491-0.188,0.736-0.563,0.736l0.303,0.694
	c-0.201,0.086-0.346,0.13-0.432,0.13v0.433H44c0.693-0.375,1.213-0.563,1.559-0.563v-0.131l-0.26-0.433v-0.13
	c0.463,0,0.693-0.144,0.693-0.433h0.303l-0.172,0.694c0,0.114,0.287,0.301,0.865,0.563l0.734-0.824v-0.433l-0.172-0.303l0.303-0.129
	l0.26,0.129v-0.995c-0.375,0-0.563-0.287-0.563-0.865v-0.13h0.432v0.433h0.131c0-0.375,0.102-0.563,0.303-0.563l0.129,0.26
	c-0.086,0.981-0.129,1.747-0.129,2.293v0.131l0.432-0.261c0.318,0.433,0.648,0.664,0.996,0.694c0.029-0.173,0.131-0.261,0.303-0.261
	v0.563c0,0.173-0.102,0.261-0.303,0.261h-0.998v1.168h0.129c0-0.579,0.102-0.866,0.305-0.866h0.129v1.428
	c0,0.144,0.188,0.332,0.563,0.563c0-0.145,0.188-0.332,0.563-0.563c0.289,0.086,0.434,0.36,0.434,0.822h-0.131
	c-0.172-0.086-0.316-0.129-0.432-0.129c0,0.23-0.434,0.708-1.299,1.428c0.115,0,0.361,0.333,0.736,0.997
	c0.172-0.088,0.359-0.131,0.563-0.131l-0.131-0.301v-0.433h0.26v0.301c0.115,0,0.404-0.332,0.865-0.995l-0.129-0.303l0.26-0.433
	c-0.26-0.402-0.391-0.735-0.391-0.995l0.26-0.13c0,0.088,0.043,0.13,0.131,0.13v-0.13c-0.172-0.345-0.26-0.721-0.26-1.125V16.21
	h0.129c0.23,0,0.377,0.433,0.434,1.298l0.303-0.13c0,0.087,0.043,0.13,0.131,0.13l-0.131,0.303c0.029,0.173,0.115,0.259,0.26,0.259
	c0.203-0.086,0.346-0.13,0.434-0.13l0.131,0.26c0,0.289-0.188,0.433-0.564,0.433v0.303l-0.129,0.995h0.26
	c-0.664,0.521-0.996,0.995-0.996,1.429c0,0.491,0.203,0.822,0.605,0.996h0.564l0.563-0.563h0.129v0.563l-0.129,0.692h0.129
	c1.068-0.433,2.121-1.659,3.158-3.678h0.131l0.129,0.26v0.173c-0.951,1.183-1.428,1.991-1.428,2.423v0.261
	c0,0.259,0.102,0.548,0.303,0.865l0.26-0.13l0.865,0.13c0.377-0.404,0.852-0.692,1.43-0.865v-0.13l-0.129-1.3l0.26-0.13l0.303,0.13
	c0.172-0.086,0.316-0.13,0.432-0.13v0.13l0.26-0.13h0.174v0.13c-0.203,0.664-0.303,1.054-0.303,1.168h0.129
	c0.203,0,0.303-0.145,0.303-0.433h0.258l-0.131,0.997c0.088,0,0.131,0.042,0.131,0.13l0.303-0.13h0.129v0.26h0.736l0.26,0.173
	c0.201-0.49,0.303-0.824,0.303-0.997h0.129l0.305,0.131c0.375-0.636,0.563-1.069,0.563-1.3c-0.088-0.662-0.131-1.037-0.131-1.125
	c0.115-0.49,0.26-0.736,0.434-0.736c0,0.116,0.043,0.173,0.129,0.173c-0.115,1.702-0.303,2.741-0.563,3.116h0.131l0.563-0.563h0.131
	c0,0.087,0.057,0.229,0.172,0.433c-0.115,0.171-0.172,0.359-0.172,0.563c0.229,0.202,0.432,0.303,0.604,0.303v0.26h-0.432v0.13
	c0.029,0.202,0.115,0.303,0.26,0.303c0.375-0.088,0.563-0.317,0.563-0.692h0.303c0,0.375,0.145,0.563,0.434,0.563v0.822h-0.563
	v0.173l0.129,0.26c-0.318,0.116-0.506,0.303-0.563,0.563h0.131c0-0.086,0.041-0.13,0.129-0.13v0.13
	c-0.115,0.404-0.391,0.606-0.822,0.606v0.39c0.23,0,0.375,0.203,0.432,0.605l-0.303,0.13c-0.201-0.229-0.301-0.417-0.301-0.563
	h-0.131c-0.145,0-0.332,0.188-0.563,0.563v0.13l1.559,0.997c-0.088,0-0.131,0.056-0.131,0.172l-0.303-0.172h-0.563
	c-0.172,0.029-0.26,0.13-0.26,0.302l0.563,0.433c0.287-0.202,0.619-0.302,0.996-0.302v-0.433l-0.174-0.261l0.303-0.172
	c0,0.144,0.145,0.287,0.434,0.433c0.375-0.376,0.563-0.649,0.563-0.824h0.303c0.115,0,0.246,0.13,0.389,0.391l-1.383,0.865
	c0.834,0.462,1.254,0.793,1.254,0.996h-0.26c-0.52-0.375-0.953-0.563-1.299-0.563c0,0.202-0.145,0.303-0.432,0.303l-0.262-0.173
	c-0.287,0-0.432,0.287-0.432,0.865h-0.303v-0.563h-0.26v0.13l0.129,0.735l0.693-0.173v0.303l-0.693,0.13
	c0.463,0.289,0.693,0.534,0.693,0.736h0.172l0.391-0.303c0.203,0.03,0.303,0.131,0.303,0.303c-0.578,0.115-0.865,0.391-0.865,0.823
	h-0.26c0-0.288-0.246-0.664-0.736-1.126l-0.26,0.131h-0.174l-0.994-0.694v0.13c0,0.694,0.289,1.27,0.865,1.732
	c-0.086,0.171-0.129,0.317-0.129,0.433l0.258,0.13l0.434-0.303l0.174,0.303c-0.318,0.171-0.563,0.26-0.736,0.26v0.173h0.996
	l0.434-0.303h0.129v0.13c-0.402,0.663-1.068,0.995-1.992,0.995h-0.258v0.173c0.088,0.173,0.129,0.317,0.129,0.433l0.303-0.173
	l0.131,0.303c-0.203,0.087-0.346,0.13-0.434,0.13c-0.174-0.086-0.316-0.13-0.434-0.13v0.433c0.289,0,0.434,0.086,0.434,0.259v0.173
	l-0.865,0.13v0.13c0.029,0.202,0.129,0.303,0.303,0.303c0.174-0.115,0.361-0.173,0.563-0.173c0,0.116,0.043,0.173,0.129,0.173
	c0.146-0.375,0.289-0.563,0.434-0.563v0.389l-0.434,0.606v0.13l0.736-0.303c0.146,0.115,0.334,0.173,0.563,0.173l0.262-0.606
	c-0.463,0-0.693-0.086-0.693-0.259v-0.13l0.693,0.13c0.344-1.01,0.635-1.529,0.865-1.558h0.129v0.13
	c-0.088,0.173-0.129,0.317-0.129,0.433h0.129c0.145,0,0.289-0.146,0.434-0.433v-2.293h0.303c0,0.317,0.086,0.707,0.26,1.168
	c-0.174,0.287-0.26,0.563-0.26,0.822v0.735l-0.865,0.26v0.173c0.344,0,0.635,0.086,0.865,0.259h0.129
	c0.203,0,0.348-0.375,0.434-1.125h0.129l0.174,0.303l-0.605,2.12h0.303v0.26c-0.174,0-0.98,0.245-2.424,0.735
	c0,0.088,0.434,0.376,1.299,0.867l-0.434,0.563c0.145,0,0.332,0.188,0.563,0.563c-0.172,0.086-0.359,0.13-0.563,0.13
	c0.26,0.664,0.635,0.995,1.125,0.995c0,0.49,0.145,0.735,0.434,0.735v0.13c0,0.089-0.52,0.521-1.559,1.298
	c0.088,0.174,0.131,0.303,0.131,0.392l1.99-0.392h0.129l0.305,0.132c0.088-0.173,0.129-0.319,0.129-0.433h0.303
	c0.203,0.029,0.303,0.13,0.303,0.301c-0.145,0-0.287,0.132-0.432,0.392l0.26,0.433l-0.26,0.173l-0.607-0.303v1.298l0.434-0.303
	c0,0.52,0.477,0.852,1.428,0.995v0.433h-0.129l-0.303-0.13c-0.662,0.403-0.996,0.679-0.996,0.822
	c0.203,0.317,0.303,0.563,0.303,0.736h0.131l0.563-0.433c0,0.146,0.145,0.288,0.432,0.433l-0.129,0.259v0.174h0.129l0.434-0.303
	v0.129c0,0.116-0.043,0.174-0.131,0.174l0.131,0.26c0,0.203-0.188,0.303-0.563,0.303l0.303,0.433v0.13h-0.174l-0.994-0.692h-0.131
	c0,0.173,0.334,0.505,0.996,0.995v0.13h-0.434c-0.201,0-0.531-0.433-0.994-1.298l-1.688-0.692c-0.174,0-0.375-0.102-0.607-0.304
	c0,0.202-0.188,0.304-0.563,0.304v0.259c0.088,0.289,0.662,0.621,1.732,0.996c0.287,0.23,0.432,0.376,0.432,0.433h-0.605v0.173
	h0.303v0.13h-0.434l-0.258-0.13v0.823l0.389-0.261h0.432v0.13c-0.086,0.288-0.359,0.433-0.82,0.433l0.389,0.564v0.129l-0.131,0.304
	h0.131c0.201-0.088,0.346-0.132,0.432-0.132v0.132c-0.662,0.72-0.994,1.428-0.994,2.12c0,0.403,0.145,0.88,0.432,1.428
	c-0.23,0.605-0.463,0.939-0.691,0.997c0-0.088-0.059-0.132-0.174-0.132l0.607,2.122c-0.404,0.173-0.607,0.505-0.607,0.995v1.169
	c0,0.115-0.129,0.259-0.391,0.433c-0.344-0.289-0.678-0.433-0.994-0.433h-0.607c-0.344,0.288-0.865,0.433-1.557,0.433
	c-0.115-0.866-0.533-1.299-1.256-1.299h-0.432c0.145,0.375,0.475,0.563,0.994,0.563v0.304c0,0.173-0.1,0.259-0.303,0.259
	c-0.635-0.288-1.01-0.433-1.125-0.433v-0.13l0.131-0.303l-0.26-0.13c-0.23,0.202-0.521,0.303-0.865,0.303v0.13l0.129,0.304
	l-0.262,0.129l-0.994-0.735h-0.303c0,0.115-0.043,0.26-0.131,0.433c0.58,0.087,0.955,0.289,1.125,0.606l-0.301,0.13h-0.131
	c-0.203,0-0.391-0.044-0.563-0.13c-0.174,0.086-0.318,0.13-0.434,0.13c0-0.202-0.086-0.304-0.26-0.304h-0.172v0.174
	c0.115,0.173,0.172,0.303,0.172,0.389l-0.303,0.174h-1.125c-0.49-0.635-1.961-1.255-4.414-1.861c0,0.174-0.244,0.317-0.734,0.433
	c-0.375-0.115-0.563-0.303-0.563-0.563h-0.303l-0.693,0.13v-0.303c-0.145,0.115-0.432,0.173-0.865,0.173l0.174,0.26v0.13
	c-0.695,0-1.832,0.765-3.42,2.294c0.664,9.49,1.184,14.237,1.559,14.237c0,1.414,4.025,2.264,12.074,2.554
	c2.48,0.317,3.721,0.894,3.721,1.73L60.355,81H19.81v-0.302c0-0.578,1.758-1.283,5.279-2.121c9.374-0.924,14.063-1.816,14.063-2.684
	c0.777-0.546,1.168-1.125,1.168-1.73v-4.282c0-1.76-0.101-4.789-0.303-9.088l-0.303,0.13h-0.13V60.49l0.303-0.433v-0.39
	c-0.03-0.146-0.275-0.346-0.735-0.605c-0.173,0.029-0.261,0.13-0.261,0.303v0.433l0.261,0.433v0.434
	c-0.318,0-0.548,0.043-0.693,0.129c-0.114-0.173-0.172-0.36-0.172-0.563h-0.132c0,0.462-0.229,0.692-0.692,0.692l-0.173-0.259V60.49
	c0.114-0.403,0.173-0.735,0.173-0.995c-0.578,0.202-0.865,0.592-0.865,1.169v0.259h0.433v0.304h-0.303
	c-0.462-0.231-0.692-0.707-0.692-1.429v-0.13c0-0.203,0.145-0.303,0.433-0.303c0-0.346-0.39-1.011-1.168-1.992
	c-0.173,0-0.505,0.102-0.996,0.304l-0.823-0.172c0.088,0.202,0.131,0.345,0.131,0.433c0,0.375-0.232,0.563-0.693,0.563l0.129,0.303
	v0.563c-0.259,0.577-0.59,0.865-0.995,0.865v-0.303c0-0.202,0.231-0.346,0.694-0.433v-0.26h-0.261l-1.168,0.995
	c0-0.403-0.042-0.923-0.13-1.559c0.088-0.172,0.13-0.375,0.13-0.604h-0.433c0,0.202-0.275,0.635-0.822,1.298v1.558l0.129,0.736
	h-0.129c-0.26-0.375-0.505-0.563-0.736-0.563v-0.174c0.201-0.288,0.39-0.951,0.563-1.99l-1.385,1.731
	c0-0.202-0.102-0.304-0.303-0.304v-0.13l0.995-1.168v-0.26h-0.13c-0.58,0-1.154,0.765-1.731,2.294h-0.259
	c0-0.664,0.563-1.616,1.688-2.856l-0.433-0.303h-0.13c-1.386,1.472-2.149,2.61-2.293,3.417l-0.261-0.13
	c-0.173,0.087-0.362,0.13-0.563,0.13v-0.13c0.374-0.548,0.563-0.88,0.563-0.995l-0.303-0.563l-0.26,0.13
	c-0.202,0-0.303-0.102-0.303-0.303c0.029-0.174,0.13-0.26,0.303-0.26c0,0.086,0.043,0.13,0.13,0.13v-0.433
	c0-0.174-0.101-0.26-0.303-0.26c-0.375,0.172-0.563,0.402-0.563,0.692c0.088,0.173,0.13,0.317,0.13,0.433l-1.991,2.12v-0.26
	c1.066-1.153,1.601-1.918,1.601-2.293h-0.433c-0.579,0-1.154,0.519-1.731,1.558c-0.146,0.548-0.433,0.938-0.866,1.168h-0.259v-0.171
	c0.662-0.924,1.037-1.587,1.125-1.992h-0.13c-0.173,0.088-0.319,0.13-0.433,0.13v-0.13c0.952-0.722,1.428-1.428,1.428-2.12
	l-0.303-0.132h-0.26l-1.298,0.694h-0.13l-0.303-0.13c0.201-0.289,0.303-0.622,0.303-0.997h0.995V57.07h-0.303V56.68
	c0.402,0,0.605-0.202,0.605-0.605l-0.433,0.303c-0.203,0-0.303-0.1-0.303-0.303c-0.665,0.23-0.995,0.809-0.995,1.732v0.692h-0.303
	c-0.375-0.895-0.563-1.414-0.563-1.56c-0.492,0.751-0.766,1.126-0.824,1.126h-0.303v-0.13c0-0.115,0.287-0.49,0.865-1.126
	c-0.115,0-0.173-0.042-0.173-0.13l-0.26,0.13h-0.303v-0.865c0-0.202,0.058-0.39,0.173-0.563c-0.115-0.174-0.173-0.361-0.173-0.563
	l0.173-0.304c-0.202,0-0.303-0.086-0.303-0.259v-0.304h0.13c0.202,0.029,0.391,0.26,0.564,0.692
	c0.171-0.086,0.604-0.173,1.298-0.259c0-0.289-0.476-0.477-1.43-0.563v-0.303l0.865-0.13v-0.303l0.131-0.995
	c-0.753-0.75-1.126-1.413-1.126-1.99h0.261c0.26,0.923,0.792,1.73,1.601,2.423c0.952-0.346,1.428-0.765,1.428-1.255l0.692,0.13
	h0.563c0.664,0,0.996-0.433,0.996-1.298c-0.319-0.173-0.604-0.262-0.866-0.262h-0.13c0,0.375-0.086,0.563-0.259,0.563l-0.173-0.301
	c0.201,0,0.303-0.088,0.303-0.262c0-0.201-0.146-0.303-0.433-0.303c-0.173,0.088-0.319,0.132-0.433,0.132l-0.13-0.262l0.26-0.433
	l-0.692-0.865l0.303-0.563h-0.605c-0.087,0.463-0.418,1.125-0.996,1.99v-0.995c0.374-0.375,0.563-0.75,0.563-1.125
	c-1.154,0.692-1.904,1.399-2.25,2.122h-0.13c-0.115-0.174-0.173-0.319-0.173-0.433c0-0.088,0.391-0.507,1.168-1.257v-0.173h-0.172
	c-0.289,0.203-0.564,0.303-0.824,0.303v-0.303c0.606-0.172,1.023-0.26,1.256-0.26h0.303l0.129-0.865h0.303
	c0,0.375,0.042,0.563,0.13,0.563c1.615-0.692,2.423-1.544,2.423-2.553h-0.303c-0.893,0-1.601,0.563-2.12,1.688H20.5l0.173-0.996
	H20.37v-0.26c0.866,0,1.34-0.52,1.428-1.559h-0.13c-0.405,0-0.795,0.275-1.168,0.824h-0.13c0-0.752,0.229-1.127,0.692-1.127v-0.13
	l-0.995-0.173c0,0.288-0.463,0.823-1.386,1.601h-0.303V44.26c0.261-0.521,0.694-0.939,1.298-1.257v-0.304l-0.433,0.304
	c0-0.287-0.146-0.433-0.433-0.433v-0.303c0.866-0.547,1.43-0.822,1.689-0.822v-0.174c-0.288,0-0.433-0.086-0.433-0.26
	c0.201,0,0.303-0.101,0.303-0.302v-0.13l-0.865,0.563h-0.433v-0.303h0.301v-0.13h-0.301c0,0.146-0.131,0.289-0.391,0.433h-0.173
	v-0.131l0.173-0.302c-0.115,0-0.173-0.043-0.173-0.13l0.303-0.13h1.126v-0.303c-0.521,0-0.997-0.433-1.429-1.298l0.303-0.13
	c0.461,0.75,0.936,1.125,1.43,1.125c0.806-0.663,1.428-0.995,1.86-0.995v-0.13c-0.953-0.463-1.631-0.692-2.034-0.692v-0.303h0.606
	v-0.13c-0.405-0.664-0.736-0.995-0.997-0.995v-0.303h0.693l-0.433-0.563h0.302l0.694,0.563h0.129
	c-0.259-0.491-0.389-0.967-0.389-1.43v-0.26h0.26v0.433c0,0.259,0.188,0.721,0.563,1.386c0.49-0.173,0.822-0.261,0.995-0.261
	c0,0.088,0.058,0.131,0.173,0.131l-0.173,0.301v0.131c0,0.202,0.101,0.678,0.303,1.428c-0.086,0.173-0.13,0.361-0.13,0.563
	l0.563,0.433v-0.13l-0.303-0.433v-0.129c0-0.146,0.145-0.289,0.433-0.433h0.433v0.26h-0.433l0.13,0.736
	c0.491-0.289,1.152-0.476,1.992-0.563l0.171-0.303l-0.865-0.13l0.13-0.605c-0.087-0.173-0.13-0.303-0.13-0.39l0.303-0.173
	c0.146,0.375,0.275,0.563,0.391,0.563v-0.26l-0.131-0.995l0.433,0.259c0.202,0,0.303-0.088,0.303-0.259v-0.867h-0.735l1.559-0.865
	c0.201-0.086,0.345-0.13,0.433-0.13l-0.433-0.563c0.114,0,0.173-0.043,0.173-0.13c-0.58,0-0.968-0.101-1.168-0.303
	c-0.088,0.173-0.131,0.36-0.131,0.563h-0.13c-0.202,0-0.303-0.086-0.303-0.26l0.303-0.433h-0.433l-0.303,0.13v-0.26
	c0.287,0,0.433-0.101,0.433-0.303v-0.13l-0.692,0.13c0-0.116-0.059-0.26-0.173-0.433h0.433l-1.816-1.689v-0.171h0.129
	c1.499,0.98,2.25,1.558,2.25,1.731c0.144,0.375,0.389,0.663,0.735,0.865h0.13c0-0.289,0.1-0.635,0.303-1.039l0.26,0.173h0.303
	v-0.563c0.374,0.087,0.707,0.13,0.995,0.13v0.13l-0.13,0.303c0.229,0,0.46,0.086,0.692,0.259c0-0.287,0.144-0.433,0.433-0.433v-0.13
	c-0.548-0.058-0.981-0.202-1.298-0.433h-0.563c-0.088,0-0.129,0.058-0.129,0.173c-0.173-0.115-0.418-0.173-0.736-0.173v-0.13
	c0.26-0.375,0.835-0.563,1.731-0.563c0-0.231-0.476-0.851-1.428-1.862h0.433v-0.259l-0.866-0.303v0.303
	c0.286,0,0.433,0.088,0.433,0.259h-0.131c-0.866-0.114-1.298-0.301-1.298-0.563c0.173-0.086,0.606-0.188,1.298-0.303v-0.13h-0.563
	v-0.26h0.694l0.302,0.13v-0.433c0-0.202-0.146-0.303-0.433-0.303v-0.26h0.131c0.374,0.086,0.563,0.275,0.563,0.563h0.173
	c0.229-0.202,0.416-0.303,0.563-0.303v-0.13c0-0.202-0.333-0.303-0.995-0.303c0.229-0.461,0.415-0.692,0.563-0.692
	c0.286,0.202,0.519,0.303,0.692,0.303l0.173-0.303c-0.059-0.202-0.303-0.39-0.735-0.563c-0.606,0.173-0.981,0.26-1.125,0.26
	c-0.147,0-0.58-0.086-1.299-0.26v-0.433h0.997l0.303,0.13c0-0.144,0.188-0.332,0.563-0.563h0.692v-0.13
	c0-0.23-0.708-0.995-2.122-2.293h-0.301c0,0.491-0.088,0.736-0.261,0.736h-0.13l0.13-0.736l-0.865,0.433l-0.13-0.261
	c0.664-0.433,0.995-0.866,0.995-1.298c0.317,0.204,0.547,0.303,0.694,0.303c0.201-0.116,0.345-0.173,0.433-0.173V20.8H25.91v-0.303
	c1.151,0,1.731,0.245,1.731,0.736v0.129c0.144-0.086,0.433-0.129,0.865-0.129c-0.463-0.866-1.184-1.298-2.164-1.298H25.91
	l-0.694,0.13c0.146-0.375,0.287-0.563,0.433-0.563c1.298,0,2.191,0.288,2.683,0.865l0.173-0.303v-0.26
	c-0.636-0.635-1.168-1.442-1.601-2.423c-0.346,0-0.721-0.391-1.126-1.168v-0.129c0.114,0,0.261,0.042,0.434,0.129h0.692
	c0,0.662,0.201,0.996,0.606,0.996c0.171-0.088,0.303-0.13,0.39-0.13l0.303,0.433c-0.375,0.086-0.563,0.274-0.563,0.563
	c0.46,0.52,0.692,0.851,0.692,0.995l0.303,0.13h0.13v-0.13l-0.26-0.563c0-0.375,0.231-0.563,0.692-0.563v-0.13
	c0-0.203-0.189-0.303-0.563-0.303v-0.13l0.13-0.303c-0.751-0.606-1.125-1.024-1.125-1.256h0.13c1.01,1.126,2.336,1.689,3.981,1.689
	h0.734v0.303h-1.298v0.13c0.23,0.462,0.606,0.692,1.126,0.692v-0.13c-0.088-0.173-0.13-0.317-0.13-0.433
	c0.086,0,0.13-0.043,0.13-0.13c0.49,0,0.88,0.563,1.168,1.688l0.259,0.303c0.547,0,1.169-0.145,1.861-0.433v-0.13
	c-0.146,0-0.375-0.146-0.692-0.433v-0.303c0.2,0,0.389-0.043,0.563-0.13l0.259,0.13c1.239-0.346,1.861-0.764,1.861-1.255
	c-1.877-0.521-2.871-0.909-2.984-1.168v-0.131h0.13c0.2,0.088,0.346,0.131,0.433,0.131v-0.131c0-0.462-0.289-0.692-0.866-0.692
	c0.087-0.866,0.231-1.298,0.433-1.298c0.577,0.866,0.966,1.298,1.168,1.298c0-0.116,0.044-0.173,0.13-0.173
	c0.173,0.231,0.26,0.521,0.26,0.867c0.173-0.088,0.374-0.131,0.605-0.131v-1.991c-0.461-0.664-1.413-0.995-2.855-0.995h-0.303
	v-0.303c0.027-0.173,0.13-0.26,0.303-0.26c0.374,0.173,0.707,0.26,0.995,0.26l0.13-0.26V12.23l-0.995-1.558
	c-0.463,0-0.692-0.088-0.692-0.26c0.171-0.115,0.317-0.173,0.433-0.173l0.563,0.173l0.26-0.173l0.735,0.303l0.13-0.303
	c-1.414-1.414-2.12-2.367-2.12-2.857C34.868,9,35.717,9.808,36.036,9.808l0.26-0.433V9.245l-0.563-0.563l0.303-0.131
	c0,0.088,0.043,0.131,0.13,0.131V8.551c-0.375-0.145-0.563-0.287-0.563-0.433l0.303-0.129c0.547,0.146,0.822,0.521,0.822,1.126
	l0.303-0.131c-0.201-0.491-0.303-0.822-0.303-0.995l0.303-0.172c0.088,0.202,0.13,0.345,0.13,0.433h0.132
	c0-0.606,0.144-0.939,0.433-0.997h0.303c0,0.115,0.042,0.261,0.13,0.433c-0.173,0.319-0.262,0.548-0.262,0.694
	c0.204,0,0.392-0.418,0.564-1.256V6.688L38.46,6.688z M19.68,42.43l0.563-0.605h0.129v0.303l-0.129,0.302
	c0.173,0,0.259,0.044,0.259,0.132c0.261-0.059,0.505-0.303,0.736-0.736c0-0.173-0.146-0.261-0.433-0.261
	C20.113,41.563,19.738,41.854,19.68,42.43z M20.502,36.848c0,0.144,0.189,0.332,0.564,0.563h0.303v-0.26
	c0-0.203-0.103-0.303-0.303-0.303H20.502z M22.363,39.012c0,0.146-0.375,0.333-1.126,0.563c0,0.146-0.146,0.375-0.433,0.694
	c0.953,0.317,1.803,0.75,2.554,1.298c1.039,0,1.558-0.188,1.558-0.563c0-0.261-0.332-0.506-0.996-0.736v-0.131h-0.692
	c0.087-0.171,0.13-0.317,0.13-0.433L22.363,39.012z M21.368,37.583l-0.131,0.26c0,0.146,0.188,0.289,0.564,0.433v-0.129
	C21.655,37.771,21.512,37.583,21.368,37.583z M21.238,42.689l1.126,0.303c0.374-0.145,0.563-0.288,0.563-0.432V42.43
	c-0.665-0.288-1.082-0.432-1.256-0.432H21.5C21.325,41.998,21.238,42.229,21.238,42.689z M21.671,36.588v0.26
	c0.029,0.202,0.114,0.303,0.261,0.303h0.303c0-0.202,0.042-0.391,0.13-0.563H21.671z M22.104,44.421
	c0.72-0.491,1.184-0.735,1.386-0.735v-0.131h-0.822C22.291,43.642,22.104,43.93,22.104,44.421z M22.104,54.243h0.391V53.94h-0.13
	C22.19,53.97,22.104,54.07,22.104,54.243z M22.233,56.364v0.129c0,0.146,0.144,0.289,0.433,0.434h0.26
	c-0.173-0.231-0.26-0.419-0.26-0.563H22.233z M22.666,53.377v0.131l0.692,0.13c0.201,0,0.303-0.088,0.303-0.261H22.666z
	 M23.358,57.662c0,0.058-0.232,0.62-0.692,1.688c0.201-0.203,0.475-0.303,0.822-0.303l0.173-1.386H23.358z M22.796,48.964
	l0.303,0.13v-0.433h0.129c0.087,0,0.13,0.058,0.13,0.173c0.317-0.203,0.563-0.303,0.736-0.303l0.13,0.303v0.26h-0.433
	c0,0.174,0.231,0.317,0.692,0.433v-0.303c0-0.086-0.043-0.13-0.129-0.13c0.086-0.173,0.129-0.317,0.129-0.433l0.433,0.303h0.173
	c-0.289-0.49-0.433-0.865-0.433-1.126h0.26c0.058,0.376,0.2,0.563,0.433,0.563c0-0.146,0.146-0.288,0.433-0.433h0.303
	c0,0.172,0.043,0.26,0.13,0.26c0.231,0,0.664-0.375,1.298-1.125c-0.115-0.173-0.172-0.318-0.172-0.433H27.21l-0.433,0.302h-0.13
	v-0.13c0.374-0.402,0.563-0.794,0.563-1.169v-0.13c-0.146,0-0.332,0.231-0.563,0.692l-0.303-0.13c-0.146,0-0.332,0.188-0.563,0.563
	v0.174l0.303-0.174l0.26,0.434v0.131c0,0.202-0.086,0.302-0.26,0.302c-0.346,0-0.59-0.62-0.735-1.861
	c-0.232,0-0.418-0.375-0.563-1.125h0.433v-0.735h-0.303c-0.345,0-0.721,0.865-1.125,2.597
	C23.126,46.786,22.796,47.638,22.796,48.964z M23.229,54.806h0.433c0.173,0,0.259-0.101,0.259-0.303v-0.13h-0.259
	C23.516,54.373,23.373,54.518,23.229,54.806z M23.488,42.561v0.26l0.736,0.172h0.13c0-0.145-0.146-0.288-0.433-0.432H23.488z
	 M23.662,39.142c0.027,0.203,0.114,0.303,0.259,0.303v-0.303H23.662z M23.921,40.701h0.173c0.173,0.029,0.26,0.13,0.26,0.301
	l-0.26,0.131l-0.173-0.302V40.701z M23.921,56.667h0.173c0.23-0.202,0.417-0.303,0.563-0.303c0.317,0.201,0.59,0.303,0.822,0.303
	h0.173v-0.174c-0.115-0.286-0.404-0.433-0.865-0.433C24.412,56.061,24.122,56.263,23.921,56.667z M24.094,57.662l-0.173,1.386
	l0.866-0.995l-0.563-0.391H24.094z M24.094,47.838h0.26l0.129,0.693c-0.115,0-0.245-0.146-0.389-0.433V47.838z M24.354,39.012
	l0.129,0.26v0.173h-0.259v0.13c0.027,0.173,0.114,0.261,0.259,0.261h0.173c0-0.376,0.144-0.564,0.433-0.564v-0.433h-0.433
	L24.354,39.012z M25.089,51.085v0.173c0.086,0.145,0.13,0.332,0.13,0.563c-0.086,0-0.13,0.043-0.13,0.13l-0.303-0.13h-0.563v0.26
	c0.027,0.203,0.114,0.303,0.259,0.303c0.201-0.087,0.346-0.13,0.433-0.13l0.173,0.26c0.173-0.087,0.303-0.13,0.39-0.13l-0.13-0.303
	c0.2-0.087,0.346-0.13,0.433-0.13v-0.303C25.753,51.474,25.522,51.285,25.089,51.085z M25.089,20.361l0.13,0.26v0.303l-0.303-0.13
	c-0.173,0.087-0.319,0.13-0.433,0.13l-0.129-0.303C24.671,20.449,24.917,20.361,25.089,20.361z M24.483,42.992h0.606
	c0-0.203-0.103-0.303-0.303-0.303C24.584,42.719,24.483,42.82,24.483,42.992z M25.349,49.83c-0.173-0.116-0.319-0.174-0.433-0.174
	l-0.13,0.304v0.129c0,0.146,0.188,0.289,0.563,0.434h0.303v-0.13c-0.375,0-0.563-0.102-0.563-0.304l0.26-0.129l0.735,0.129
	c-0.115-0.144-0.173-0.375-0.173-0.691L25.349,49.83z M24.917,35.592h0.303v0.433c-0.202,0-0.303-0.1-0.303-0.301V35.592z
	 M25.089,40.268v0.301h0.39c0.23-0.202,0.433-0.301,0.605-0.301v-0.261C25.593,40.18,25.263,40.268,25.089,40.268z M25.219,41.998
	v0.129c0.577-0.088,0.865-0.23,0.865-0.433h-0.605C25.306,41.724,25.219,41.824,25.219,41.998z M25.349,38.838v0.173l0.995-0.173
	v-0.259h-0.692C25.45,38.606,25.349,38.694,25.349,38.838z M26.907,41.437v0.995h-0.261v-0.605c-0.865,0.375-1.298,0.62-1.298,0.735
	v0.13h3.548v-0.26l-0.26,0.13c-0.147,0-0.391-0.288-0.735-0.866l-0.261,0.131l-0.563-0.391L26.907,41.437L26.907,41.437z
	 M25.479,45.242v0.304l0.173,0.303c0.837-0.26,1.256-0.505,1.256-0.735v-0.13C26.214,45.156,25.738,45.242,25.479,45.242z
	 M25.652,43.814v1.169c0.491,0,0.765-0.145,0.822-0.433c-0.26,0-0.39-0.1-0.39-0.303c0.201,0,0.332-0.23,0.39-0.693h-0.563
	C25.738,43.584,25.652,43.671,25.652,43.814z M25.652,50.652v0.173l0.692,0.13l0.13-0.303H25.652z M25.652,57.922l0.13,0.303
	l-0.13,0.261h0.563v-0.693h-0.303L25.652,57.922z M25.912,40.701v0.301c0.433-0.375,0.765-0.563,0.997-0.563v-0.171h-0.434
	C26.099,40.411,25.912,40.555,25.912,40.701z M27.902,21.616c0,0.231,0.1,0.766,0.303,1.601h-0.303c0-0.75-0.375-1.225-1.126-1.428
	c-0.171,0.088-0.318,0.13-0.433,0.13v0.129c1.039,0.923,1.559,1.502,1.559,1.732h0.173v-0.303h0.26
	c0.49,1.816,0.965,2.726,1.428,2.726h0.13c1.356-0.521,2.077-0.909,2.164-1.168c-0.173-0.086-0.362-0.13-0.563-0.13v-0.303h0.563
	v-0.389h-0.303l-0.433,0.259c-0.202,0-0.39-0.043-0.563-0.13c-0.173,0.087-0.362,0.13-0.563,0.13v-0.259
	c0.491,0,0.779-0.146,0.866-0.433v-0.173c-0.492,0-0.736-0.088-0.736-0.26c0.201-0.088,0.346-0.131,0.433-0.131l0.736,0.131v-0.131
	c0-0.202-0.103-0.301-0.303-0.301h-0.13c-1.154,0.461-1.774,0.692-1.861,0.692h-0.13l0.822-0.692v-0.131
	c-0.751,0-1.125-0.287-1.125-0.865l-0.26,0.129c-0.203,0-0.303-0.144-0.303-0.433H27.902z M26.344,35.592
	c0,0.694,0.146,1.069,0.433,1.126c0-0.289,0.188-0.521,0.564-0.694c-0.088-0.202-0.131-0.345-0.131-0.433H26.344z M26.474,56.364
	v0.433c0.261,0,0.547,0.144,0.867,0.433c0.027-0.202,0.13-0.303,0.302-0.303h0.694v-0.26C27.527,56.667,26.907,56.565,26.474,56.364
	z M26.647,35.162h0.261c0.145,0,0.286-0.146,0.433-0.433v-0.131C26.878,34.829,26.647,35.016,26.647,35.162z M26.777,48.661
	l0.303,0.173c0.173-0.403,0.261-0.693,0.261-0.866C27.138,47.998,26.95,48.229,26.777,48.661z M26.777,51.258
	c0.088,0.173,0.131,0.303,0.131,0.391h0.302v-0.391H26.777z M26.777,55.801l0.303,0.13h0.433v-0.563H27.21
	C27.064,55.368,26.921,55.513,26.777,55.801z M27.08,32.435v0.303h0.13c0.146,0,0.332-0.188,0.564-0.563h-0.131
	C27.41,32.348,27.224,32.435,27.08,32.435z M27.21,40.701v0.13l0.303-0.13c0.146,0.086,0.332,0.13,0.563,0.13l-0.172-0.261v-0.13
	h0.303v-0.171h-0.564C27.497,40.268,27.354,40.411,27.21,40.701z M27.513,48.531c-0.202,0.317-0.303,0.606-0.303,0.866v0.563h0.131
	l1.558-0.866v-0.26h-0.13l-0.433,0.26h-0.13l0.13-0.26v-0.303l-0.26,0.13C27.902,48.576,27.713,48.531,27.513,48.531z
	 M27.513,41.437l0.824,0.13v-0.434h-0.563C27.599,41.16,27.513,41.262,27.513,41.437z M27.513,54.243l0.694,0.13h0.303
	c0.374-0.146,0.563-0.476,0.563-0.995h-0.735C28.219,53.377,27.945,53.666,27.513,54.243z M27.902,36.416
	c0,0.115-0.043,0.259-0.129,0.433h0.563v-0.13c0-0.203-0.088-0.303-0.26-0.303H27.902z M27.772,45.416
	c0.144,0,0.33-0.188,0.563-0.563v-0.303C27.96,44.752,27.772,45.041,27.772,45.416z M27.772,50.263c0,0.115,0.144,0.245,0.433,0.39
	c0.718-0.229,1.151-0.505,1.298-0.822H29.33l-0.692,0.433h-0.13v-0.174c0.086-0.173,0.13-0.316,0.13-0.433
	C28.059,49.858,27.772,50.061,27.772,50.263z M27.902,27.761v0.13l0.433-0.259c0.2,0.03,0.303,0.115,0.303,0.259
	c-0.088,0.173-0.13,0.319-0.13,0.433c0.345,0.203,0.866,0.303,1.558,0.303h0.129v-0.172c-0.375-0.404-0.563-0.779-0.563-1.126h0.13
	c0.114,0,0.447,0.375,0.995,1.126h-0.259v0.172c0.027,0.173,0.114,0.261,0.259,0.261h0.13l0.866-0.997v-0.563h-0.13
	c-0.202,0.204-0.535,0.303-0.995,0.303c0-0.403-0.146-0.692-0.433-0.866C29.33,26.766,28.565,27.099,27.902,27.761z M28.075,28.885
	l-0.172,0.303c0.201,0.03,0.303,0.115,0.303,0.261l0.301-0.131h0.131c0.086,0.376,0.13,0.708,0.13,0.997
	c0.229-0.203,0.417-0.303,0.563-0.303C29.33,29.348,28.912,28.973,28.075,28.885z M28.205,51.82v0.261
	c0.144,0.375,0.286,0.563,0.433,0.563h0.26c0.345-0.173,0.588-0.448,0.735-0.823l-0.995,0.13h-0.131L28.205,51.82z M28.768,44.248
	l0.13,0.735c-0.26,0-0.39,0.188-0.39,0.563h0.13c0.433-0.375,0.763-0.563,0.995-0.563l-0.13-0.304
	c0.173-0.287,0.26-0.519,0.26-0.691H29.33C29.098,44.161,28.912,44.248,28.768,44.248z M28.638,21.486v0.131
	c0.865,0.402,1.385,0.604,1.558,0.604h0.13V22.05l-0.13-0.261l-0.303,0.131h-0.26c0-0.376-0.102-0.564-0.303-0.564L28.638,21.486z
	 M28.638,51.258v0.26H29.2c0.201,0,0.303-0.087,0.303-0.26c-0.203-0.115-0.346-0.173-0.433-0.173
	C28.869,51.2,28.724,51.258,28.638,51.258z M29.633,18.068h0.13c0.201-0.088,0.346-0.13,0.433-0.13v0.26
	c-0.721,0.202-1.098,0.303-1.125,0.303c0,0.202,0.188,0.303,0.563,0.303v0.26c-0.58,0-0.865,0.476-0.865,1.428l1.125,0.433
	l-0.13-0.303l0.303-0.13c0,0.115,0.23,0.361,0.692,0.736c-0.086-0.287-0.129-0.866-0.129-1.731c0.2,0,0.389-0.043,0.563-0.13
	l0.433,0.692c0.173-0.086,0.317-0.13,0.433-0.13c0-0.577-0.721-0.865-2.164-0.865v-0.26l0.736-0.173l0.563,0.173V18.63
	c-0.087-0.317-0.375-0.591-0.866-0.823h-0.433C29.72,17.837,29.633,17.924,29.633,18.068z M28.768,30.747
	c0,0.287,0.188,0.433,0.563,0.433h0.303v-0.173c-0.232,0-0.476-0.086-0.735-0.26H28.768z M28.768,33.04h0.303
	c0.172,0,0.26-0.101,0.26-0.303v-0.13H29.2C29.055,32.607,28.912,32.751,28.768,33.04z M29.07,47.536
	c0,0.345-0.103,0.635-0.303,0.865h0.303c0.172-0.115,0.317-0.173,0.433-0.173v-0.39c0-0.203-0.102-0.303-0.303-0.303H29.07
	L29.07,47.536z M29.07,49.526h0.692c0.201,0,0.303-0.101,0.303-0.303H29.33C29.157,49.281,29.07,49.383,29.07,49.526z M29.2,29.016
	c0.374,0.692,0.563,1.125,0.563,1.298h0.563c0.201,0,0.303-0.101,0.303-0.303v-0.13c-0.579,0-0.866-0.289-0.866-0.866H29.2z
	 M29.763,41.563l0.303,0.563l-0.303,0.131l-0.26-0.131v0.302c0.173,0,0.503,0.088,0.996,0.261c0.633,0,1.298-0.333,1.99-0.995
	l-0.303-0.131H29.763z M31.753,47.408c0,0.49-0.563,0.822-1.688,0.995c-0.202,0.028-0.303,0.115-0.303,0.26h0.13
	c0-0.087,0.058-0.13,0.173-0.13v0.13l-0.173,0.303c0.201,0,0.534,0.145,0.995,0.433c0-0.288,0.101-0.433,0.303-0.433l0.692,0.13
	h0.173v-0.13c-0.287,0-0.433-0.102-0.433-0.303c0.146,0,0.374-0.188,0.692-0.563c-0.172-0.317-0.26-0.549-0.26-0.692H31.753z
	 M29.763,47.536v0.563c0.317-0.173,0.606-0.261,0.866-0.261c0-0.202-0.103-0.302-0.303-0.302H29.763z M29.893,46.239v0.604h0.433
	v-0.172c-0.086-0.173-0.13-0.317-0.13-0.433H29.893L29.893,46.239z M30.066,36.718v0.13c0,0.287,0.519,0.476,1.558,0.563
	C31.624,37.122,31.104,36.892,30.066,36.718z M30.499,26.593c0.23,0.49,0.417,0.735,0.563,0.735c0.173,0,0.26-0.1,0.26-0.303v-0.563
	C31.175,26.549,30.902,26.593,30.499,26.593z M30.499,38.709l0.13,0.303v0.13l-0.13,0.303c0.173,0,0.259,0.086,0.259,0.26h0.303
	v-0.26h-0.303c0.029-0.202,0.13-0.303,0.303-0.303c0.173,0.088,0.317,0.13,0.433,0.13l0.13-0.26c0-0.202-0.101-0.303-0.303-0.303
	H30.499z M32.316,50.393c0,0.375-0.086,0.563-0.26,0.563h-0.173v-0.13l0.173-0.303h-0.563v0.13l0.39,0.605v0.13
	c-0.231,0.463-0.417,0.693-0.563,0.693c-0.116-0.548-0.26-0.823-0.433-0.823h-0.13c0,0.146-0.086,0.333-0.259,0.563
	c0.173,0,0.259,0.23,0.259,0.693h0.563c0.692,0.202,1.082,0.302,1.168,0.302h0.13c0-0.375,0.146-0.707,0.433-0.995v-0.172h-0.735
	c-0.172,0-0.26-0.088-0.26-0.261c0.173,0,0.26-0.1,0.26-0.303l0.735,0.173h0.261c0.201,0,0.301-0.1,0.301-0.303
	c-0.404-0.375-0.777-0.563-1.125-0.563H32.316L32.316,50.393z M30.758,41.002c0.029,0.174,0.13,0.262,0.303,0.262h1.558
	c0-0.174-0.101-0.262-0.303-0.262H30.758z M30.758,43.123l0.303,0.129h0.26c0.2,0,0.303-0.086,0.303-0.26V42.82h-0.563
	C30.859,42.877,30.758,42.977,30.758,43.123z M30.758,44.117v0.131h1.298c0-0.174-0.101-0.26-0.303-0.26h-0.26L30.758,44.117z
	 M31.061,29.449v0.171c0,0.146,0.23,0.476,0.692,0.996c0.578,0.49,0.865,0.823,0.865,0.997h0.13c0.202,0,0.303-0.101,0.303-0.303
	c-0.375-0.088-0.563-0.275-0.563-0.563c0.088-0.173,0.13-0.319,0.13-0.433h0.303v0.302h0.259v-0.302
	C33.181,30.083,32.473,29.795,31.061,29.449z M31.061,55.801v0.13h0.26c0.202,0,0.303-0.086,0.303-0.259v-0.174h-0.303
	C31.147,55.528,31.061,55.628,31.061,55.801z M31.191,33.43l0.13,0.303l-0.13,0.303l1.125,0.391v-0.391l-0.13-0.303
	c0.49-0.287,0.824-0.433,0.995-0.433c0-0.172-0.086-0.26-0.259-0.26C32.114,33.04,31.537,33.17,31.191,33.43z M31.624,44.551
	l-0.13,0.303c0.346,0.173,0.865,0.26,1.558,0.26h0.563v-0.13l-0.301-0.433c-0.173,0-0.548,0.101-1.126,0.303L31.624,44.551z
	 M31.494,57.489v0.173c0.374,0.23,0.563,0.418,0.563,0.563h1.125v-0.563h-0.259l-0.433,0.26l-0.173-0.26
	c0-0.202,0.146-0.303,0.433-0.303v-0.304l-0.692,0.174l0.13-0.303h-0.13C31.911,56.927,31.725,57.114,31.494,57.489z M31.624,58.787
	v0.693h0.26v-0.433C31.883,58.874,31.796,58.787,31.624,58.787z M31.753,26.333v0.13c0,0.375,0.578,0.766,1.731,1.168v-0.172
	l-0.303-0.997h-0.692v0.303h-0.173L31.753,26.333z M32.056,27.328c0,0.261-0.101,0.636-0.303,1.126l0.303,0.172
	c0.579-0.345,0.866-0.59,0.866-0.736C32.806,27.891,32.516,27.703,32.056,27.328z M31.753,40.137v0.131
	c0.029,0.202,0.13,0.301,0.303,0.301h0.26v-0.13c0-0.202-0.086-0.303-0.26-0.303H31.753z M32.489,55.238
	c0,0.172-0.202,0.26-0.605,0.26v0.174c0,0.171,0.146,0.259,0.433,0.259c0.404-0.144,0.606-0.288,0.606-0.433L32.489,55.238z
	 M32.056,25.597c0,0.202,0.287,0.346,0.866,0.433c0.088-0.173,0.129-0.317,0.129-0.433c-0.086-0.173-0.129-0.303-0.129-0.389h-0.433
	C32.343,25.208,32.2,25.338,32.056,25.597z M33.051,41.694l-0.865,0.995h0.736l1.386-0.129
	C34.074,41.982,33.657,41.694,33.051,41.694z M32.489,34.729c0.374-0.203,0.563-0.49,0.563-0.867h-0.129
	C32.633,33.978,32.489,34.266,32.489,34.729z M32.749,22.612c0,0.692,0.287,1.08,0.865,1.168l0.303-0.433v-0.131
	C33.917,22.958,33.527,22.756,32.749,22.612z M32.922,28.324v0.131h0.259v-0.433C33.008,28.049,32.922,28.15,32.922,28.324z
	 M36.296,34.036h-0.259l0.13,0.995l-0.26,0.131c0-0.088-0.06-0.131-0.174-0.131l0.174-0.302c-0.202-0.433-0.405-0.663-0.606-0.693
	h-0.13c-0.346,0.23-1.097,0.506-2.25,0.823v0.172h0.823v0.261h-0.823v0.129c0,0.087,0.332,0.332,0.995,0.736v0.13
	c-0.404,0-0.604,0.043-0.604,0.13c0,0.404,0.286,0.605,0.865,0.605V36.59h0.303v0.563h0.26c0-0.317,0.243-0.563,0.735-0.735h0.13
	l-0.13,0.735l0.26,0.13c0-0.461,0.244-0.836,0.735-1.125h0.13v0.433c0.2-0.173,0.72-0.317,1.558-0.433
	c-0.171-0.433-0.26-0.865-0.26-1.298l-0.303,0.173h-0.13c0-0.088,0.044-0.376,0.13-0.867c-0.086-0.202-0.13-0.345-0.13-0.433
	C37.119,33.935,36.73,34.036,36.296,34.036z M33.614,24.905c0,0.145-0.101,0.332-0.301,0.563v0.129
	c0.49-0.23,0.736-0.418,0.736-0.563v-0.13H33.614z M33.484,32.435v0.173c0.029,0.173,0.261,0.361,0.693,0.563v-0.13
	c-0.088-0.202-0.129-0.346-0.129-0.433h0.259c0,0.289,0.1,0.433,0.303,0.433h0.995v-0.303h1.428v-0.13
	c-0.865-0.202-1.487-0.303-1.86-0.303h-0.26L33.484,32.435z M33.614,52.815c-0.086,0.146-0.129,0.333-0.129,0.564h0.433
	c0.114,0,0.244-0.146,0.391-0.434v-0.131H33.614z M33.614,26.333v0.563h0.131l0.433-0.303h0.736v-0.13
	c0-0.172-0.103-0.26-0.303-0.26h-0.303L33.614,26.333z M35.734,30.011l-0.563-0.13c-0.605,0.202-1.024,0.303-1.256,0.303h-0.303
	v0.692c1.703-0.463,2.598-0.88,2.683-1.256h-0.13C35.878,29.623,35.734,29.751,35.734,30.011z M33.614,42.82v0.432h0.435
	c0.171,0,0.259-0.086,0.259-0.26L33.614,42.82z M33.614,55.498v0.303h0.131c0.374-0.146,0.563-0.288,0.563-0.433l-0.259-0.13h-0.131
	C33.715,55.268,33.614,55.354,33.614,55.498z M33.744,27.458v0.433h0.563c0-0.144,0.1-0.332,0.303-0.563v-0.303
	C34.234,27.314,33.944,27.458,33.744,27.458z M33.917,44.248h0.391v-0.822C34.133,43.426,34.003,43.699,33.917,44.248z
	 M33.917,48.661c0.088,0.202,0.131,0.345,0.131,0.433h0.129v-0.433H33.917z M34.739,22.222v0.261
	c-0.232-0.173-0.418-0.261-0.563-0.261h-0.13v0.13c0.112,0,0.345,0.188,0.692,0.564l0.736-0.131v-0.563H34.739z M34.047,24.342v0.13
	h0.13c0-0.173,0.188-0.259,0.563-0.259V23.78c0-0.203-0.088-0.303-0.26-0.303C34.277,23.477,34.133,23.766,34.047,24.342z
	 M34.177,46.239l-0.13,0.736h0.13c0.285-0.088,0.433-0.188,0.433-0.304c-0.088-0.173-0.13-0.317-0.13-0.433H34.177L34.177,46.239z
	 M34.047,50.263v0.563h0.13c0.229-0.202,0.415-0.303,0.563-0.303v-0.13C34.42,50.393,34.191,50.349,34.047,50.263z M34.177,47.536
	v0.302c0.46-0.26,0.707-0.462,0.736-0.604v-0.131h-0.173C34.364,47.248,34.177,47.392,34.177,47.536z M34.306,31.006v0.173
	c0.201,0.375,0.345,0.563,0.433,0.563c0.692,0,1.312,0.086,1.861,0.259c0.173-0.086,0.317-0.13,0.433-0.13v-0.259h-0.736v-0.303
	h0.736V31.18l-0.736-0.866C36.151,30.314,35.489,30.546,34.306,31.006z M34.479,48.401c0.112,0.547,0.26,0.822,0.433,0.822h0.129
	c0-0.26,0.188-0.39,0.563-0.39v-0.303c-0.174,0-0.406-0.146-0.692-0.433L34.479,48.401z M34.609,39.271v0.303h0.866v-0.13
	l-0.736-0.173H34.609z M34.739,52.253v0.13l0.173,0.261c-0.116,0.172-0.173,0.375-0.173,0.606c0.201,0.086,0.344,0.13,0.432,0.13
	c0.374-0.146,0.563-0.289,0.563-0.434h-0.259l-0.304,0.13l-0.13-0.259v-0.174c0-0.173,0.229-0.26,0.692-0.26v-0.131H34.739
	L34.739,52.253z M34.913,10.798c0.519,1.616,1.183,2.423,1.99,2.423c0,0.115,0.043,0.173,0.13,0.173v-0.303
	c-0.289-0.317-0.433-0.548-0.433-0.692l0.13-0.303c-0.174-0.463-0.549-0.939-1.125-1.43C35.46,10.755,35.229,10.798,34.913,10.798z
	 M34.913,41.262v0.563h0.259c0-0.261,0.1-0.391,0.304-0.391c0.373,0.146,0.563,0.477,0.563,0.995l-0.304,0.132
	c-0.086-0.174-0.129-0.361-0.129-0.564h-0.13v0.131l0.13,0.865v0.434h0.691c0.201,0,0.304-0.102,0.304-0.303
	c-0.462,0-0.692-0.102-0.692-0.303v-0.131L36.6,42.82h0.303v-0.131c-0.115-0.115-0.173-0.346-0.173-0.691h0.173v-0.174H36.73
	c-0.174,0.115-0.319,0.174-0.434,0.174v-1.169h-0.563C35.186,40.885,34.913,41.031,34.913,41.262z M35.171,27.328v0.13l0.736,0.173
	h0.13v-0.303H35.171z M35.171,51.82v0.13h0.736c0-0.202,0.042-0.39,0.13-0.563h-0.13C35.588,51.676,35.345,51.82,35.171,51.82z
	 M35.301,20.188v0.173l0.174,0.26c0.433-0.287,0.706-0.433,0.821-0.433c0-0.172-0.086-0.26-0.259-0.26h-0.433
	C35.403,19.959,35.301,20.044,35.301,20.188z M35.605,11.664h0.303v0.303h-0.303V11.664z M35.908,57.359v0.13l0.13,0.303
	c0.835-0.375,1.313-0.707,1.428-0.995v-0.304h-0.173C36.368,56.753,35.908,57.042,35.908,57.359z M36.167,19.063l0.303,0.13
	c0.287-0.26,0.62-0.39,0.995-0.39v-0.433C36.6,18.545,36.167,18.775,36.167,19.063z M36.6,37.021c0.2,0.029,0.303,0.116,0.303,0.26
	v0.13l-0.303-0.13h-0.13l0.13,0.303c-0.174,0.087-0.319,0.13-0.433,0.13v0.13h0.735v-0.433c0.173,0,0.26,0.146,0.26,0.433
	l0.735-0.13l0.39,0.303h0.173v-0.173c0-0.144-0.1-0.563-0.303-1.255C37.119,36.588,36.6,36.733,36.6,37.021z M36.296,9.673v0.303
	c0.029,0.173,0.13,0.261,0.304,0.261c0.2,0,0.303-0.088,0.303-0.261V9.805L36.73,9.543C36.556,9.63,36.411,9.673,36.296,9.673z
	 M36.47,28.885h0.433v-0.433C36.757,28.452,36.614,28.598,36.47,28.885z M36.6,54.243v0.26l0.303-0.13h1.255V54.07h-0.865
	L36.6,54.243z M36.6,58.787c0.173,0.088,0.317,0.131,0.433,0.131c0.75-0.346,1.125-0.823,1.125-1.429
	c-0.087-0.287-0.172-0.434-0.26-0.434C37.206,57.056,36.773,57.633,36.6,58.787z M37.163,41.824v1.428
	c0.028,0.202,0.13,0.303,0.303,0.303l0.13-0.303V42.82l-0.303-0.996H37.163L37.163,41.824z M37.292,15.212v0.606
	c0.058,0.173,0.157,0.261,0.303,0.261h0.13C37.725,15.588,37.581,15.299,37.292,15.212z M37.465,53.075v0.563l0.692-0.13v-0.261
	c0-0.145-0.145-0.287-0.433-0.433C37.551,52.845,37.465,52.931,37.465,53.075z M37.595,9.976v0.563c0,0.173,0.146,0.548,0.433,1.126
	h0.13v-0.563c0-0.694-0.145-1.069-0.433-1.126H37.595z M37.595,48.661l0.563,0.303v-0.303c0-0.173-0.087-0.26-0.26-0.26
	C37.696,48.431,37.595,48.516,37.595,48.661z M37.725,13.784v0.303c0.03,0.202,0.13,0.303,0.303,0.303
	c0-0.116,0.043-0.26,0.13-0.433C38.071,13.957,37.927,13.899,37.725,13.784z M37.898,42.992v0.26c0.088,0.202,0.13,0.347,0.13,0.434
	h0.26v-0.26C38.288,43.283,38.158,43.137,37.898,42.992z M38.028,14.649v0.563c0.03,0.204,0.115,0.303,0.26,0.303
	c0-0.287,0.058-0.433,0.173-0.433c-0.115-0.171-0.173-0.317-0.173-0.433H38.028z M38.158,31.309c0,0.287-0.042,0.433-0.13,0.433
	c0.088,0.173,0.13,0.317,0.13,0.433h0.13v-0.866H38.158L38.158,31.309z M38.028,41.437v0.13c0.03,0.172,0.115,0.26,0.26,0.26h0.433
	C38.72,41.682,38.49,41.551,38.028,41.437z M38.028,43.988v0.129c0.088,0.174,0.13,0.361,0.13,0.563
	c0.173-0.086,0.36-0.129,0.563-0.129v-0.434L38.028,43.988z M38.72,17.073c-0.375,0.635-0.563,1.21-0.563,1.731h0.433
	c0.578-0.664,0.953-0.995,1.126-0.995C39.658,17.318,39.326,17.073,38.72,17.073z M38.288,13.092h0.433v-0.303h-0.13
	C38.388,12.819,38.288,12.918,38.288,13.092z M38.46,31.18v0.259h0.26V31.18H38.46z M38.46,52.514v0.736
	c0,0.113,0.23,0.345,0.692,0.692v-0.13C38.865,52.946,38.633,52.514,38.46,52.514z M38.46,54.243v0.26
	c0.433,0.664,0.722,0.995,0.865,0.995c0-0.173,0.13-0.26,0.391-0.26v-0.433C38.995,54.431,38.576,54.243,38.46,54.243z
	 M39.456,22.05c0,0.577-0.245,0.866-0.735,0.866v1.99c1.153,0.866,1.876,1.298,2.165,1.298l0.26-0.433v-0.173h-0.692v-0.259
	l0.433-0.563v-0.173c-0.173-0.375-0.507-0.563-0.997-0.563v-0.13c0-0.144,0.231-0.332,0.694-0.563
	c0.49,1.211,0.923,1.918,1.298,2.121l0.13-1.428c0-0.75-0.288-1.125-0.865-1.125c-0.433-0.577-0.909-0.866-1.429-0.866H39.456
	L39.456,22.05z M39.023,33.603c0,0.146-0.1,0.333-0.303,0.563h0.735v-0.301c0-0.173-0.1-0.261-0.302-0.261H39.023z M39.153,42.43
	c-0.287,0.836-0.433,1.299-0.433,1.385c0.605,0.202,0.938,0.303,0.996,0.303l0.172-0.303c-0.172-0.923-0.359-1.385-0.563-1.385
	H39.153z M39.326,19.366c0,0.375-0.144,0.563-0.433,0.563v0.26h0.433c0.173,0,0.262-0.086,0.262-0.26v-0.303
	C39.585,19.453,39.499,19.366,39.326,19.366z M38.893,32.867l0.26,0.173h0.303l0.132-0.735v-0.692h-0.132
	C39.311,31.612,39.124,32.03,38.893,32.867z M39.326,34.296c0,0.202-0.144,0.302-0.433,0.302v0.433c0.375,0,0.563,0.131,0.563,0.391
	h0.433v-0.129C39.745,34.627,39.557,34.296,39.326,34.296z M39.023,23.044h0.303c0,0.171,0.088,0.417,0.262,0.735h-0.262
	c-0.202,0-0.303-0.101-0.303-0.303h0.131l-0.131-0.261V23.044z M39.023,44.421c0.088,0.173,0.131,0.317,0.131,0.433l0.734-0.174
	v-0.259H39.023z M40.018,45.546c0,0.288-0.043,0.433-0.131,0.433c-0.202-0.087-0.345-0.13-0.433-0.13
	c-0.287,0.433-0.433,0.953-0.433,1.56c0.088,0.171,0.131,0.317,0.131,0.433l0.433-0.303c0,0.144,0.145,0.287,0.433,0.433
	c0.202-1.012,0.302-1.675,0.302-1.992v-0.13C40.321,45.646,40.22,45.546,40.018,45.546z M39.326,16.206l-0.173,0.303v0.13
	l0.303-0.13c0.03,0.204,0.115,0.303,0.261,0.303h0.172v-0.173C39.888,16.496,39.701,16.352,39.326,16.206z M39.326,57.792
	l-0.173,0.693v0.302h0.563c0.202,0,0.304-0.1,0.304-0.302C40.018,58.369,39.788,58.138,39.326,57.792z M39.456,20.621
	c0.146,0,0.333,0.101,0.564,0.303h0.301v-0.303l-0.301,0.173h-0.132v-0.173c0.088-0.172,0.132-0.317,0.132-0.433
	C39.643,20.331,39.456,20.477,39.456,20.621z M39.585,12.962v0.13l0.734,0.13c0-0.173-0.145-0.26-0.433-0.26H39.585z M39.585,36.156
	v0.563h0.734C40.206,36.343,39.96,36.156,39.585,36.156z M39.585,36.848v0.173c0,0.52,0.245,0.893,0.734,1.125h0.131v-0.996
	C40.278,37.151,39.99,37.05,39.585,36.848z M40.581,20.059l-0.13,0.735l0.433-0.303c0.087,0.173,0.13,0.317,0.13,0.433
	c0.174-0.086,0.317-0.13,0.433-0.13c-0.203-0.317-0.303-0.563-0.303-0.735l-0.26,0.13L40.581,20.059z M40.71,18.501l-0.13,0.692
	v0.173l0.303-0.173l0.26,0.173v-0.173l-0.13-0.692H40.71z M40.581,21.919c0,0.146,0.287,0.376,0.865,0.694v-0.261
	C41.36,22.063,41.071,21.919,40.581,21.919z M41.013,13.395v0.26c0,0.146,0.188,0.289,0.563,0.433v-0.13
	C41.518,13.669,41.331,13.481,41.013,13.395z M41.576,17.374h0.304l0.692-0.171v-0.13h-0.692
	C41.677,17.102,41.576,17.203,41.576,17.374z M41.706,15.515v0.865c0.174-0.114,0.375-0.171,0.606-0.171v-0.261
	C42.312,15.804,42.11,15.659,41.706,15.515z M42.138,31.309l-0.259,0.433v0.433h0.692v-0.433
	C42.572,31.598,42.427,31.454,42.138,31.309z M41.879,32.435v0.303c0.286,0,0.62,0.289,0.995,0.865c0.172,0,0.504,0.088,0.995,0.261
	V33.04h-0.432l0.129,0.26l-0.26,0.131c-0.145-0.664-0.577-0.997-1.298-0.997H41.879L41.879,32.435z M41.879,34.036v0.129
	l0.433-0.301h0.26c0.028,0.49,0.173,0.736,0.432,0.736h0.693v-0.173c-0.75-0.463-1.269-0.692-1.559-0.692
	C41.965,33.761,41.879,33.862,41.879,34.036z M42.138,27.631l-0.13,0.995h0.13l0.997-0.172c0,0.114,0.057,0.172,0.172,0.172
	c0-0.433,0.043-0.72,0.131-0.866C42.86,27.674,42.427,27.631,42.138,27.631z M42.312,38.276c0,0.173-0.102,0.75-0.304,1.731
	c0.087,0.173,0.13,0.317,0.13,0.433c0.491-0.259,1.211-0.548,2.165-0.865c0.088-0.519,0.129-0.952,0.129-1.298H42.312L42.312,38.276
	z M42.008,41.563v0.131c0.289,0.087,0.577,0.13,0.866,0.13c0.461-0.953,0.692-1.514,0.692-1.689
	C42.903,40.31,42.383,40.786,42.008,41.563z M42.442,36.024h0.562c0.201,0,0.303-0.1,0.303-0.301h-0.606
	C42.528,35.752,42.442,35.853,42.442,36.024z M42.442,37.583v0.13h0.259c0.924,0.202,1.458,0.303,1.602,0.303h0.129l0.131-0.736
	v-0.995C43.148,36.689,42.442,37.122,42.442,37.583z M42.572,21.616v0.606h0.303V22.05c-0.115-0.173-0.174-0.318-0.174-0.433h-0.129
	V21.616z M42.701,53.508v0.13l0.606,0.172l0.26-0.433v-0.13c0-0.202-0.086-0.303-0.26-0.303
	C43.135,52.944,42.932,53.132,42.701,53.508z M42.875,19.366l0.26,0.433v0.13h-0.26c0,0.173,0.274,0.361,0.823,0.563v-0.563
	c-0.145,0-0.332-0.188-0.563-0.563l0.303-0.433h-0.131C43.162,18.934,43.018,19.078,42.875,19.366z M43.135,26.03
	c0,0.202-0.088,0.303-0.26,0.303c0.086,0.173,0.129,0.317,0.129,0.433h0.563v-0.303C43.566,26.318,43.422,26.176,43.135,26.03z
	 M43.135,10.106v1.429c0.287-0.058,0.432-0.433,0.432-1.126v-0.301h-0.432V10.106z M45.557,28.885c0,0.49-0.088,0.735-0.26,0.735
	c0-0.202-0.1-0.301-0.305-0.301h-0.43c-0.346,0-0.822,0.229-1.428,0.692l0.303,0.173h0.865v-0.173c-0.289,0-0.434-0.088-0.434-0.26
	h0.26c0.404,0.375,0.793,0.563,1.168,0.563l0.262-0.13c0,0.202,0.332,0.532,0.996,0.996c0.027,0.171,0.129,0.259,0.303,0.259
	c0-0.289,0.086-0.433,0.26-0.433c0.027,0.202,0.129,0.303,0.303,0.303h0.563V31.18c-0.174-0.317-0.26-0.563-0.26-0.736
	c0.115,0,0.244-0.146,0.389-0.433C47.332,29.261,46.48,28.885,45.557,28.885z M43.438,12.097c0,0.433-0.045,0.72-0.131,0.865h0.26
	l0.131-0.735v-0.13H43.438z M43.307,18.068c0.086,0,0.217,0.042,0.391,0.13v-0.391h-0.131
	C43.393,17.837,43.307,17.924,43.307,18.068z M43.697,57.489c0,0.146-0.088,0.333-0.26,0.563v0.172l0.994,0.13v-0.302
	c-0.201-0.23-0.303-0.418-0.303-0.563H43.697z M43.566,25.771v0.13c0.26,0.463,0.447,0.692,0.563,0.692v-0.13
	C44.043,26.29,44,26.146,44,26.03h0.432v0.865l0.563,0.13c-0.344-0.72-0.576-1.138-0.691-1.255H43.566L43.566,25.771z
	 M43.566,31.612c0.146,0.375,0.289,0.563,0.434,0.563v-0.433h0.303l0.129,0.865h0.563c0-0.287,0.102-0.433,0.303-0.433h0.131
	c0,0.375,0.564,0.563,1.689,0.563c-0.434-0.317-0.768-0.692-0.996-1.125c-0.174,0-0.262-0.202-0.262-0.606
	C44.705,31.15,43.941,31.353,43.566,31.612z M43.566,52.08l0.563,0.433h0.303c-0.172-0.433-0.359-0.662-0.563-0.692
	C43.668,51.849,43.566,51.936,43.566,52.08z M43.566,54.07v0.172c0.375,0,0.895,0.333,1.559,0.996h0.434
	c0.287-0.663,0.434-1.054,0.434-1.168c-0.404-0.376-0.779-0.563-1.127-0.563h-0.303C44.072,53.508,43.74,53.695,43.566,54.07z
	 M43.869,17.505v0.13h0.865l0.996-0.13v-0.564h-0.172C45.441,16.944,44.879,17.129,43.869,17.505z M44.303,20.188l-0.434,0.605
	v0.433c0.578-0.231,0.865-0.433,0.865-0.606v-0.26C44.619,20.361,44.475,20.304,44.303,20.188z M44,43.555l0.129,0.26L44,44.117
	h0.129l0.736-0.129v-0.174L44,43.555z M44,44.421v0.259l0.563,0.174c0.432-0.202,0.678-0.402,0.734-0.605h-0.563L44,44.421z
	 M44.129,47.408L44,47.971c0.578-0.231,0.865-0.419,0.865-0.563H44.129z M44.129,42.82v0.303l0.605,0.129
	c0-0.115-0.145-0.26-0.432-0.432H44.129z M44.432,30.617c0,0.172,0.146,0.26,0.434,0.26c0.172-0.088,0.316-0.13,0.432-0.13v-0.13
	H44.432z M44.432,42.258v0.171h0.693v0.261h-0.26l0.865,0.865c0.752-0.172,1.127-0.359,1.127-0.563v-0.432
	c-0.059-0.289-0.434-0.434-1.127-0.434h-0.605L44.432,42.258z M44.432,57.359v0.13l0.693,0.173c0.662-0.23,0.996-0.433,0.996-0.606
	h-0.693L44.432,57.359z M44.734,52.08l-0.172,0.303v0.13h0.563l0.734,0.131c-0.086-0.173-0.129-0.303-0.129-0.391h-0.736
	L44.734,52.08z M44.865,47.666v0.172c0.057,0,0.346,0.043,0.865,0.131v-0.433h-0.172L44.865,47.666z M44.994,40.569h0.131
	c0.203-0.086,0.346-0.13,0.434-0.13v-0.303C45.182,40.281,44.994,40.425,44.994,40.569z M45.125,18.501
	c0,0.202,0.201,0.303,0.604,0.303v0.13c0,0.171-0.1,0.26-0.303,0.26l-0.301-0.13v0.13c0,0.173,0.201,0.375,0.604,0.605
	c0-0.26,0.131-0.548,0.391-0.865C45.658,18.645,45.326,18.501,45.125,18.501z M45.125,33.04c0,0.145,0.201,0.332,0.604,0.563
	c0.146-0.115,0.334-0.173,0.564-0.173V33.3C45.572,33.128,45.182,33.04,45.125,33.04z M46.422,35.592h0.131
	c0.201-0.114,0.344-0.172,0.432-0.172v0.303l-1.256,0.865l0.131,0.26l-0.563,0.995h0.129c0.404-0.115,1.068-0.923,1.992-2.423
	v-0.129h-0.693C46.523,35.319,46.422,35.42,46.422,35.592z M45.428,45.849l-0.131,0.26c0,0.146,0.146,0.288,0.434,0.433h0.262
	C45.816,46.108,45.629,45.878,45.428,45.849z M45.428,39.704h0.303c1.211-0.114,1.816-0.345,1.816-0.692
	c-0.836,0-1.254-0.1-1.254-0.303h0.26l1.428,0.129c0.26-0.923,0.504-1.442,0.736-1.558c-0.088-0.26-0.334-0.49-0.736-0.692
	C46.51,38.146,45.658,39.185,45.428,39.704z M45.428,42.258h0.432v0.303h-0.432V42.258z M45.73,24.213v0.129h0.391
	c0.201,0,0.303-0.101,0.303-0.303v-0.13C46.105,24.112,45.875,24.213,45.73,24.213z M45.859,22.612c0,0.171,0.189,0.375,0.564,0.604
	v-0.604H45.859z M45.99,17.938l0.129,0.692h0.605l0.26-0.995l-0.26-0.13C46.234,17.623,45.99,17.765,45.99,17.938z M46.119,21.616
	l-0.129,0.303v0.129c0.113,0,0.26,0.058,0.432,0.173v-0.303C46.422,21.717,46.322,21.616,46.119,21.616z M46.422,27.025
	c0.346,0.578,0.578,0.867,0.693,0.867h0.172c-0.23-0.578-0.418-0.867-0.563-0.867H46.422z M46.422,28.194
	c0.115,0.463,0.26,0.694,0.434,0.694h0.865C47.721,28.54,47.287,28.309,46.422,28.194z M46.553,24.213v0.259h0.172v-0.259H46.553z
	 M46.553,31.742v0.129c0.807,0.375,1.283,0.563,1.428,0.563v-0.26c-0.174,0-0.592-0.145-1.256-0.433H46.553z M46.725,21.616
	l0.822,0.867l-0.26,0.563c0.174,0,0.26,0.245,0.26,0.735c0.289-0.115,0.434-0.404,0.434-0.865v-0.694
	c-0.576,0-0.865-0.202-0.865-0.606H46.725z M46.725,47.969c0.088,0.172,0.131,0.359,0.131,0.563h0.432
	c-0.145-0.375-0.287-0.563-0.432-0.563H46.725z M47.115,40.829c0,0.229-0.043,0.433-0.131,0.604h0.736l-0.303-0.433
	c0.086,0,0.129-0.057,0.129-0.172H47.115L47.115,40.829z M47.418,44.421c0,0.173-0.146,0.259-0.434,0.259
	c0.203,0.404,0.303,0.694,0.303,0.866c0.172,0,0.26-0.145,0.26-0.433l0.303,0.131l0.131-0.693L47.418,44.421z M46.984,57.489v0.173
	c0.203,0,0.303,0.043,0.303,0.13c0.172-0.087,0.318-0.13,0.434-0.13v-0.173H46.984z M47.115,18.371v0.433l0.994,0.13v-0.13
	c0-0.146-0.23-0.391-0.691-0.736C47.217,18.097,47.115,18.198,47.115,18.371z M47.115,42.82v0.432h0.605V42.82H47.115z
	 M47.418,17.505c0.461,0.287,0.793,0.433,0.994,0.433c-0.201-0.318-0.303-0.605-0.303-0.867c0.115,0,0.174-0.042,0.174-0.13
	l-0.434-0.303C47.563,16.757,47.418,17.044,47.418,17.505z M47.418,44.854h0.129v0.26h-0.129V44.854z M47.547,27.328
	c0.723,2.135,1.24,3.232,1.559,3.29h0.174c0.287-0.894,0.432-1.659,0.432-2.293c0-0.173-0.576-0.463-1.73-0.867
	c0-0.086-0.043-0.13-0.131-0.13H47.547z M47.547,47.233v0.433h0.434c0.201,0,0.303-0.088,0.303-0.261L47.547,47.233z M47.547,47.969
	v0.13c0.375,0.375,0.563,0.662,0.563,0.865c0.174,0,0.375-0.188,0.607-0.563v-0.433c-0.203,0.087-0.348,0.13-0.434,0.13
	L47.547,47.969z M47.721,29.016v0.302h0.26C47.98,29.117,47.895,29.016,47.721,29.016z M48.109,33.603
	c0,0.173-0.129,0.261-0.389,0.261v0.172h0.26l0.736-0.172v-0.261H48.109z M48.283,24.775v0.259h0.26l0.174-0.563h-0.174
	C48.369,24.501,48.283,24.602,48.283,24.775z M48.283,30.314v0.433h0.129v-0.433H48.283z M48.283,44.117
	c0.029,0.203,0.115,0.304,0.26,0.304h0.432v-0.304H48.283z M48.283,50.825v0.26c1.211,0.203,2.061,0.448,2.553,0.735v-0.172
	c-0.201-0.663-0.635-0.996-1.297-0.996h-0.564L48.283,50.825z M48.412,39.444v0.692l0.996,0.131h0.303
	c0-0.146,0.086-0.333,0.26-0.564c0-0.172-0.086-0.26-0.26-0.26H48.412z M48.543,36.416c0.115,0.202,0.174,0.345,0.174,0.433h0.258
	v-0.563h-0.129L48.543,36.416z M48.717,53.075v0.433h0.129c0.375-0.146,0.563-0.288,0.563-0.433H48.717z M48.846,22.352v0.261
	c0.086,0,0.23,0.058,0.434,0.171l0.129-0.301v-0.131H48.846z M48.846,24.905c0.086,0.577,0.23,0.866,0.434,0.866
	c0-0.202,0.143-0.303,0.432-0.303v-0.13C49.711,25.049,49.422,24.905,48.846,24.905z M49.105,44.983c0,0.173-0.086,0.403-0.26,0.692
	c0.375,0.288,0.664,0.433,0.865,0.433l0.131-0.26v-0.303C49.783,45.344,49.539,45.156,49.105,44.983z M48.975,21.054l0.131,0.303
	v0.433c0.289,0,0.434,0.146,0.434,0.433h0.172V21.79c-0.23,0-0.375-0.245-0.432-0.736H48.975L48.975,21.054z M49.408,37.411
	l-0.434,0.606c0.203,0.086,0.348,0.13,0.434,0.13c0.318-0.202,0.563-0.303,0.736-0.303v-0.13
	C50.145,37.512,49.898,37.411,49.408,37.411z M49.105,24.472l0.303,0.13h0.563V24.04C49.395,24.155,49.105,24.299,49.105,24.472z
	 M49.105,48.964h0.434v-0.563C49.395,48.401,49.25,48.589,49.105,48.964z M49.105,51.95c0,0.146,0.201,0.333,0.605,0.563h0.563
	v-0.131c-0.23,0-0.52-0.145-0.865-0.433H49.105z M49.842,34.598c0,0.288-0.188,0.433-0.563,0.433v0.261
	c0.375,0,0.662,0.433,0.865,1.298l-0.605-0.433h-0.131v0.563c0.721,0.664,1.199,0.995,1.428,0.995v0.303h-0.432v0.13
	c0.029,0.202,0.129,0.303,0.303,0.303h0.129l0.693-0.173v-0.129h-0.391v-0.303h0.563V36.72c0.203,0,0.434-0.231,0.693-0.692
	C52.395,35.507,51.543,35.031,49.842,34.598z M49.971,42.43v0.131l0.174,0.26l-0.303,0.172l-0.131-0.303
	c-0.201,0.087-0.346,0.131-0.432,0.131v0.172l0.994,0.26l0.131-0.26C50.26,42.617,50.115,42.43,49.971,42.43z M49.971,22.352
	c0,0.289,0.188,0.433,0.563,0.433c0,0.058-0.229,0.289-0.691,0.694h0.303c0.375-0.146,0.563-0.289,0.563-0.433l0.26,0.171h0.172
	l0.131-0.604h-0.131c-0.172,0.114-0.375,0.171-0.605,0.171l0.303-0.433v-0.303c0-0.171-0.1-0.259-0.303-0.259
	C50.389,21.79,50.201,21.977,49.971,22.352z M50.145,44.117c0.316,0.664,0.547,0.996,0.691,0.996h0.131l-0.131-0.996H50.145z
	 M50.404,29.016v0.433c0.316,0,0.563,0.056,0.734,0.171v-0.303l-0.303-0.433C50.664,28.973,50.52,29.016,50.404,29.016z
	 M52.523,37.281v1.168h-0.129l-0.262-0.173l-0.172,0.303l0.172,0.259h-0.172c-0.172,0-0.26-0.086-0.26-0.259
	c-0.779,0.115-1.17,0.303-1.17,0.563h0.434l0.432-0.303h0.133c0,0.491,0.332,0.736,0.994,0.736l0.174,0.261
	c-1.039,0.115-1.559,0.259-1.559,0.433c0.463,0.577,0.734,0.865,0.822,0.865c0.172-0.088,0.361-0.129,0.563-0.129
	c0,0.115,0.145,0.26,0.434,0.433c0-0.403,0.188-0.606,0.563-0.606l-0.131-0.26c0.375-0.261,0.563-0.448,0.563-0.564h0.303
	l0.26,0.997h0.174c0-0.377,0.289-0.564,0.865-0.564h0.131l-0.563,0.693c0.086,0.287,0.359,0.434,0.82,0.434h0.867
	c0.057-0.375,0.203-0.563,0.432-0.563c0.346,0.172,0.721,0.26,1.127,0.26c0-0.318,0.287-0.505,0.865-0.563
	c0-0.289,0.145-0.433,0.434-0.433c0-0.115-0.146-0.261-0.434-0.433h-0.434v0.735h-0.258c0-0.865-0.334-1.485-0.998-1.862v0.131
	l0.693,0.866c-0.375,0.058-0.563,0.202-0.563,0.433h-0.303v-0.694c0-0.433-0.332-1.053-0.996-1.861l-0.26,0.13h-0.303v-0.303h-0.26
	c0,0.204-0.057,0.303-0.174,0.303c-0.285-0.202-0.518-0.303-0.691-0.303c0.75,1.011,1.125,1.631,1.125,1.862h-0.129l-0.563-0.563
	v0.129c0.086,0.202,0.129,0.345,0.129,0.433c-0.086,0.202-0.129,0.345-0.129,0.433h0.129l0.691-0.13v0.433h-0.563l-0.994-0.303
	c0-0.173,0.188-0.694,0.563-1.559l-1.256-1.125v0.13l0.131,0.866H53.52c0-0.402-0.23-0.736-0.693-0.996
	C52.625,37.05,52.523,37.137,52.523,37.281z M50.533,50.263v0.13c0.346,0,0.779,0.188,1.299,0.563v-0.13l-0.563-0.736V49.96
	l0.432,0.303l0.131-0.303v-0.13c0-0.204-0.1-0.304-0.303-0.304C50.922,49.786,50.592,50.031,50.533,50.263z M50.836,24.213v0.129
	h0.303c0-0.146,0.088-0.333,0.26-0.563H51.27C51.125,23.78,50.98,23.924,50.836,24.213z M50.836,27.631v0.129
	c0.031,0.173,0.131,0.261,0.303,0.261h0.131c0.172,0,0.26-0.088,0.26-0.261L50.836,27.631z M51.27,24.342v0.13h0.26v-0.13H51.27z
	 M51.27,33.732v0.303c0.605,0.259,1.225,0.447,1.861,0.563c0-0.403-0.244-0.88-0.736-1.428C51.645,33.401,51.27,33.588,51.27,33.732
	z M51.398,41.824l0.131,0.736v0.563h0.605c0-0.231,0.131-0.521,0.391-0.865v-0.131c-0.23,0-0.463-0.101-0.693-0.303H51.398z
	 M51.398,44.983v0.433c0.752-0.345,1.184-0.736,1.301-1.168h0.129v-0.131h-0.129C51.861,44.406,51.428,44.695,51.398,44.983z
	 M51.398,47.233v0.604l0.736,0.391h0.26v-0.563c-0.172,0-0.402-0.146-0.693-0.433H51.398L51.398,47.233z M52.135,56.234h-0.736v0.13
	c0.031,0.201,0.131,0.303,0.303,0.303h0.564l0.129-0.606L52.135,56.234z M51.529,22.785v0.261h0.172v-0.261H51.529z M51.529,45.546
	v0.433l0.734,0.13c0.662-0.057,0.996-0.202,0.996-0.433c-0.26,0-0.592-0.145-0.996-0.434C51.947,45.444,51.701,45.546,51.529,45.546
	z M52.135,22.612v0.301c0.029,0.203,0.115,0.303,0.26,0.303s0.287-0.144,0.434-0.433v-0.171H52.135z M52.697,28.885
	c0,0.146-0.102,0.333-0.303,0.564v0.171c0.461-0.259,0.707-0.461,0.734-0.605l-0.303-0.13H52.697L52.697,28.885z M52.395,46.844
	v0.391h0.129c0.145,0,0.287-0.129,0.434-0.391H52.395z M53.26,19.193h0.129v0.605l-0.691,0.13h-0.174
	C52.523,19.785,52.77,19.539,53.26,19.193z M52.523,42.561v0.129c0.287,0.26,0.434,0.506,0.434,0.736h0.303v-0.434
	C53.086,42.992,52.842,42.849,52.523,42.561z M52.697,54.373v0.563h0.432c0.172,0,0.26-0.101,0.26-0.303
	c-0.145,0-0.332-0.088-0.563-0.26H52.697z M52.957,44.68c0,0.231-0.043,0.419-0.131,0.563c0.52,0.204,0.809,0.304,0.865,0.304v-0.13
	C53.461,44.983,53.217,44.738,52.957,44.68z M53.129,42.561v0.129h0.131c0.115-0.578,0.26-0.865,0.432-0.865l-0.172-0.261
	c0.115-0.202,0.172-0.345,0.172-0.433C53.432,41.131,53.244,41.607,53.129,42.561z M53.26,18.371c0.172,0.029,0.26,0.114,0.26,0.259
	v0.173h-0.26V18.371z M53.691,54.373v0.13c0.088,0.202,0.131,0.345,0.131,0.433c-0.145,0-0.289,0.145-0.434,0.433h0.563
	c0-0.203,0.102-0.303,0.303-0.303v-0.13C54.254,54.793,54.066,54.605,53.691,54.373z M53.951,41.824
	c-0.287,0.49-0.432,0.88-0.432,1.168v0.131l0.605,0.129l0.691-1.125C54.559,42.127,54.27,42.026,53.951,41.824z M53.691,33.603
	v0.433c0.463,0.605,0.693,0.98,0.693,1.126c0.52,0,0.908-0.188,1.168-0.564C55.033,34.165,54.414,33.833,53.691,33.603z
	 M53.691,44.248v0.303c0,0.463,0.232,0.691,0.693,0.691c0-0.086,0.043-0.129,0.129-0.129c-0.086-0.402-0.316-0.692-0.691-0.865
	H53.691L53.691,44.248z M53.822,28.452v0.173h0.432v-0.173H53.822z M53.822,32.435v0.173h0.303l0.129-0.606
	C54.111,32.001,53.967,32.145,53.822,32.435z M53.822,33.3l0.691,0.13h0.434c-0.086-0.26-0.361-0.39-0.822-0.39
	C53.924,33.067,53.822,33.156,53.822,33.3z M53.822,53.377c0.49,1.184,0.924,1.846,1.299,1.991h0.258
	c0-0.259-0.086-0.548-0.258-0.865l-0.305,0.13c-0.201,0-0.303-0.088-0.303-0.26c0.289-0.088,0.434-0.188,0.434-0.303
	c-0.086-0.173-0.131-0.317-0.131-0.433c0.088,0,0.131-0.043,0.131-0.13h-0.693v-0.131H53.822z M54.385,25.035
	c-0.289,0.923-0.434,1.5-0.434,1.731c0.203,0.03,0.303,0.116,0.303,0.26c0.375-0.144,0.563-0.287,0.563-0.433
	c-0.375,0-0.563-0.087-0.563-0.26l0.131-0.303l0.563,0.303c0.201-0.519,0.303-0.808,0.303-0.865l-0.563-0.433H54.385z
	 M53.951,55.931c0.318,0.202,0.607,0.304,0.865,0.304v-0.174c-0.086-0.173-0.129-0.303-0.129-0.389h-0.434
	C54.053,55.7,53.951,55.787,53.951,55.931z M54.125,23.477v0.563c0.115,0,0.246-0.146,0.389-0.433l-0.26-0.13H54.125z
	 M54.125,48.834v0.692l0.691-0.129l-0.303,0.433v0.13h0.303c0.203,0,0.305-0.102,0.305-0.304c0-0.115-0.289-0.389-0.867-0.822
	H54.125z M54.254,27.761c0,0.146,0.145,0.289,0.434,0.433h0.26c-0.174-0.229-0.26-0.417-0.26-0.563
	C54.486,27.716,54.342,27.761,54.254,27.761z M54.254,36.848l0.131,0.303c0.201-0.088,0.346-0.13,0.432-0.13v-0.303
	C54.645,36.805,54.457,36.848,54.254,36.848z M54.385,28.626c0.086,0.173,0.129,0.303,0.129,0.391h0.434v-0.259L54.385,28.626z
	 M54.385,45.849v0.391h0.129c0.174,0,0.318-0.23,0.434-0.693h-0.26C54.486,45.574,54.385,45.676,54.385,45.849z M54.688,23.346
	v0.433h0.129v-0.433H54.688z M55.121,44.68l0.129,0.304v1.688h0.434v0.302h-0.305v0.261l0.434-0.261v0.132
	c-0.086,0.171-0.129,0.358-0.129,0.563l0.258-0.13h0.867v-0.304c-0.287,0-0.434-0.088-0.434-0.261v-0.302h0.303
	c-0.461-1.326-0.938-1.992-1.428-1.992H55.121L55.121,44.68z M55.121,50.955v0.13c0.316,0,0.547,0.058,0.691,0.173
	c0.375-0.145,0.563-0.289,0.563-0.433h-0.26L55.121,50.955z M55.25,42.127c0.086,0,0.129,0.042,0.129,0.131
	c0.404-0.174,0.693-0.26,0.867-0.26c0.029,0.171,0.129,0.26,0.303,0.26v-0.434h-0.996C55.352,41.854,55.25,41.954,55.25,42.127z
	 M55.25,52.253v0.391c0.086,0,0.23,0.058,0.434,0.172l0.129-0.563H55.25z M57.111,31.309l0.129,0.303v1.125
	c-0.576,0.577-0.951,0.865-1.125,0.865c-0.201-0.115-0.344-0.173-0.432-0.173c0,0.203,0.188,0.303,0.563,0.303
	c0,0.204-0.287,0.303-0.867,0.303v0.129c0.434,0.289,0.768,0.433,0.996,0.433c0-0.662,0.334-0.996,0.996-0.996
	c0.203,0.03,0.303,0.116,0.303,0.26c-0.203,0.115-0.346,0.173-0.434,0.173v0.259h0.564c0.201,0,1.111-0.086,2.727-0.259
	l-0.174-0.303v-0.13h0.563c0-0.144-0.188-0.332-0.563-0.563h-0.129l-0.305,0.13c-0.953-1.24-1.746-1.861-2.381-1.861H57.111z
	 M56.115,31.742c0-0.202-0.102-0.303-0.303-0.303h-0.434v0.173c0.723,0.461,1.154,0.692,1.299,0.692
	c0.174-0.087,0.318-0.13,0.434-0.13c-0.203-0.317-0.303-0.606-0.303-0.866h-0.131L56.115,31.742z M55.379,53.377v0.433l0.305-0.172
	v0.605h0.691C56.375,53.666,56.043,53.377,55.379,53.377z M55.553,24.602v0.173c0,0.114,0.273,0.301,0.822,0.563h0.174v-0.13
	c-0.402-0.289-0.607-0.534-0.607-0.736C55.77,24.559,55.639,24.602,55.553,24.602z M55.553,28.022v0.433
	c0.174-0.088,0.303-0.131,0.389-0.131c0.695,0.088,1.082,0.131,1.17,0.131l0.129-0.261v-0.172l-0.129-0.261
	C56.188,27.934,55.668,28.022,55.553,28.022z M56.678,53.94h0.26v0.302l-0.996,0.563l0.305,0.433v0.26
	c-0.375,0-0.563,0.188-0.563,0.563l0.563,0.174c0.662-0.204,1.225-0.304,1.688-0.304h0.172v-0.13c0-0.403,0.043-0.793,0.131-1.168
	c-0.088-0.375-0.131-0.708-0.131-0.995h-1.168C56.764,53.666,56.678,53.768,56.678,53.94z M56.375,30.184
	c0,0.287-0.188,0.433-0.563,0.433v0.13l0.736,0.13h0.129v-0.433C56.678,30.271,56.576,30.184,56.375,30.184z M56.678,23.607v0.303
	h-0.129l-0.303-0.131v0.564l0.432,0.26h0.26c0-0.26,0.203-0.534,0.605-0.824v-0.171H56.678z M56.375,52.383l-0.129,0.261
	c0.088,0.202,0.129,0.345,0.129,0.433h1.168v-0.13C57.371,52.946,56.98,52.759,56.375,52.383z M56.375,42.561v0.26h0.174v-0.26
	H56.375z M56.549,26.203v0.13c0.088,0.173,0.129,0.317,0.129,0.433c0.146,0,0.289-0.144,0.434-0.433v-0.13H56.549z M56.809,34.857
	l-0.131,0.736c0.088,0,0.23,0.042,0.434,0.13c0.463-0.116,0.693-0.261,0.693-0.433C57.803,35.146,57.471,35.002,56.809,34.857z
	 M56.678,44.248c0.031,0.201,0.26,0.403,0.693,0.605V44.68c0-0.115-0.145-0.259-0.434-0.432H56.678L56.678,44.248z M56.809,30.011
	c0.203,0.317,0.303,0.563,0.303,0.735c-0.115,0-0.174,0.043-0.174,0.13h0.605v-0.26c0-0.173-0.201-0.375-0.605-0.605H56.809z
	 M56.809,36.848v0.735c0.029,0.173,0.129,0.26,0.303,0.26h0.563c0.088,0,0.463-0.086,1.125-0.26h0.131l0.303,0.13v-0.13
	c0-0.259-0.766-0.504-2.295-0.735H56.809z M57.24,41.824v0.605l0.865,0.26v-0.563L57.24,41.824z M57.24,45.676v0.173
	c0.203,0.288,0.303,0.563,0.303,0.823c-0.115,0-0.172,0.057-0.172,0.172h0.303c0-0.115,0.043-0.26,0.131-0.433
	c0.375,0.146,0.563,0.288,0.563,0.433v0.694c0.432,0,0.719,0.041,0.865,0.13c0.375-0.317,0.563-0.694,0.563-1.127
	C58.697,46.224,57.846,45.936,57.24,45.676z M57.371,26.593v0.173h1.166v-0.173c0-0.172-0.1-0.26-0.301-0.26
	C58.006,26.506,57.717,26.593,57.371,26.593z M57.543,43.123v0.563l0.563,0.129C57.904,43.383,57.717,43.151,57.543,43.123z
	 M57.543,47.969v0.433c0.23,0,0.463,0.087,0.693,0.26c0.203,0,0.303-0.088,0.303-0.26l-0.605-0.433H57.543z M57.674,30.184
	c0.029,0.172,0.115,0.26,0.26,0.26l0.996-0.13v-0.13H57.674z M57.803,29.016v0.172c0.318,0,0.836,0.146,1.559,0.433v-0.171
	c-0.088-0.289-0.361-0.433-0.824-0.433H57.803z M57.934,38.449v0.13c0,0.115,0.287,0.303,0.865,0.563l0.303-0.13h0.26
	c0.375,0.173,0.563,0.317,0.563,0.433l0.303-0.173h0.129c0.203,0.03,0.303,0.13,0.303,0.303c-0.201,0.03-0.303,0.115-0.303,0.26
	v0.173c0.23-0.202,0.418-0.303,0.563-0.303v-0.13c0-0.865-0.707-1.442-2.119-1.731C58.221,38.045,57.934,38.247,57.934,38.449z
	 M58.105,44.421l-0.172,0.259v0.174c0.402,0,0.605,0.23,0.605,0.692h0.131c0-0.202,0.145-0.39,0.434-0.563
	C59.102,44.695,58.77,44.508,58.105,44.421z M57.934,45.242v0.174h0.432v-0.174H57.934z M58.105,31.18h0.998
	c0,0.49,0.375,0.965,1.125,1.428l1.297-0.173c0-0.116-0.432-0.72-1.297-1.816C58.813,30.731,58.105,30.92,58.105,31.18z
	 M58.236,43.123v0.129c0,0.145,0.229,0.39,0.691,0.736v-0.174C58.928,43.699,58.697,43.471,58.236,43.123z M58.539,41.998h0.564
	l0.129-0.304h-0.434C58.625,41.724,58.539,41.824,58.539,41.998z M59.361,53.638c0,0.287-0.275,0.433-0.824,0.433v1.168
	c0.549,0.087,0.824,0.229,0.824,0.434h-0.693c0,0.576,0.23,0.995,0.693,1.255h0.432c0.088,0,0.375-0.287,0.865-0.866
	c0.029,0.202,0.115,0.304,0.26,0.304h0.174l0.996-0.13v-1.169h-0.305l-0.129,0.606h-0.434v-0.174l0.131-0.26
	c-0.086-0.173-0.131-0.376-0.131-0.605c0.174-0.088,0.42-0.13,0.736-0.13c0-0.146-0.201-0.333-0.605-0.563h-0.434v-0.302h-0.389
	l-0.434,0.302h-0.172l-0.391-0.302H59.361L59.361,53.638z M58.668,56.927c0.088,0.173,0.131,0.418,0.131,0.735h1.428v-0.303
	l-0.303,0.13h-0.26l-0.865-0.563H58.668L58.668,56.927z M58.928,45.546c0,0.146,0.203,0.288,0.605,0.433v-0.563
	C59.361,45.501,59.158,45.546,58.928,45.546z M59.23,36.024v0.131l0.693,0.13h0.303v-0.13l-0.865-0.131H59.23z M59.533,26.896
	l-0.172,0.563l0.303,0.173l0.129-0.303v-0.433H59.533z M59.361,42.258v0.171c0.145,0,0.332,0.088,0.563,0.261v-0.129
	c-0.088-0.174-0.131-0.361-0.131-0.564h-0.129C59.461,42.026,59.361,42.114,59.361,42.258z M59.664,23.044v0.301
	c0.029,0.173,0.115,0.261,0.26,0.261c0-0.088,0.057-0.216,0.172-0.391C59.98,23.219,59.836,23.161,59.664,23.044z M59.664,28.324
	h0.563v-0.433h-0.131C59.953,27.891,59.809,28.035,59.664,28.324z M59.793,48.099l0.131,0.303l-0.26,0.433v0.13
	c0.576,0,0.865-0.245,0.865-0.735l-0.303-0.13H59.793L59.793,48.099z M59.924,26.463c0.115,0.202,0.172,0.346,0.172,0.433
	c0.174,0,0.26-0.1,0.26-0.303v-0.39h-0.129C60.023,26.232,59.924,26.318,59.924,26.463z M59.924,37.151v0.26
	c0.172,0,0.375,0.101,0.605,0.303h0.563v-0.13c-0.115-0.288-0.404-0.433-0.865-0.433H59.924z M59.924,43.686v0.303h0.303
	C60.227,43.786,60.125,43.686,59.924,43.686z M60.529,29.449c0,0.287-0.145,0.433-0.434,0.433v0.13h0.434
	c0.174-0.088,0.303-0.13,0.389-0.13V29.62C60.832,29.623,60.703,29.563,60.529,29.449z M60.096,56.927v0.129h0.26v-0.129H60.096z
	 M60.227,27.458v0.173c0.115,0,0.26,0.043,0.432,0.129c0-0.259,0.145-0.548,0.434-0.865v-0.13h-0.174
	C60.803,26.766,60.572,26.997,60.227,27.458z M60.227,44.117v0.563c0.029,0.203,0.26,0.392,0.691,0.563v-0.691
	C60.918,44.377,60.688,44.233,60.227,44.117z M60.355,43.555v0.131c0.029,0.201,0.131,0.303,0.303,0.303v-0.174
	C60.658,43.642,60.559,43.555,60.355,43.555z M60.355,46.976v0.433c0.029,0.171,0.131,0.26,0.303,0.26v-0.692H60.355z
	 M60.529,58.053v0.172c0.145,0.375,0.273,0.563,0.389,0.563c0.203-0.087,0.348-0.13,0.434-0.13v-0.303
	c-0.145,0-0.332-0.1-0.563-0.302H60.529z M60.789,38.017c0,0.086-0.043,0.13-0.131,0.13c0.174,0.317,0.26,0.548,0.26,0.692h0.174
	v-0.563C61.092,38.103,60.99,38.017,60.789,38.017z M60.658,57.489v0.173c0.029,0.173,0.115,0.26,0.26,0.26v-0.13
	C60.918,57.59,60.832,57.489,60.658,57.489z M60.918,40.701v0.301c0.115,0,0.26,0.043,0.434,0.131l0.174-0.302v-0.13H60.918z
	 M61.092,25.338c0,0.144,0.145,0.287,0.434,0.433h0.691v-0.173c-0.23,0-0.461-0.086-0.691-0.259H61.092z M61.221,27.328l0.131,0.303
	c-0.174,0.03-0.26,0.115-0.26,0.259v0.131h0.129l0.305-0.131v0.131l-0.174,0.302h0.303c0.375-0.145,0.563-0.287,0.563-0.433
	c-0.174,0-0.461-0.188-0.865-0.563H61.221z M61.221,33.43l-0.129,0.606l0.26-0.172l0.865,0.172v-0.303
	C62.043,33.732,61.713,33.631,61.221,33.43z M61.092,47.536v0.692h0.691c0-0.317,0.059-0.548,0.174-0.692H61.092z M61.092,57.056
	c0,0.231,0.707,0.521,2.121,0.866l-0.26-0.433l0.26-0.13c0.088,0.173,0.131,0.317,0.131,0.433h0.301v-0.433
	c-0.287-0.462-0.619-0.692-0.994-0.692C61.611,56.725,61.092,56.854,61.092,57.056z M61.221,29.19v0.26
	c0.203,0,0.305-0.088,0.305-0.26H61.221z M62.52,39.444c-0.115,0.173-0.174,0.303-0.174,0.391h-0.129l-0.434-0.261h-0.129
	c-0.201,0.03-0.303,0.115-0.303,0.261c0.49,0.086,0.736,0.229,0.736,0.433c-0.203,0.029-0.305,0.13-0.305,0.301l0.305,0.433
	c0,0.174-0.188,0.262-0.563,0.262v0.303l0.258-0.131h0.174c0.086,0,0.131,0.043,0.131,0.131l0.258-0.131h0.607
	c0.172,0,0.26,0.131,0.26,0.391h0.303c0-0.375,0.088-0.563,0.26-0.563v-0.694C63.602,40.569,63.184,40.194,62.52,39.444z
	 M61.352,49.397l1.428,0.433h0.434v-0.174c-0.346,0-0.721-0.23-1.125-0.692C61.596,49.08,61.352,49.224,61.352,49.397z
	 M61.525,26.896c0.086,0.173,0.129,0.317,0.129,0.433h0.563C62.217,27.099,61.986,26.953,61.525,26.896z M61.654,29.319
	c0.088,0,0.23,0.042,0.434,0.13l0.865-0.13v-0.131c-0.203-0.229-0.303-0.417-0.303-0.563h-0.305
	C62.23,28.626,62,28.857,61.654,29.319z M61.957,29.751l-0.174,0.26l0.867-0.13v-0.13H61.957z M62.65,22.785
	c0,0.204-0.188,0.346-0.563,0.433l-0.131,0.261c0.086,0.202,0.131,0.345,0.131,0.433h0.563c0.115,0,0.303-0.23,0.563-0.694
	c-0.172,0-0.26-0.144-0.26-0.433H62.65z M61.957,53.248v0.261c0.201,0.491,0.477,0.736,0.822,0.736
	c-0.113-0.579-0.344-0.909-0.691-0.995h-0.131V53.248z M62.088,26.463h0.258c0.146,0,0.289-0.145,0.434-0.433l-0.26-0.13
	C62.375,25.9,62.23,26.088,62.088,26.463z M62.52,55.238v0.996h0.26l0.174-0.563c-0.115-0.204-0.174-0.347-0.174-0.434H62.52z
	 M62.779,60.042c0.031,0.202,0.131,0.303,0.303,0.303l0.262-0.131c0,0.088,0.057,0.131,0.172,0.131v-0.563h-0.172
	C63.111,59.955,62.924,60.042,62.779,60.042z M62.953,39.271v0.173c0.23,0.463,0.605,0.692,1.125,0.692v-0.13
	c-0.203-0.23-0.303-0.418-0.303-0.563l-0.26,0.13h-0.172L62.953,39.271z M64.078,46.411v0.433h-0.303v-0.302h-0.26l0.129,0.302
	c-0.086,0-0.129,0.044-0.129,0.132l-0.303-0.132h-0.26v0.391l0.691-0.129h0.693l-0.129-0.694H64.078z M63.213,48.229v0.433h0.303
	v-0.13C63.516,48.331,63.414,48.229,63.213,48.229z M63.342,37.281c0.172,0,0.375-0.188,0.604-0.563v-0.13h-0.17
	C63.572,36.588,63.428,36.821,63.342,37.281z M63.645,42.561v0.129l0.434-0.26l0.26,0.131v-0.303h-0.391
	C63.746,42.286,63.645,42.387,63.645,42.561z M63.947,44.983l0.131,0.259c-0.203,0.031-0.303,0.132-0.303,0.304
	c0.145,0,0.332,0.101,0.563,0.303h0.607c-0.289-0.317-0.434-0.606-0.434-0.865H63.947L63.947,44.983z M64.078,41.131l-0.131,0.563
	c0.23-0.173,0.418-0.261,0.564-0.261c0-0.202-0.102-0.303-0.303-0.303H64.078z M64.078,49.656l-0.131,0.304v0.433
	c0.463-0.116,0.693-0.26,0.693-0.433L64.078,49.656z M64.641,36.286c0,0.49-0.188,0.735-0.564,0.735v0.26
	c0.434,0,0.809-0.289,1.127-0.865v-0.13H64.641z M65.332,46.976v0.13c0,0.144,0.203,0.331,0.605,0.563h0.131
	c-0.26-0.464-0.447-0.692-0.563-0.692H65.332z M66.328,45.849c0,0.26-0.131,0.391-0.391,0.391c0.029,0.202,0.115,0.302,0.26,0.302
	h0.131l0.734-0.13C67.006,46.209,66.76,46.021,66.328,45.849z M67.625,46.669h0.131c0.203,0.03,0.303,0.132,0.303,0.304l-0.303,0.13
	l-0.131-0.26V46.669z"/>
</svg>
