<?xml version="1.0" encoding="utf-8"?>
<!-- Generator: Adobe Illustrator 16.0.0, SVG Export Plug-In . SVG Version: 6.00 Build 0)  -->
<!DOCTYPE svg PUBLIC "-//W3C//DTD SVG 1.1//EN" "http://www.w3.org/Graphics/SVG/1.1/DTD/svg11.dtd">
<svg version="1.1" id="Camada_2" xmlns="http://www.w3.org/2000/svg" xmlns:xlink="http://www.w3.org/1999/xlink" x="0px" y="0px"
	 width="32px" height="29px" viewBox="0 0 32 29" enable-background="new 0 0 32 29" xml:space="preserve">
<path fill="#FFFFFF" stroke="#000000" stroke-width="2" stroke-miterlimit="10" d="M12.927,4.082
	c2.179-2.18,5.394-3.687,7.021-2.059c1.627,1.628,1.044,4.36-1.136,6.54c-2.181,2.179-5.135,2.981-6.762,1.354
	C10.424,8.289,10.746,6.26,12.927,4.082z"/>
<path fill="#FFFFFF" stroke="#000000" stroke-width="2" stroke-miterlimit="10" d="M9.71,25.101
	c-1.958,2.381-4.987,3.127-6.764,1.665C1.169,25.304,1.667,22.381,3.625,20s4.638-3.319,6.415-1.857
	C11.817,19.604,11.669,22.72,9.71,25.101z"/>
<path fill="#FFFFFF" stroke="#000000" stroke-width="2" stroke-miterlimit="10" d="M28.875,19.75c2.047,2.675,1.996,5.347,0,6.875
	c-1.997,1.527-4.864,1.008-6.912-1.669c-2.048-2.674-2.088-6.082-0.093-7.608C23.867,15.818,26.827,17.075,28.875,19.75z"/>
<path fill="#FFFFFF" stroke="#000000" stroke-width="2" stroke-miterlimit="10" d="M23.438,11.438
	c1.409,2.741,1.731,5.771-0.316,6.822c-2.048,1.051-4.85-0.321-6.258-3.063c-1.408-2.743-0.889-5.819,1.158-6.87
	C20.068,7.275,22.03,8.694,23.438,11.438z"/>
<path fill="#FFFFFF" stroke="#000000" stroke-width="2" stroke-miterlimit="10" d="M14.188,16.611
	c-1.958,2.381-5.138,3.183-6.915,1.721c-1.777-1.462-0.606-3.889,1.352-6.27s4.427-3.336,6.204-1.874S16.146,14.23,14.188,16.611z"
	/>
<path fill="#FFFFFF" stroke="#000000" stroke-width="2" stroke-miterlimit="10" d="M20.042,21.845
	c0.539,3.035-0.86,5.823-3.126,6.226s-4.54-1.733-5.079-4.769s-0.073-6.421,3.126-7.226C18.25,15.25,19.503,18.81,20.042,21.845z"/>
</svg>
