<?xml version="1.0" encoding="utf-8"?>
<!-- Generator: Adobe Illustrator 16.0.0, SVG Export Plug-In . SVG Version: 6.00 Build 0)  -->
<!DOCTYPE svg PUBLIC "-//W3C//DTD SVG 1.1//EN" "http://www.w3.org/Graphics/SVG/1.1/DTD/svg11.dtd">
<svg version="1.1" id="Camada_2" xmlns="http://www.w3.org/2000/svg" xmlns:xlink="http://www.w3.org/1999/xlink" x="0px" y="0px"
	 width="147px" height="58px" viewBox="0 0 147 58" enable-background="new 0 0 147 58" xml:space="preserve">
<polyline fill="none" stroke="#000000" stroke-width="2" stroke-miterlimit="10" points="31.333,17.333 39.333,38.5 49.667,32.167 
	37.482,9.258 31.333,17.333 13.833,17.333 2.167,38.5 39.333,38.5 "/>
<polyline fill="none" stroke="#000000" stroke-width="2" stroke-miterlimit="10" points="13.833,17.333 22.75,8.833 37.667,8.833 
	"/>
<g enable-background="new    ">
	<path d="M8.873,44.582h3.707v11.971H8.873V44.582z"/>
	<path d="M21.251,52.217v-2.49h5.716v5.104c-1.094,0.746-2.062,1.253-2.903,1.522c-0.841,0.27-1.839,0.404-2.993,0.404
		c-1.421,0-2.579-0.242-3.474-0.727c-0.896-0.484-1.59-1.206-2.083-2.164s-0.739-2.058-0.739-3.299c0-1.307,0.27-2.442,0.808-3.409
		c0.539-0.966,1.328-1.699,2.368-2.2c0.811-0.387,1.902-0.58,3.274-0.58c1.323,0,2.312,0.12,2.968,0.359
		c0.656,0.24,1.201,0.611,1.633,1.115c0.433,0.503,0.758,1.142,0.976,1.914l-3.568,0.637c-0.147-0.451-0.396-0.797-0.747-1.036
		c-0.351-0.24-0.799-0.359-1.343-0.359c-0.811,0-1.458,0.281-1.939,0.845c-0.482,0.563-0.723,1.455-0.723,2.674
		c0,1.296,0.244,2.222,0.731,2.776c0.487,0.556,1.166,0.833,2.037,0.833c0.414,0,0.808-0.06,1.184-0.18
		c0.375-0.119,0.805-0.323,1.29-0.612v-1.127H21.251z"/>
	<path d="M29.188,44.582h3.454l4.507,6.623v-6.623h3.486v11.971h-3.486l-4.483-6.572v6.572h-3.478V44.582z"/>
</g>
<rect x="95.25" y="18.5" fill="none" stroke="#000000" stroke-width="3" stroke-miterlimit="10" width="50.25" height="38.053"/>
<line fill="none" stroke="#000000" stroke-width="3" stroke-miterlimit="10" x1="125.25" y1="18.5" x2="125.25" y2="56.553"/>
<path fill="none" stroke="#000000" stroke-width="2" stroke-miterlimit="10" d="M112,1.25c0,0,13.5,0,19.5,0
	c10.25,0,14,17.25,14,17.25"/>
<path fill="none" stroke="#000000" stroke-width="2" stroke-miterlimit="10" d="M95.25,17.125c0-8.768,6.689-15.875,14.941-15.875
	c8.25,0,14.939,7.107,14.939,15.875"/>
</svg>
