<?xml version="1.0" encoding="utf-8"?>
<!-- Generator: Adobe Illustrator 16.0.0, SVG Export Plug-In . SVG Version: 6.00 Build 0)  -->
<!DOCTYPE svg PUBLIC "-//W3C//DTD SVG 1.1//EN" "http://www.w3.org/Graphics/SVG/1.1/DTD/svg11.dtd">
<svg version="1.1" id="Camada_2" xmlns="http://www.w3.org/2000/svg" xmlns:xlink="http://www.w3.org/1999/xlink" x="0px" y="0px"
	 width="167px" height="73px" viewBox="0 0 167 73" enable-background="new 0 0 167 73" xml:space="preserve">
<ellipse fill="none" stroke="#000000" stroke-width="6" stroke-miterlimit="10" cx="39.5" cy="37" rx="36" ry="32"/>
<g enable-background="new    ">
	<path d="M22.898,25.603h14.373v4.83h-9.735l-0.521,3.27c0.674-0.316,1.34-0.555,1.999-0.713c0.659-0.158,1.311-0.238,1.955-0.238
		c2.18,0,3.949,0.659,5.306,1.978c1.357,1.317,2.037,2.978,2.037,4.979c0,1.407-0.35,2.76-1.048,4.058
		c-0.699,1.299-1.69,2.289-2.973,2.973c-1.284,0.684-2.926,1.025-4.927,1.025c-1.437,0-2.668-0.136-3.693-0.408
		c-1.026-0.272-1.898-0.679-2.616-1.219s-1.3-1.152-1.747-1.836c-0.446-0.684-0.817-1.535-1.115-2.557l6.124-0.668
		c0.148,0.98,0.495,1.727,1.04,2.236c0.545,0.511,1.194,0.766,1.947,0.766c0.842,0,1.539-0.319,2.088-0.959
		c0.55-0.639,0.825-1.593,0.825-2.861c0-1.298-0.277-2.249-0.832-2.854c-0.555-0.604-1.293-0.906-2.215-0.906
		c-0.585,0-1.149,0.144-1.694,0.431c-0.406,0.208-0.853,0.585-1.338,1.13l-5.157-0.743L22.898,25.603z"/>
	<path d="M40.749,36.407c0-4.142,0.746-7.04,2.237-8.694c1.491-1.655,3.763-2.482,6.815-2.482c1.466,0,2.67,0.181,3.612,0.543
		c0.941,0.361,1.709,0.832,2.304,1.412c0.594,0.579,1.063,1.188,1.404,1.828c0.342,0.639,0.617,1.385,0.825,2.236
		c0.406,1.625,0.609,3.319,0.609,5.083c0,3.954-0.669,6.848-2.007,8.681c-1.337,1.833-3.641,2.749-6.911,2.749
		c-1.833,0-3.314-0.292-4.444-0.876c-1.129-0.585-2.056-1.442-2.779-2.572c-0.525-0.802-0.934-1.899-1.226-3.292
		C40.895,39.631,40.749,38.093,40.749,36.407z M46.754,36.423c0,2.774,0.245,4.669,0.735,5.685c0.491,1.017,1.202,1.523,2.133,1.523
		c0.614,0,1.146-0.215,1.598-0.646c0.451-0.431,0.783-1.112,0.996-2.043c0.213-0.932,0.32-2.384,0.32-4.355
		c0-2.894-0.246-4.838-0.736-5.834c-0.491-0.995-1.226-1.493-2.207-1.493c-1.001,0-1.724,0.508-2.17,1.523
		C46.977,31.798,46.754,33.678,46.754,36.423z"/>
</g>
<ellipse fill="none" stroke="#000000" stroke-width="6" stroke-miterlimit="10" cx="128.5" cy="37" rx="36" ry="32"/>
<g enable-background="new    ">
	<path d="M109.55,25.603h17.673v4.087c-1.537,1.388-2.82,2.889-3.85,4.504c-1.249,1.962-2.234,4.146-2.958,6.555
		c-0.575,1.872-0.962,4.087-1.159,6.644h-6.035c0.477-3.558,1.225-6.54,2.244-8.947c1.021-2.408,2.637-4.984,4.846-7.729H109.55
		V25.603z"/>
	<path d="M129.749,36.407c0-4.142,0.745-7.04,2.237-8.694c1.49-1.655,3.762-2.482,6.814-2.482c1.467,0,2.67,0.181,3.611,0.543
		c0.941,0.361,1.709,0.832,2.305,1.412c0.594,0.579,1.063,1.188,1.404,1.828c0.342,0.639,0.617,1.385,0.824,2.236
		c0.406,1.625,0.609,3.319,0.609,5.083c0,3.954-0.668,6.848-2.006,8.681s-3.642,2.749-6.912,2.749c-1.833,0-3.314-0.292-4.443-0.876
		c-1.13-0.585-2.057-1.442-2.779-2.572c-0.525-0.802-0.935-1.899-1.227-3.292C129.895,39.631,129.749,38.093,129.749,36.407z
		 M135.754,36.423c0,2.774,0.245,4.669,0.735,5.685c0.491,1.017,1.202,1.523,2.134,1.523c0.613,0,1.146-0.215,1.598-0.646
		c0.45-0.431,0.782-1.112,0.995-2.043c0.213-0.932,0.319-2.384,0.319-4.355c0-2.894-0.245-4.838-0.735-5.834
		c-0.491-0.995-1.226-1.493-2.207-1.493c-1.001,0-1.724,0.508-2.171,1.523C135.977,31.798,135.754,33.678,135.754,36.423z"/>
</g>
</svg>
