<?xml version="1.0" encoding="utf-8"?>
<!-- Generator: Adobe Illustrator 16.0.0, SVG Export Plug-In . SVG Version: 6.00 Build 0)  -->
<!DOCTYPE svg PUBLIC "-//W3C//DTD SVG 1.1//EN" "http://www.w3.org/Graphics/SVG/1.1/DTD/svg11.dtd">
<svg version="1.1" id="Camada_2" xmlns="http://www.w3.org/2000/svg" xmlns:xlink="http://www.w3.org/1999/xlink" x="0px" y="0px"
	 width="59px" height="88px" viewBox="0 0 59 88" enable-background="new 0 0 59 88" xml:space="preserve">
<rect x="21.75" y="73.125" width="3.125" height="1.5"/>
<rect x="31.25" y="69" width="1.875" height="1.875"/>
<rect x="21.75" y="82.125" width="3.125" height="3.125"/>
<rect x="41.031" y="83" width="2.875" height="1.938"/>
<rect x="52.875" y="62" width="4" height="1.875"/>
<rect x="55.375" y="69.938" width="2.5" height="1.688"/>
<rect x="42.047" y="81.984" width="1.016" height="1.016"/>
<rect x="51.063" y="78.063" width="2.813" height="0.938"/>
<rect x="51.938" y="77" width="1.063" height="1.063"/>
<rect x="53.875" y="83" width="3" height="3"/>
<rect x="53.875" y="85.563" width="1.313" height="1.313"/>
<rect x="30.984" y="78.977" width="4" height="0.938"/>
<rect x="32.047" y="77.961" width="0.938" height="2.969"/>
<path d="M29.5,26c0,0,0,1.542,0,2.833c0,3.167,3.416,6,6.333,11.833s3.251,29.917,3.834,32.458s9.5,1.622,9.5,0s0.292-2.5-1-11.125
	s-4.792-13.521-5.917-16.813s-1.487-4.303-1.988-5.465c-0.415-0.962-2.236-3.813-3.236-5.379c-1.207-1.889-3.838-4.156-3.9-6.177
	c-0.034-1.104,0-2.167,0-2.167H29.5z"/>
<path d="M27,16.833c0,0-5.087-4.161-7-5.208c-1.396-0.765-4.468-1.696-6-2.125C10.867,8.623,1.5,7.333,1.167,11.667s1.333,6,1.333,6
	s1.417-3.083,5.583-3.167s6.625,0.938,10.583,2s5.5,2.667,5.5,2.667s-2.667-2-8.167-1.333s-9.875,8-10.083,11.25
	s1.708,6.292,1.708,6.292s0.042-3.625,2.032-6.876c1.976-3.228,6.093-4.916,8.677-5.999s4-0.5,4-0.5S18.125,24.5,16,27
	s-2.167,4.5-3.125,9.5s4.875,12.875,4.875,12.875s-0.625-8.917,1.625-12s0.917-3.542,1.958-5.208s3.167-2.125,5.042-3.417
	S29.5,26,29.5,26h3.625c0,0,1.676,0.358,6.223,0.875c4.402,0.5,12.694,10.042,14.277,13s1.5-12.375-4.955-14.802
	c-3.808-1.432-8.753-2.989-11.17-4.239s-2.666-2.167-2.666-2.167s1.501-0.927,4.514-1.333C42.75,16.875,44.75,17.5,44.75,17.5
	s7.584,1.417,8.917,2.333s-2.917-3.417-5.667-5S45.918,13.5,41.834,13s-10.219,4.45-10.219,4.45s1.135-7.367,8.969-11.2
	C44.289,4.437,51.5,4.417,51.5,4.417s-3.873-1.935-7.625-1.792c-3.482,0.133-4.708,0.625-6.958,1.708s-8,4.833-9.333,6.5
	S27,16.833,27,16.833z"/>
<rect x="37.875" y="72.5" width="6.031" height="1.375"/>
<rect x="45.625" y="67.25" width="5.438" height="5.25"/>
</svg>
