<?xml version="1.0" encoding="utf-8"?>
<!-- Generator: Adobe Illustrator 16.0.0, SVG Export Plug-In . SVG Version: 6.00 Build 0)  -->
<!DOCTYPE svg PUBLIC "-//W3C//DTD SVG 1.1//EN" "http://www.w3.org/Graphics/SVG/1.1/DTD/svg11.dtd">
<svg version="1.1" id="Camada_2" xmlns="http://www.w3.org/2000/svg" xmlns:xlink="http://www.w3.org/1999/xlink" x="0px" y="0px"
	 width="134px" height="82px" viewBox="0 0 134 82" enable-background="new 0 0 134 82" xml:space="preserve">
<line fill="none" stroke="#000000" stroke-width="2" stroke-miterlimit="10" x1="2" y1="78.667" x2="13.604" y2="32.898"/>
<line fill="none" stroke="#000000" stroke-width="2" stroke-miterlimit="10" x1="29" y1="36.188" x2="29" y2="82"/>
<line fill="none" stroke="#000000" stroke-width="2" stroke-miterlimit="10" x1="43.355" y1="32.698" x2="55.333" y2="78.667"/>
<ellipse fill="none" stroke="#000000" stroke-width="2" stroke-miterlimit="10" cx="28.333" cy="8.833" rx="17.667" ry="7.833"/>
<path fill="none" stroke="#000000" stroke-width="2" stroke-miterlimit="10" d="M46,28.573c0,4.327-7.91,7.833-17.667,7.833
	S10.667,32.9,10.667,28.573"/>
<line fill="none" stroke="#000000" stroke-width="2" stroke-miterlimit="10" x1="46" y1="28.573" x2="46" y2="8.833"/>
<line fill="none" stroke="#000000" stroke-width="2" stroke-miterlimit="10" x1="10.667" y1="28.573" x2="10.667" y2="8.833"/>
<ellipse fill="none" stroke="#000000" stroke-width="2" stroke-miterlimit="10" cx="117.359" cy="8.854" rx="15.458" ry="6.854"/>
<path fill="none" stroke="#000000" stroke-width="2" stroke-miterlimit="10" d="M101.901,8.854v19.272
	c0,3.786,6.921,6.854,15.459,6.854c8.536,0,15.457-3.068,15.457-6.854V8.854"/>
<path fill="none" stroke="#000000" stroke-width="2" stroke-miterlimit="10" d="M104.25,31.652v39.536
	c0,3.64,6.171,6.591,13.784,6.591c7.612,0,13.783-2.951,13.783-6.591V30.576"/>
</svg>
