<?xml version="1.0" encoding="utf-8"?>
<!-- Generator: Adobe Illustrator 16.0.0, SVG Export Plug-In . SVG Version: 6.00 Build 0)  -->
<!DOCTYPE svg PUBLIC "-//W3C//DTD SVG 1.1//EN" "http://www.w3.org/Graphics/SVG/1.1/DTD/svg11.dtd">
<svg version="1.1" id="Camada_2" xmlns="http://www.w3.org/2000/svg" xmlns:xlink="http://www.w3.org/1999/xlink" x="0px" y="0px"
	 width="141px" height="23px" viewBox="0 0 141 23" enable-background="new 0 0 141 23" xml:space="preserve">
<polygon points="4.083,23 4.083,15 5.984,15 5.984,14 3.083,14 3.083,1 4,1 4,0 0,0 0,23 "/>
<polygon points="136.916,23 136.916,15 135.016,15 135.016,14 137.916,14 137.916,1 137,1 137,0 141,0 141,23 "/>
<rect x="9" y="14.969" width="3.021" height="0.969"/>
<rect x="5.063" y="1.031" width="8.938" height="0.969"/>
<rect x="9" width="2.969" height="1.25"/>
<polygon points="21,23 21,15 22.901,15 22.901,14 20,14 20,1 20.969,1 20.969,0 18.031,0 18.031,0.938 18.917,0.938 18.917,14 
	14.042,14 14.042,14.984 18,14.992 18,23 "/>
<rect x="25.917" y="14.969" width="3.021" height="0.969"/>
<rect x="21.979" y="1.031" width="8.938" height="0.969"/>
<rect x="25.917" width="1.083" height="1.25"/>
<rect x="28.011" width="1.083" height="1.25"/>
<polygon points="38.985,23 38.985,15 40.886,15 40.886,14 37.985,14 37.985,1 38.954,1 38.954,0 35.062,0 35.062,0.938 
	35.948,0.938 35.948,14 31.072,14 31.072,14.984 35.031,14.992 35.031,23 "/>
<rect x="42.792" y="14.969" width="3.021" height="0.969"/>
<polygon points="55.893,23 55.893,15 57.406,15 57.406,14 54.893,14 54.893,1 55.969,1 55.969,0 51.97,0 51.97,0.938 52.855,0.938 
	52.855,14 49,14 49,14.984 51.939,14.992 51.938,23 "/>
<polygon points="72.987,23 72.987,15 74.5,15 74.5,14 71.987,14 71.987,1 73.063,1 73.063,0 69.064,0 69.064,0.938 69.949,0.938 
	69.949,14 66.094,14 66.094,14.984 69.033,14.992 69.033,23 "/>
<polygon points="89.681,23 89.681,15 91.193,15 91.193,14 88.681,14 88.681,1 89.756,1 89.756,0 85.758,0 85.758,0.938 
	86.643,0.938 86.643,14 82.787,14 82.787,14.984 85.727,14.992 85.727,23 "/>
<polygon points="107.598,23 107.598,15 109.11,15 109.11,14 106.598,14 106.598,1 107.673,1 107.673,0 103.675,0 103.675,0.938 
	104.56,0.938 104.56,14 99.704,14 99.704,14.984 103.644,14.992 103.644,23 "/>
<polygon points="125.015,23 125.015,15 126.527,15 126.527,14 124.015,14 124.015,1 125.09,1 125.09,0 121.092,0 121.092,0.938 
	121.977,0.938 121.977,14 117.121,14 117.121,14.984 121.061,14.992 121.061,23 "/>
<rect x="59.7" y="14.969" width="4.383" height="0.969"/>
<rect x="77.85" y="14.969" width="2.969" height="0.969"/>
<rect x="95.016" y="14.969" width="2.969" height="0.969"/>
<rect x="111.85" y="14.969" width="2.969" height="0.969"/>
<rect x="129.016" y="14.969" width="4.067" height="0.969"/>
<rect x="39.042" y="1.031" width="8.938" height="0.969"/>
<rect x="43.042" width="2.969" height="1.25"/>
<rect x="56.742" y="1.031" width="8.938" height="0.969"/>
<rect x="60.742" width="2.969" height="1.25"/>
<rect x="73.85" y="1.031" width="8.938" height="0.969"/>
<rect x="77.85" width="2.969" height="1.25"/>
<rect x="107.85" y="1.031" width="8.938" height="0.969"/>
<rect x="111.85" width="2.969" height="1.25"/>
<rect x="125.35" y="1.031" width="8.938" height="0.969"/>
<rect x="129.35" width="2.969" height="1.25"/>
<rect x="91.016" y="1.031" width="8.938" height="0.969"/>
<rect x="95.016" width="1.078" height="1.25"/>
<rect x="96.953" width="1.078" height="1.25"/>
</svg>
