<?xml version="1.0" encoding="utf-8"?>
<!-- Generator: Adobe Illustrator 16.0.0, SVG Export Plug-In . SVG Version: 6.00 Build 0)  -->
<!DOCTYPE svg PUBLIC "-//W3C//DTD SVG 1.1//EN" "http://www.w3.org/Graphics/SVG/1.1/DTD/svg11.dtd">
<svg version="1.1" id="Camada_2" xmlns="http://www.w3.org/2000/svg" xmlns:xlink="http://www.w3.org/1999/xlink" x="0px" y="0px"
	 width="146px" height="79px" viewBox="0 0 146 79" enable-background="new 0 0 146 79" xml:space="preserve">
<g>
	<line fill="none" stroke="#000000" stroke-width="2" stroke-miterlimit="10" x1="19.5" y1="51.5" x2="18.625" y2="37"/>
	<polyline fill="none" stroke="#000000" stroke-width="2" stroke-miterlimit="10" points="7,37 18,51.5 21.25,51.5 28.875,39.5 	"/>
</g>
<g>
	<line fill="none" stroke="#000000" stroke-width="2" stroke-miterlimit="10" x1="56.647" y1="33.715" x2="55.772" y2="19.215"/>
	<polyline fill="none" stroke="#000000" stroke-width="2" stroke-miterlimit="10" points="44.147,19.215 55.147,33.715 
		58.397,33.715 66.022,21.715 	"/>
</g>
<g>
	<line fill="none" stroke="#000000" stroke-width="2" stroke-miterlimit="10" x1="60.842" y1="66" x2="59.967" y2="51.5"/>
	<polyline fill="none" stroke="#000000" stroke-width="2" stroke-miterlimit="10" points="48.342,51.5 59.342,66 62.592,66 
		70.217,54 	"/>
</g>
<g>
	<line fill="none" stroke="#000000" stroke-width="2" stroke-miterlimit="10" x1="96.583" y1="47.965" x2="97.244" y2="37"/>
	<polyline fill="none" stroke="#000000" stroke-width="2" stroke-miterlimit="10" points="106.035,37 97.717,47.965 95.26,47.965 
		89.493,38.891 	"/>
</g>
<g>
	<line fill="none" stroke="#000000" stroke-width="2" stroke-miterlimit="10" x1="128.598" y1="40.976" x2="129.259" y2="30.011"/>
	<polyline fill="none" stroke="#000000" stroke-width="2" stroke-miterlimit="10" points="138.05,30.011 129.731,40.976 
		127.274,40.976 121.508,31.901 	"/>
</g>
<g>
	<line fill="none" stroke="#000000" stroke-width="2" stroke-miterlimit="10" x1="117.681" y1="64.232" x2="118.342" y2="53.268"/>
	<polyline fill="none" stroke="#000000" stroke-width="2" stroke-miterlimit="10" points="127.133,53.268 118.814,64.232 
		116.357,64.232 110.591,55.158 	"/>
</g>
<g>
	<line fill="none" stroke="#000000" stroke-width="2" stroke-miterlimit="10" x1="96.395" y1="24.697" x2="95.733" y2="13.732"/>
	<polyline fill="none" stroke="#000000" stroke-width="2" stroke-miterlimit="10" points="86.942,13.732 95.261,24.697 
		97.718,24.697 103.484,15.623 	"/>
</g>
<g>
	<line fill="none" stroke="#000000" stroke-width="2" stroke-miterlimit="10" x1="90.675" y1="74.57" x2="90.014" y2="63.605"/>
	<polyline fill="none" stroke="#000000" stroke-width="2" stroke-miterlimit="10" points="81.223,63.605 89.541,74.57 91.998,74.57 
		97.765,65.496 	"/>
</g>
<g>
	<line fill="none" stroke="#000000" stroke-width="2" stroke-miterlimit="10" x1="31.501" y1="69.087" x2="31.023" y2="61.159"/>
	<polyline fill="none" stroke="#000000" stroke-width="2" stroke-miterlimit="10" points="24.667,61.159 30.682,69.087 
		32.458,69.087 36.627,62.525 	"/>
</g>
<g>
	<line fill="none" stroke="#000000" stroke-width="2" stroke-miterlimit="10" x1="18.792" y1="27.143" x2="18.313" y2="19.215"/>
	<polyline fill="none" stroke="#000000" stroke-width="2" stroke-miterlimit="10" points="11.957,19.215 17.972,27.143 
		19.748,27.143 23.917,20.581 	"/>
</g>
<g>
	<line fill="none" stroke="#000000" stroke-width="2" stroke-miterlimit="10" x1="54.154" y1="11.65" x2="53.675" y2="3.722"/>
	<polyline fill="none" stroke="#000000" stroke-width="2" stroke-miterlimit="10" points="47.319,3.722 53.334,11.65 55.11,11.65 
		59.28,5.088 	"/>
</g>
</svg>
