<?xml version="1.0" encoding="utf-8"?>
<!-- Generator: Adobe Illustrator 16.0.0, SVG Export Plug-In . SVG Version: 6.00 Build 0)  -->
<!DOCTYPE svg PUBLIC "-//W3C//DTD SVG 1.1//EN" "http://www.w3.org/Graphics/SVG/1.1/DTD/svg11.dtd">
<svg version="1.1" id="Camada_2" xmlns="http://www.w3.org/2000/svg" xmlns:xlink="http://www.w3.org/1999/xlink" x="0px" y="0px"
	 width="105px" height="54px" viewBox="0 0 105 54" enable-background="new 0 0 105 54" xml:space="preserve">
<path fill="none" stroke="#000000" stroke-width="2" stroke-miterlimit="10" d="M32.75,2.5c-7.583,3.167-31,0.333-31,17
	s0,4.167,0,11s9.188,11.4,13.271,11.4s18.479,0,18.479,0"/>
<line fill="none" stroke="#000000" stroke-miterlimit="10" x1="31.514" y1="2.922" x2="31.514" y2="9.5"/>
<line fill="none" stroke="#000000" stroke-miterlimit="10" x1="28.583" y1="4.172" x2="28.583" y2="10.125"/>
<line fill="none" stroke="#000000" stroke-miterlimit="10" x1="22.5" y1="4.095" x2="22.5" y2="10.672"/>
<line fill="none" stroke="#000000" stroke-miterlimit="10" x1="19.569" y1="5.345" x2="19.569" y2="11.922"/>
<line fill="none" stroke="#000000" stroke-miterlimit="10" x1="16.5" y1="5.845" x2="16.5" y2="12.422"/>
<line fill="none" stroke="#000000" stroke-miterlimit="10" x1="12.583" y1="7.384" x2="12.583" y2="14.583"/>
<line fill="none" stroke="#000000" stroke-miterlimit="10" x1="9.5" y1="7.961" x2="9.5" y2="16.022"/>
<line fill="none" stroke="#000000" stroke-miterlimit="10" x1="6.5" y1="9.5" x2="6.5" y2="16.563"/>
<line fill="none" stroke="#000000" stroke-miterlimit="10" x1="25" y1="4.672" x2="25" y2="10.672"/>
<line fill="none" stroke="#000000" stroke-miterlimit="10" x1="30.5" y1="41.9" x2="30.5" y2="35.167"/>
<line fill="none" stroke="#000000" stroke-miterlimit="10" x1="26.417" y1="35.167" x2="26.417" y2="41.5"/>
<line fill="none" stroke="#000000" stroke-miterlimit="10" x1="23.375" y1="35.167" x2="23.375" y2="41"/>
<line fill="none" stroke="#000000" stroke-miterlimit="10" x1="20.333" y1="35.167" x2="20.333" y2="41.9"/>
<line fill="none" stroke="#000000" stroke-miterlimit="10" x1="16.5" y1="35.167" x2="16.5" y2="41.5"/>
<line fill="none" stroke="#000000" stroke-miterlimit="10" x1="12.583" y1="34.167" x2="12.583" y2="40.75"/>
<line fill="none" stroke="#000000" stroke-miterlimit="10" x1="8.417" y1="32.417" x2="8.417" y2="39.084"/>
<line fill="none" stroke="#000000" stroke-miterlimit="10" x1="6.5" y1="30.75" x2="3.75" y2="35.75"/>
<line fill="none" stroke="#000000" stroke-miterlimit="10" x1="5.125" y1="27.831" x2="1.75" y2="28.081"/>
<line fill="none" stroke="#000000" stroke-miterlimit="10" x1="6" y1="22.583" x2="1.95" y2="16.978"/>
<line fill="none" stroke="#000000" stroke-miterlimit="10" x1="5.852" y1="17.64" x2="3.75" y2="13.083"/>
<line fill="none" stroke="#000000" stroke-miterlimit="10" x1="5.125" y1="25.063" x2="1.75" y2="24.358"/>
<path fill="none" stroke="#000000" stroke-width="2" stroke-miterlimit="10" d="M73.416,0.825
	c0.377,2.375,0.502,26.995,1.381,34.342s3.893,16.891,13.562,17.393s13.051-10.466,13.31-15.101s1.131-32.992,2.01-36.006"/>
<line fill="none" stroke="#000000" stroke-miterlimit="10" x1="73.416" y1="4.095" x2="78.815" y2="4.095"/>
<line fill="none" stroke="#000000" stroke-miterlimit="10" x1="74.249" y1="8.917" x2="79.648" y2="8.917"/>
<line fill="none" stroke="#000000" stroke-miterlimit="10" x1="74.249" y1="14" x2="79.648" y2="14"/>
<line fill="none" stroke="#000000" stroke-miterlimit="10" x1="74.249" y1="17.917" x2="79.648" y2="17.917"/>
<line fill="none" stroke="#000000" stroke-miterlimit="10" x1="74.249" y1="22.917" x2="79.648" y2="22.917"/>
<line fill="none" stroke="#000000" stroke-miterlimit="10" x1="74.249" y1="28" x2="79.648" y2="28"/>
<line fill="none" stroke="#000000" stroke-miterlimit="10" x1="75.434" y1="34" x2="80.833" y2="33.5"/>
<line fill="none" stroke="#000000" stroke-miterlimit="10" x1="76.022" y1="39.146" x2="82" y2="38"/>
<line fill="none" stroke="#000000" stroke-miterlimit="10" x1="83.75" y1="42.083" x2="79.012" y2="46.083"/>
<line fill="none" stroke="#000000" stroke-miterlimit="10" x1="86.75" y1="45.25" x2="82.75" y2="50.25"/>
<line fill="none" stroke="#000000" stroke-miterlimit="10" x1="89" y1="47" x2="89" y2="52.574"/>
<line fill="none" stroke="#000000" stroke-miterlimit="10" x1="92" y1="45.25" x2="96.25" y2="48.917"/>
<line fill="none" stroke="#000000" stroke-miterlimit="10" x1="94.125" y1="40.75" x2="100.764" y2="42.083"/>
<line fill="none" stroke="#000000" stroke-miterlimit="10" x1="95.084" y1="35.083" x2="101.773" y2="35.168"/>
<line fill="none" stroke="#000000" stroke-miterlimit="10" x1="96.25" y1="28" x2="102.071" y2="28"/>
<line fill="none" stroke="#000000" stroke-miterlimit="10" x1="96.917" y1="21.75" x2="102.321" y2="21.75"/>
<line fill="none" stroke="#000000" stroke-miterlimit="10" x1="97.444" y1="14" x2="102.67" y2="14"/>
<line fill="none" stroke="#000000" stroke-miterlimit="10" x1="97.444" y1="7.148" x2="103.048" y2="7.425"/>
</svg>
