<?xml version="1.0" encoding="utf-8"?>
<!-- Generator: Adobe Illustrator 16.0.0, SVG Export Plug-In . SVG Version: 6.00 Build 0)  -->
<!DOCTYPE svg PUBLIC "-//W3C//DTD SVG 1.1//EN" "http://www.w3.org/Graphics/SVG/1.1/DTD/svg11.dtd">
<svg version="1.1" id="Camada_2" xmlns="http://www.w3.org/2000/svg" xmlns:xlink="http://www.w3.org/1999/xlink" x="0px" y="0px"
	 width="75px" height="69px" viewBox="0 0 75 69" enable-background="new 0 0 75 69" xml:space="preserve">
<polygon points="31.167,18.167 35.417,22.333 37,20.568 33,15.333 37.5,14.167 45,6.333 49.667,6.333 68.5,22 68.5,24.333 
	61.667,33 61.834,35.667 60.334,37.167 55.584,34.333 53.834,36.083 57.834,39.833 49,49.333 44.667,49.333 43.146,48.021 
	47.334,42.5 37.5,33.667 34.167,34.5 33.667,31 31.167,29.167 27.028,33.464 21.778,28.947 "/>
<rect x="1" fill="none" stroke="#000000" stroke-width="2" stroke-miterlimit="10" width="73" height="69"/>
<path d="M10,22v41h57.667c0,0-14.166-8.333-18.333-11s-7.498-4.726-9.626-6.227S33.5,41.834,28.333,35C23.167,28.167,10,22,10,22z"
	/>
<polygon fill="#FFFFFF" points="40.834,14.625 47.125,8.25 65.9,23.734 60,30.5 "/>
</svg>
