<?xml version="1.0" encoding="utf-8"?>
<!-- Generator: Adobe Illustrator 16.0.0, SVG Export Plug-In . SVG Version: 6.00 Build 0)  -->
<!DOCTYPE svg PUBLIC "-//W3C//DTD SVG 1.1//EN" "http://www.w3.org/Graphics/SVG/1.1/DTD/svg11.dtd">
<svg version="1.1" id="Camada_2" xmlns="http://www.w3.org/2000/svg" xmlns:xlink="http://www.w3.org/1999/xlink" x="0px" y="0px"
	 width="139px" height="16px" viewBox="0 0 139 16" enable-background="new 0 0 139 16" xml:space="preserve">
<line fill="none" stroke="#000000" stroke-width="4" stroke-miterlimit="10" x1="0" y1="8.563" x2="139" y2="8.563"/>
<g>
	<line fill="none" stroke="#000000" stroke-width="2" stroke-miterlimit="10" x1="69.5" y1="0" x2="69.5" y2="16"/>
	<line fill="none" stroke="#000000" stroke-width="2" stroke-miterlimit="10" x1="59.75" y1="2.031" x2="79.25" y2="13.969"/>
	<line fill="none" stroke="#000000" stroke-width="2" stroke-miterlimit="10" x1="79.25" y1="2.031" x2="59.75" y2="13.969"/>
</g>
<g>
	<line fill="none" stroke="#000000" stroke-width="2" stroke-miterlimit="10" x1="45" y1="0" x2="45" y2="16"/>
	<line fill="none" stroke="#000000" stroke-width="2" stroke-miterlimit="10" x1="35.25" y1="2.031" x2="54.75" y2="13.969"/>
	<line fill="none" stroke="#000000" stroke-width="2" stroke-miterlimit="10" x1="54.75" y1="2.031" x2="35.25" y2="13.969"/>
</g>
<g>
	<line fill="none" stroke="#000000" stroke-width="2" stroke-miterlimit="10" x1="21" y1="0" x2="21" y2="16"/>
	<line fill="none" stroke="#000000" stroke-width="2" stroke-miterlimit="10" x1="11.25" y1="2.031" x2="30.75" y2="13.969"/>
	<line fill="none" stroke="#000000" stroke-width="2" stroke-miterlimit="10" x1="30.75" y1="2.031" x2="11.25" y2="13.969"/>
</g>
<g>
	<line fill="none" stroke="#000000" stroke-width="2" stroke-miterlimit="10" x1="118.25" y1="0" x2="118.25" y2="16"/>
	<line fill="none" stroke="#000000" stroke-width="2" stroke-miterlimit="10" x1="108.5" y1="2.031" x2="128" y2="13.969"/>
	<line fill="none" stroke="#000000" stroke-width="2" stroke-miterlimit="10" x1="128" y1="2.031" x2="108.5" y2="13.969"/>
</g>
<g>
	<line fill="none" stroke="#000000" stroke-width="2" stroke-miterlimit="10" x1="93.25" y1="0" x2="93.25" y2="16"/>
	<line fill="none" stroke="#000000" stroke-width="2" stroke-miterlimit="10" x1="83.5" y1="2.031" x2="103" y2="13.969"/>
	<line fill="none" stroke="#000000" stroke-width="2" stroke-miterlimit="10" x1="103" y1="2.031" x2="83.5" y2="13.969"/>
</g>
</svg>
