<?xml version="1.0" encoding="utf-8"?>
<!-- Generator: Adobe Illustrator 16.0.0, SVG Export Plug-In . SVG Version: 6.00 Build 0)  -->
<!DOCTYPE svg PUBLIC "-//W3C//DTD SVG 1.1//EN" "http://www.w3.org/Graphics/SVG/1.1/DTD/svg11.dtd">
<svg version="1.1" id="Camada_2" xmlns="http://www.w3.org/2000/svg" xmlns:xlink="http://www.w3.org/1999/xlink" x="0px" y="0px"
	 width="128px" height="33px" viewBox="0 0 128 33" enable-background="new 0 0 128 33" xml:space="preserve">
<line fill="none" stroke="#000000" stroke-width="4" stroke-miterlimit="10" x1="9.667" y1="0" x2="9.667" y2="33"/>
<line fill="none" stroke="#000000" stroke-width="4" stroke-miterlimit="10" x1="48" y1="0" x2="48" y2="33"/>
<line fill="none" stroke="#000000" stroke-width="4" stroke-miterlimit="10" x1="87.667" y1="0" x2="87.667" y2="33"/>
<line fill="none" stroke="#000000" stroke-width="4" stroke-miterlimit="10" x1="126" y1="0" x2="126" y2="33"/>
<path fill="none" stroke="#000000" stroke-width="2" stroke-linecap="square" stroke-linejoin="round" stroke-miterlimit="10" d="
	M125,5.75c-2,0-7.75,0-7.75,0V1c0,0-9.5,10.5-17.5,10.5c-6.875,0-12.083-5.25-12.083-5.25"/>
<path fill="none" stroke="#000000" stroke-width="2" stroke-linecap="square" stroke-linejoin="round" stroke-miterlimit="10" d="
	M86.25,5.75c-2,0-7.75,0-7.75,0V1c0,0-9.5,10.5-17.5,10.5c-6.875,0-12.083-5.25-12.083-5.25"/>
<path fill="none" stroke="#000000" stroke-width="2" stroke-linecap="square" stroke-linejoin="round" stroke-miterlimit="10" d="
	M48,5.75c-2,0-7.75,0-7.75,0V1c0,0-9.5,10.5-17.5,10.5c-6.875,0-12.083-5.25-12.083-5.25"/>
<line fill="none" stroke="#000000" stroke-width="2" stroke-linecap="square" stroke-linejoin="round" stroke-miterlimit="10" x1="8.333" y1="6.25" x2="0.833" y2="6.25"/>
<rect width="2.917" height="6.25"/>
<rect x="2.917" y="3.125" width="1" height="2.375"/>
<rect x="5.083" y="3.917" width="0.833" height="1.583"/>
<rect x="40.917" y="3.083" width="2.083" height="1.917"/>
<rect x="42.417" y="4.042" width="1.583" height="1.292"/>
<rect x="80" y="4" width="2.834" height="1.167"/>
<rect x="81" y="2.833" width="0.75" height="1.75"/>
<rect x="117.583" width="1.25" height="3.708"/>
</svg>
