<?xml version="1.0" encoding="utf-8"?>
<!-- Generator: Adobe Illustrator 16.0.0, SVG Export Plug-In . SVG Version: 6.00 Build 0)  -->
<!DOCTYPE svg PUBLIC "-//W3C//DTD SVG 1.1//EN" "http://www.w3.org/Graphics/SVG/1.1/DTD/svg11.dtd">
<svg version="1.1" id="Camada_2" xmlns="http://www.w3.org/2000/svg" xmlns:xlink="http://www.w3.org/1999/xlink" x="0px" y="0px"
	 width="130px" height="43px" viewBox="0 0 130 43" enable-background="new 0 0 130 43" xml:space="preserve">
<path fill="none" stroke="#000000" stroke-width="4" stroke-miterlimit="10" d="M129.021,38.474
	c-3.083-3.083-4.658-7.943-11.408-7.943c-6.756,0-12.746,10.211-20.02,10.211c-7.268,0-15.539-10.414-21.379-10.414
	c-8.226,0-13.03,10.414-21.472,10.414c-8.44,0-13.798-10.76-21.575-10.421c-7.777,0.338-13.028,12.038-20.894,10.767
	c-6.632-1.073-10.058-7.45-10.058-7.45"/>
<path fill="none" stroke="#000000" stroke-width="4" stroke-miterlimit="10" d="M129.021,10.352
	c-3.083-3.083-4.658-7.944-11.408-7.944c-6.756,0-12.746,10.211-20.02,10.211c-7.268,0-15.539-10.414-21.379-10.414
	c-8.226,0-13.03,10.414-21.472,10.414c-8.44,0-13.798-10.759-21.575-10.421c-7.777,0.338-13.028,12.039-20.894,10.768
	C5.641,11.893,2.215,5.514,2.215,5.514"/>
</svg>
