<?xml version="1.0" encoding="utf-8"?>
<!-- Generator: Adobe Illustrator 16.0.0, SVG Export Plug-In . SVG Version: 6.00 Build 0)  -->
<!DOCTYPE svg PUBLIC "-//W3C//DTD SVG 1.1//EN" "http://www.w3.org/Graphics/SVG/1.1/DTD/svg11.dtd">
<svg version="1.1" id="Camada_2" xmlns="http://www.w3.org/2000/svg" xmlns:xlink="http://www.w3.org/1999/xlink" x="0px" y="0px"
	 width="133px" height="25px" viewBox="0 0 133 25" enable-background="new 0 0 133 25" xml:space="preserve">
<path fill="none" stroke="#000000" stroke-width="2" stroke-miterlimit="10" d="M1.5,3.25c0,0,7,5.75,10.75,5.75
	c6.75,0,18.083-7.25,23-7.25S48,9,56,9s13-7.25,20.5-7.25S90.833,9,98.75,9s16.417-7.25,21.5-7.25s11.5,6,11.5,6"/>
<path fill="none" stroke="#000000" stroke-width="2" stroke-miterlimit="10" d="M1.5,8.048c0,0,7,5.75,10.75,5.75
	c6.75,0,18.083-7.25,23-7.25S48,13.798,56,13.798s13-7.25,20.5-7.25s14.333,7.25,22.25,7.25s16.417-7.25,21.5-7.25s11.5,6,11.5,6"/>
<path fill="none" stroke="#000000" stroke-width="2" stroke-miterlimit="10" d="M1.5,12.846c0,0,7,5.75,10.75,5.75
	c6.75,0,18.083-7.25,23-7.25S48,18.597,56,18.597s13-7.25,20.5-7.25s14.333,7.25,22.25,7.25s16.417-7.25,21.5-7.25s11.5,6,11.5,6"/>
<path fill="none" stroke="#000000" stroke-width="2" stroke-miterlimit="10" d="M1.5,17.645c0,0,7,5.75,10.75,5.75
	c6.75,0,18.083-7.25,23-7.25S48,23.395,56,23.395s13-7.25,20.5-7.25s14.333,7.25,22.25,7.25s16.417-7.25,21.5-7.25s11.5,6,11.5,6"/>
</svg>
