<?xml version="1.0" encoding="utf-8"?>
<!-- Generator: Adobe Illustrator 16.0.0, SVG Export Plug-In . SVG Version: 6.00 Build 0)  -->
<!DOCTYPE svg PUBLIC "-//W3C//DTD SVG 1.1//EN" "http://www.w3.org/Graphics/SVG/1.1/DTD/svg11.dtd">
<svg version="1.1" id="Camada_2" xmlns="http://www.w3.org/2000/svg" xmlns:xlink="http://www.w3.org/1999/xlink" x="0px" y="0px"
	 width="90px" height="58px" viewBox="0 0 90 58" enable-background="new 0 0 90 58" xml:space="preserve">
<line fill="none" stroke="#000000" stroke-width="4" stroke-miterlimit="10" x1="58.36" y1="0.558" x2="44.129" y2="57.481"/>
<path d="M90,12c0,0-46.504-0.346-62,0c-8.029,0.179-27.707,1.82-28,15.75C-0.307,42.352,15.634,43.5,22.5,43.5
	c16.869,0,67.5,0,67.5,0L80.5,38c0,0-38.625-0.085-51.5,0c-5.397,0.036-19-2-19-10.25c0-8.5,14.659-10.439,20.375-10.375
	c13.03,0.147,52.125,0,52.125,0L90,12z"/>
</svg>
