<?xml version="1.0" encoding="utf-8"?>
<!-- Generator: Adobe Illustrator 16.0.0, SVG Export Plug-In . SVG Version: 6.00 Build 0)  -->
<!DOCTYPE svg PUBLIC "-//W3C//DTD SVG 1.1//EN" "http://www.w3.org/Graphics/SVG/1.1/DTD/svg11.dtd">
<svg version="1.1" id="Camada_4" xmlns="http://www.w3.org/2000/svg" xmlns:xlink="http://www.w3.org/1999/xlink" x="0px" y="0px"
	 width="124.484px" height="113.985px" viewBox="0 0 124.484 113.985" enable-background="new 0 0 124.484 113.985"
	 xml:space="preserve">
<circle fill="#FF0000" stroke="#000000" stroke-width="9" stroke-miterlimit="10" cx="61.242" cy="57.993" r="51.334"/>
<path fill="#FFFFFF" stroke="#000000" stroke-miterlimit="10" d="M75.763,27.425c0,0-27.013,2.075-27.763,19.825
	c-1.167,9.917-0.583,11.583,0,15s2.575,3.759,2.5,5.917s-1.25,5.583-1,7.333s-0.438,2.5-0.938,4s-0.75,1.438-0.875,2.625
	c-0.25,2.373,4.979-1,4.979-1s-2.419,5.596-1.542,7c0.938,1.5,1.964,2.027,3.208-0.125c0.886-1.532-0.583-3.875-0.583-3.875
	s2.313-4.854,1.813-5.688s-4.625,1.125-4.625,1.125s2.479-1.412,2.563-3.313s1.165-5.968,4.75-9.166
	c4.617-4.118,11.716-4.881,11.716-4.881L75.763,27.425z"/>
<line fill="none" stroke="#000000" stroke-width="2" stroke-miterlimit="10" x1="65" y1="92" x2="76.5" y2="23"/>
<circle fill="#FFFFFF" stroke="#000000" stroke-miterlimit="10" cx="76.5" cy="23" r="2.5"/>
<path fill="none" stroke="#CCCCCC" stroke-miterlimit="10" d="M60.32,41c-11.991,3.538-7.653,28.667-7.653,28.667"/>
<path fill="none" stroke="#CCCCCC" stroke-miterlimit="10" d="M62.242,49.667c-10.175,6.056-9.576,20-9.576,20"/>
<path fill="none" stroke="#CCCCCC" stroke-miterlimit="10" d="M52.667,68.709c0,0,4.785-9.042,7.653-9.042"/>
</svg>
