<?xml version="1.0" encoding="utf-8"?>
<!-- Generator: Adobe Illustrator 16.0.0, SVG Export Plug-In . SVG Version: 6.00 Build 0)  -->
<!DOCTYPE svg PUBLIC "-//W3C//DTD SVG 1.1//EN" "http://www.w3.org/Graphics/SVG/1.1/DTD/svg11.dtd">
<svg version="1.1" id="Camada_2" xmlns="http://www.w3.org/2000/svg" xmlns:xlink="http://www.w3.org/1999/xlink" x="0px" y="0px"
	 width="100px" height="100px" viewBox="0 0 100 100" enable-background="new 0 0 100 100" xml:space="preserve">
<circle fill="#FF0000" stroke="#000000" stroke-width="6" stroke-miterlimit="10" cx="49.5" cy="50" r="46"/>
<g transform="translate(0.000000,1136.000000) scale(0.100000,-0.100000)">
	<path d="M831.221,10659.989c-13.428,29.219-46.855,94.463-50.801,103.105c-6.26,13.682-18.73,40.527-62.334,134.556
		c-5.537,11.958-21.982,47.495-36.621,78.945c-38.857,83.809-72.93,156.548-74.473,158.979c-0.381,0.64-1.455,0.64-4.6,0.122
		c-9.453-1.465-16.006-4.727-16.006-8.052c0-1.528-0.186-1.597-2.354-1.343c-1.338,0.19-7.275,2.437-13.164,4.927
		c-5.918,2.49-13.623,5.557-17.051,6.772c-8.184,2.813-22.783,6.396-31.328,7.676c-8.193,1.211-27.666,1.719-35.483,0.957
		c-14.893-1.533-31.704-6.396-45.386-13.105c-23.447-11.572-43.022-29.087-90.454-81.182
		c-34.771-38.164-55.933-58.047-76.387-71.602c-24.419-16.294-49.727-23.584-74.468-21.475
		c-20.967,1.792-41.426,7.417-64.565,17.837c-15.405,6.904-19.814,8.369-19.814,6.587c0-2.686,40.21-91.284,134.751-296.938
		l26.147-56.895l9.844-5.225c33.618-18.037,48.198-21.289,91.343-20.518c20.84,0.371,23.071,0.762,36.504,6.26
		c32.534,13.359,51.514,29.072,100.937,83.662c29.15,32.168,46.797,49.688,64.434,63.73c20.898,16.826,41.025,26.807,62.148,31.025
		c6.045,1.133,9.424,1.406,19.16,1.406c13.486,0,22.314-1.104,35.713-4.492c17.09-4.209,28.574-8.691,46.748-17.9l10.625-5.371
		l12.715-27.607c6.953-15.215,39.414-78.604,48.721-98.828"/>
</g>
</svg>
