<?xml version="1.0" encoding="utf-8"?>
<!-- Generator: Adobe Illustrator 16.0.0, SVG Export Plug-In . SVG Version: 6.00 Build 0)  -->
<!DOCTYPE svg PUBLIC "-//W3C//DTD SVG 1.1//EN" "http://www.w3.org/Graphics/SVG/1.1/DTD/svg11.dtd">
<svg version="1.1" id="Camada_2" xmlns="http://www.w3.org/2000/svg" xmlns:xlink="http://www.w3.org/1999/xlink" x="0px" y="0px"
	 width="100px" height="100px" viewBox="0 0 100 100" enable-background="new 0 0 100 100" xml:space="preserve">
<circle fill="#FF0000" stroke="#000000" stroke-width="6" stroke-miterlimit="10" cx="50.5" cy="50" r="46"/>
<g>
	<path d="M11.958,52.989l5.722-0.357c0.124,0.929,0.376,1.638,0.757,2.123c0.62,0.789,1.504,1.183,2.655,1.183
		c0.858,0,1.521-0.201,1.985-0.604c0.465-0.402,0.697-0.869,0.697-1.4c0-0.504-0.222-0.955-0.664-1.354s-1.469-0.773-3.08-1.128
		c-2.638-0.595-4.519-1.382-5.643-2.364c-1.133-0.982-1.7-2.235-1.7-3.758c0-1,0.29-1.945,0.87-2.834
		c0.58-0.89,1.452-1.589,2.616-2.098c1.164-0.509,2.759-0.764,4.787-0.764c2.487,0,4.383,0.462,5.689,1.387s2.083,2.397,2.33,4.415
		l-5.669,0.332c-0.15-0.876-0.467-1.514-0.949-1.912c-0.483-0.398-1.149-0.597-1.999-0.597c-0.699,0-1.226,0.148-1.58,0.444
		c-0.354,0.297-0.531,0.657-0.531,1.082c0,0.31,0.146,0.589,0.438,0.837c0.283,0.256,0.956,0.496,2.018,0.717
		c2.628,0.566,4.512,1.14,5.649,1.719c1.137,0.58,1.965,1.299,2.483,2.158c0.518,0.858,0.777,1.818,0.777,2.882
		c0,1.248-0.345,2.397-1.036,3.451c-0.69,1.055-1.655,1.854-2.894,2.396c-1.239,0.545-2.802,0.816-4.687,0.816
		c-3.311,0-5.603-0.639-6.877-1.912C12.848,56.575,12.125,54.955,11.958,52.989z"/>
	<path d="M31.276,39.965h18.282v4.807h-6.134V59.43H37.41V44.771h-6.134V39.965z"/>
	<path d="M50.596,49.71c0-3.177,0.885-5.651,2.654-7.421c1.77-1.771,4.234-2.656,7.396-2.656c3.237,0,5.733,0.87,7.486,2.609
		c1.754,1.739,2.629,4.176,2.629,7.31c0,2.274-0.384,4.14-1.146,5.597c-0.766,1.455-1.872,2.588-3.32,3.397
		c-1.445,0.81-3.25,1.216-5.41,1.216c-2.195,0-4.012-0.351-5.449-1.05c-1.438-0.698-2.604-1.805-3.498-3.319
		C51.041,53.88,50.596,51.984,50.596,49.71z M56.609,49.737c0,1.965,0.363,3.377,1.095,4.236c0.729,0.858,1.726,1.288,2.979,1.288
		c1.293,0,2.293-0.421,3.002-1.262s1.063-2.351,1.063-4.527c0-1.833-0.369-3.171-1.109-4.017c-0.738-0.845-1.74-1.268-3.007-1.268
		c-1.213,0-2.187,0.43-2.921,1.288S56.609,47.754,56.609,49.737z"/>
	<path d="M73.977,39.965h9.996c2.178,0,3.811,0.518,4.895,1.554c1.085,1.035,1.627,2.509,1.627,4.421c0,1.965-0.592,3.5-1.771,4.607
		c-1.184,1.105-2.984,1.659-5.41,1.659H80.02v7.224h-6.041V39.965H73.977z M80.018,48.263h1.475c1.158,0,1.974-0.201,2.441-0.604
		c0.469-0.402,0.703-0.918,0.703-1.547c0-0.61-0.203-1.128-0.609-1.553c-0.406-0.425-1.174-0.637-2.297-0.637h-1.713V48.263z"/>
</g>
</svg>
