<?xml version="1.0" encoding="utf-8"?>
<!-- Generator: Adobe Illustrator 16.0.0, SVG Export Plug-In . SVG Version: 6.00 Build 0)  -->
<!DOCTYPE svg PUBLIC "-//W3C//DTD SVG 1.1//EN" "http://www.w3.org/Graphics/SVG/1.1/DTD/svg11.dtd">
<svg version="1.1" id="Camada_2" xmlns="http://www.w3.org/2000/svg" xmlns:xlink="http://www.w3.org/1999/xlink" x="0px" y="0px"
	 width="100px" height="100px" viewBox="0 0 100 100" enable-background="new 0 0 100 100" xml:space="preserve">
<g>
	<circle fill="#FF0000" stroke="#1E1E1C" stroke-width="6" stroke-miterlimit="10" cx="50" cy="50" r="46"/>
	<path stroke="#000000" stroke-miterlimit="10" d="M36.173,47.063L56.857,68.51l-4.781,4.78c-2.615,2.524-9.366-0.231-15.078-6.153
		c-5.711-5.923-8.222-12.77-5.605-15.293L36.173,47.063z"/>
	<path fill="#FFFFFF" stroke="#000000" stroke-miterlimit="10" d="M54.215,56.745"/>
	<path fill="#FFFFFF" stroke="#000000" stroke-miterlimit="10" d="M49.057,51.135"/>
	<path fill="#FFFFFF" stroke="#000000" stroke-miterlimit="10" d="M54.215,56.745c3.535,4.897,4.751,9.733,2.643,11.765
		c-2.614,2.525-9.366-0.232-15.079-6.152c-5.711-5.924-8.222-12.771-5.605-15.293c2.126-2.05,6.982-0.615,11.793,3.17
		c0.364,0.287,0.728,0.588,1.09,0.9"/>
	<polyline fill="none" stroke="#1E1E1C" stroke-width="2" stroke-miterlimit="10" points="25,78.5 25,27.5 75.75,27.5 	"/>
	<polygon fill="#FFFFFF" points="43.607,53.438 52.125,49.25 54.5,50.813 52.705,55.125 54.5,56.745 53.25,60.063 50.375,63.563 
		45.938,60.645 42.563,56.406 	"/>
	<path d="M54.688,59.25c0.875-2.313,10.146-13.326,10.146-13.326l-5.75-6.216c0,0-7.416,9.125-11.75,10.292s-5.13,0.45-6.146,1.438
		c-1.028,1-0.913,2.481,1.56,3.172c2.042,0.568,8.748-3.873,9.585-4.108c0.667-0.188,1.474-0.144,1.084,1.417
		c-0.583,2.334-5.198,5.958-8.662,7.464c-1.663,0.724,1.307,4.15,2.588,0.9c0.542-1.373,4.548-3.156,5.509-3.031
		s0.064,1.417,0.064,1.417s-1.958,1.559-3.416,2.666c-0.818,0.622-0.919,2.968,0.5,3.541c0.213,0.086,2.458,1.813,3.625-1.125
		C54.758,60.896,53.682,61.908,54.688,59.25z"/>
	<circle cx="66.625" cy="39.708" r="7.542"/>
	<path fill="#FFFFFF" d="M66.583,34.833c0,0-2.293,0.109-3.385,1.747c-1.093,1.638-0.972,3.118-0.539,4.041
		c0.241,0.515,1.411,1.856,2.231,0.437c0.817-1.42-0.265-0.958,0.569-3.569C66.311,34.833,66.583,34.833,66.583,34.833
		L66.583,34.833z"/>
</g>
</svg>
