<?xml version="1.0" encoding="utf-8"?>
<!-- Generator: Adobe Illustrator 16.0.0, SVG Export Plug-In . SVG Version: 6.00 Build 0)  -->
<!DOCTYPE svg PUBLIC "-//W3C//DTD SVG 1.1//EN" "http://www.w3.org/Graphics/SVG/1.1/DTD/svg11.dtd">
<svg version="1.1" id="Camada_2" xmlns="http://www.w3.org/2000/svg" xmlns:xlink="http://www.w3.org/1999/xlink" x="0px" y="0px"
	 width="69.76px" height="102.766px" viewBox="0 0 69.76 102.766" enable-background="new 0 0 69.76 102.766" xml:space="preserve">
<rect x="3" y="2" fill="#FFFFFF" stroke="#000000" stroke-miterlimit="10" width="65" height="98.5"/>
<circle fill="#608FC8" stroke="#000000" stroke-width="6" stroke-miterlimit="10" cx="35.88" cy="36.008" r="25"/>
<path fill="#FFFFFF" d="M30.25,19c0,0,0,6.75,0,10.75S41,33.5,41,29.75S41,19,41,19s6.505,5.25,6.755,11.25
	c0.234,5.619-7.674,6.44-8.755,6.5V54.5h-6.25V36.75c0,0-8.25,0-8.5-6.25S30.25,19,30.25,19z"/>
<g>
	<path d="M15.446,83v-1.143l3.585-5.961c0.255-0.423,0.497-0.791,0.726-1.104h-3.906v-1.099h5.013v1.099l-3.929,6.455l-0.425,0.654
		h4.469V83H15.446z"/>
	<path d="M21.696,78.468c0-1.545,0.312-2.754,0.936-3.628s1.429-1.311,2.416-1.311c0.646,0,1.229,0.205,1.748,0.615
		c0.519,0.411,0.915,0.982,1.187,1.718c0.272,0.734,0.408,1.566,0.408,2.497c0,0.944-0.143,1.788-0.43,2.533
		c-0.286,0.745-0.692,1.309-1.217,1.69c-0.525,0.383-1.092,0.574-1.7,0.574c-0.659,0-1.248-0.211-1.767-0.635
		c-0.519-0.423-0.912-1-1.18-1.732C21.83,80.059,21.696,79.284,21.696,78.468z M22.651,78.486c0,1.122,0.227,2.005,0.68,2.649
		c0.453,0.646,1.022,0.97,1.707,0.97c0.697,0,1.271-0.326,1.721-0.979c0.45-0.65,0.676-1.576,0.676-2.772
		c0-0.758-0.097-1.419-0.289-1.983s-0.474-1.003-0.845-1.313c-0.371-0.312-0.787-0.467-1.249-0.467c-0.656,0-1.22,0.3-1.692,0.897
		C22.888,76.085,22.651,77.086,22.651,78.486z"/>
	<path d="M29.574,83v-9.306h0.95L34.201,81v-7.306h0.887V83h-0.949l-3.677-7.313V83H29.574z"/>
	<path d="M35.877,83l2.688-9.306h0.998L42.427,83h-1.055l-0.816-2.817h-2.927L36.86,83H35.877z M37.896,79.179h2.373l-0.729-2.577
		c-0.224-0.783-0.388-1.427-0.496-1.931c-0.089,0.598-0.215,1.189-0.377,1.777L37.896,79.179z"/>
	<path d="M48.524,83v-0.851c-0.322,0.669-0.795,1.003-1.418,1.003c-0.404,0-0.776-0.148-1.115-0.444
		c-0.34-0.296-0.602-0.71-0.788-1.241c-0.187-0.53-0.279-1.142-0.279-1.831c0-0.673,0.085-1.282,0.253-1.83
		c0.17-0.549,0.422-0.97,0.76-1.261c0.338-0.293,0.715-0.438,1.131-0.438c0.307,0,0.578,0.086,0.817,0.257
		c0.238,0.172,0.433,0.395,0.582,0.67v-3.339h0.854V83H48.524z M45.808,79.635c0,0.863,0.137,1.51,0.41,1.938
		c0.274,0.427,0.598,0.641,0.971,0.641c0.375,0,0.693-0.204,0.957-0.611c0.263-0.408,0.394-1.032,0.394-1.87
		c0-0.922-0.134-1.601-0.399-2.031c-0.269-0.432-0.598-0.646-0.988-0.646c-0.383,0-0.701,0.207-0.959,0.62
		C45.937,78.089,45.808,78.743,45.808,79.635z"/>
	<path d="M54.144,80.829l0.89,0.146c-0.142,0.689-0.399,1.226-0.778,1.605s-0.861,0.571-1.451,0.571
		c-0.742,0-1.33-0.304-1.765-0.911s-0.651-1.459-0.651-2.555c0-1.135,0.221-2.016,0.658-2.642c0.439-0.626,1.01-0.938,1.71-0.938
		c0.679,0,1.231,0.307,1.661,0.921c0.43,0.613,0.645,1.477,0.645,2.59c0,0.067,0,0.169-0.004,0.305h-3.781
		c0.031,0.74,0.188,1.308,0.473,1.701c0.283,0.394,0.637,0.59,1.061,0.59c0.314,0,0.584-0.109,0.808-0.33
		C53.84,81.663,54.015,81.312,54.144,80.829z M51.321,78.982h2.832c-0.038-0.567-0.146-0.993-0.324-1.276
		c-0.273-0.439-0.629-0.66-1.064-0.66c-0.396,0-0.727,0.177-0.996,0.526C51.5,77.924,51.351,78.394,51.321,78.982z"/>
</g>
<g>
	<path d="M11.234,96.814l2.255-7.807h0.837l2.403,7.807h-0.885l-0.685-2.364h-2.455l-0.645,2.364H11.234z M12.928,93.609h1.99
		l-0.613-2.162c-0.187-0.656-0.326-1.195-0.417-1.618c-0.075,0.501-0.18,0.997-0.316,1.491L12.928,93.609z"/>
	<path d="M17.085,94.307l0.732-0.085c0.035,0.391,0.116,0.711,0.243,0.961c0.126,0.25,0.324,0.451,0.59,0.605
		c0.267,0.155,0.567,0.232,0.901,0.232c0.296,0,0.558-0.06,0.785-0.176c0.227-0.117,0.396-0.278,0.507-0.482
		c0.111-0.204,0.166-0.427,0.166-0.668c0-0.245-0.053-0.459-0.16-0.642c-0.107-0.184-0.283-0.337-0.528-0.461
		c-0.158-0.082-0.506-0.209-1.045-0.381c-0.54-0.173-0.917-0.335-1.133-0.486c-0.28-0.195-0.489-0.438-0.627-0.728
		c-0.137-0.289-0.206-0.613-0.206-0.972c0-0.396,0.084-0.763,0.252-1.105c0.168-0.342,0.414-0.602,0.737-0.778
		c0.323-0.179,0.682-0.268,1.077-0.268c0.435,0,0.819,0.094,1.151,0.279c0.333,0.187,0.588,0.461,0.767,0.823
		c0.179,0.36,0.275,0.771,0.288,1.229l-0.745,0.074c-0.04-0.493-0.176-0.865-0.407-1.118c-0.231-0.252-0.572-0.378-1.023-0.378
		c-0.47,0-0.813,0.115-1.027,0.344c-0.214,0.229-0.322,0.505-0.322,0.828c0,0.28,0.076,0.511,0.228,0.692
		c0.149,0.181,0.54,0.366,1.171,0.556c0.631,0.19,1.064,0.356,1.3,0.498c0.341,0.21,0.594,0.475,0.757,0.796
		c0.163,0.321,0.244,0.691,0.244,1.11c0,0.415-0.089,0.807-0.269,1.174c-0.179,0.367-0.436,0.653-0.771,0.857
		c-0.335,0.203-0.712,0.306-1.131,0.306c-0.531,0-0.977-0.104-1.336-0.309c-0.359-0.206-0.641-0.517-0.845-0.93
		C17.204,95.296,17.096,94.828,17.085,94.307z"/>
	<path d="M22.952,96.814v-7.807h0.777v7.807H22.952z"/>
	<path d="M24.834,94.307l0.732-0.085c0.035,0.391,0.116,0.711,0.243,0.961c0.126,0.25,0.324,0.451,0.59,0.605
		c0.267,0.155,0.567,0.232,0.901,0.232c0.296,0,0.558-0.06,0.785-0.176c0.227-0.117,0.396-0.278,0.507-0.482
		c0.111-0.204,0.166-0.427,0.166-0.668c0-0.245-0.053-0.459-0.16-0.642c-0.107-0.184-0.283-0.337-0.528-0.461
		c-0.158-0.082-0.506-0.209-1.045-0.381c-0.54-0.173-0.917-0.335-1.133-0.486c-0.28-0.195-0.489-0.438-0.627-0.728
		c-0.137-0.289-0.206-0.613-0.206-0.972c0-0.396,0.084-0.763,0.252-1.105c0.168-0.342,0.414-0.602,0.737-0.778
		c0.323-0.179,0.682-0.268,1.077-0.268c0.435,0,0.819,0.094,1.151,0.279c0.333,0.187,0.588,0.461,0.767,0.823
		c0.179,0.36,0.275,0.771,0.288,1.229l-0.745,0.074c-0.04-0.493-0.176-0.865-0.407-1.118c-0.231-0.252-0.572-0.378-1.023-0.378
		c-0.47,0-0.813,0.115-1.027,0.344c-0.214,0.229-0.322,0.505-0.322,0.828c0,0.28,0.076,0.511,0.228,0.692
		c0.149,0.181,0.54,0.366,1.171,0.556c0.631,0.19,1.064,0.356,1.3,0.498c0.341,0.21,0.594,0.475,0.757,0.796
		c0.163,0.321,0.244,0.691,0.244,1.11c0,0.415-0.089,0.807-0.269,1.174c-0.179,0.367-0.436,0.653-0.771,0.857
		c-0.335,0.203-0.712,0.306-1.131,0.306c-0.531,0-0.977-0.104-1.336-0.309c-0.359-0.206-0.641-0.517-0.845-0.93
		C24.953,95.296,24.845,94.828,24.834,94.307z"/>
	<path d="M32.063,96.814V89.93h-1.934v-0.923h4.653v0.923H32.84v6.884H32.063z"/>
	<path d="M35.597,96.814v-7.807h4.243v0.923h-3.468v2.391h3.248v0.915h-3.248v2.657h3.604v0.921H35.597z"/>
	<path d="M41.042,96.814v-7.807h0.797l3.083,6.13v-6.13h0.745v7.807H44.87l-3.084-6.134v6.134H41.042z"/>
	<path d="M51.161,94.078l0.777,0.261c-0.164,0.85-0.457,1.495-0.879,1.94c-0.424,0.445-0.94,0.668-1.553,0.668
		c-0.633,0-1.146-0.171-1.544-0.514c-0.397-0.344-0.698-0.838-0.905-1.488c-0.207-0.649-0.311-1.347-0.311-2.092
		c0-0.813,0.117-1.522,0.352-2.127c0.232-0.605,0.565-1.065,0.996-1.379c0.432-0.314,0.906-0.473,1.424-0.473
		c0.588,0,1.082,0.199,1.481,0.598c0.401,0.396,0.681,0.956,0.837,1.677l-0.766,0.239c-0.135-0.567-0.334-0.98-0.592-1.24
		c-0.26-0.259-0.584-0.39-0.978-0.39c-0.451,0-0.829,0.145-1.132,0.433c-0.303,0.287-0.516,0.673-0.639,1.158
		c-0.123,0.483-0.186,0.982-0.186,1.498c0,0.664,0.073,1.242,0.219,1.737c0.146,0.495,0.373,0.865,0.68,1.11s0.64,0.367,0.996,0.367
		c0.437,0,0.805-0.167,1.105-0.5C50.851,95.229,51.056,94.734,51.161,94.078z"/>
	<path d="M53.026,96.814v-7.807h0.777v7.807H53.026z"/>
	<path d="M54.528,96.814l2.255-7.807h0.838l2.401,7.807h-0.885l-0.685-2.364h-2.455l-0.646,2.364H54.528z M56.224,93.609h1.989
		l-0.612-2.162c-0.187-0.656-0.326-1.195-0.416-1.618c-0.074,0.501-0.181,0.997-0.315,1.491L56.224,93.609z"/>
</g>
</svg>
