<?xml version="1.0" encoding="utf-8"?>
<!-- Generator: Adobe Illustrator 16.0.0, SVG Export Plug-In . SVG Version: 6.00 Build 0)  -->
<!DOCTYPE svg PUBLIC "-//W3C//DTD SVG 1.1//EN" "http://www.w3.org/Graphics/SVG/1.1/DTD/svg11.dtd">
<svg version="1.1" id="Camada_2" xmlns="http://www.w3.org/2000/svg" xmlns:xlink="http://www.w3.org/1999/xlink" x="0px" y="0px"
	 width="90px" height="45px" viewBox="0 0 90 45" enable-background="new 0 0 90 45" xml:space="preserve">
<g>
	<rect x="7.196" y="22.681" width="6.181" height="19.981"/>
	<polygon points="5.136,22.322 0.5,22.322 0.5,19.989 18.7,2.338 25.738,2.338 	"/>
	<polygon points="24.708,22.322 17.67,22.322 38.272,2.338 45.31,2.338 	"/>
	<polygon points="45.455,22.322 38.417,22.322 59.02,2.338 66.057,2.338 	"/>
	<polygon points="65.026,22.322 57.989,22.322 78.592,2.338 85.63,2.338 	"/>
	<polygon points="87.371,22.322 80.333,22.322 89.5,13.432 89.5,20.258 	"/>
	<polygon points="0.5,2.338 7.196,2.338 0.5,8.833 	"/>
	<rect x="77.243" y="22.681" width="6.182" height="19.981"/>
</g>
</svg>
