<?xml version="1.0" encoding="UTF-8" standalone="no"?>
<svg
   xmlns:dc="http://purl.org/dc/elements/1.1/"
   xmlns:cc="http://creativecommons.org/ns#"
   xmlns:rdf="http://www.w3.org/1999/02/22-rdf-syntax-ns#"
   xmlns:svg="http://www.w3.org/2000/svg"
   xmlns="http://www.w3.org/2000/svg"
   version="1.1"
   id="Camada_2"
   x="0px"
   y="0px"
   width="100"
   height="100"
   viewBox="0 0 415.24789 415.24789"
   enable-background="new 0 0 24.082 24.082"
   xml:space="preserve"><metadata
   id="metadata17"><rdf:RDF><cc:Work
       rdf:about=""><dc:format>image/svg+xml</dc:format><dc:type
         rdf:resource="http://purl.org/dc/dcmitype/StillImage" /><dc:title></dc:title></cc:Work></rdf:RDF></metadata><defs
   id="defs15" />
<polygon
   points="24.082,12.667 17.084,12.667 8.917,5.917 15.25,5.917 "
   id="polygon2"
   transform="matrix(16.907251,0,0,16.907251,2.6244528,-6.1808291)" />
<polygon
   points="0.333,12.667 3.083,12.667 3.083,10.333 "
   id="polygon4"
   transform="matrix(16.907251,0,0,16.907251,2.6244528,-6.1808291)" />
<line
   fill="none"
   stroke="#000000"
   stroke-width="8.45363"
   stroke-miterlimit="10"
   x1="244.97298"
   y1="300.97318"
   x2="244.97298"
   y2="150.92134"
   id="line6" />
<polyline
   fill="none"
   stroke="#000000"
   stroke-width="0.5"
   stroke-miterlimit="10"
   points="22.584,12.667 22.584,16.917   14.334,18.167 3.083,18.167 3.083,10.333 "
   id="polyline8"
   transform="matrix(16.907251,0,0,16.907251,2.6244528,-6.1808291)" />
<polyline
   fill="none"
   stroke="#000000"
   stroke-width="0.5"
   stroke-linejoin="round"
   stroke-miterlimit="10"
   points="0.333,12.667   8.917,5.917 15.25,5.917 "
   id="polyline10"
   transform="matrix(16.907251,0,0,16.907251,2.6244528,-6.1808291)" />
</svg>
