<?xml version="1.0" encoding="utf-8"?>
<!-- Generator: Adobe Illustrator 16.0.0, SVG Export Plug-In . SVG Version: 6.00 Build 0)  -->
<!DOCTYPE svg PUBLIC "-//W3C//DTD SVG 1.1//EN" "http://www.w3.org/Graphics/SVG/1.1/DTD/svg11.dtd">
<svg version="1.1" id="Camada_2" xmlns="http://www.w3.org/2000/svg" xmlns:xlink="http://www.w3.org/1999/xlink" x="0px" y="0px"
	 width="102.891px" height="102.891px" viewBox="0 0 102.891 102.891" enable-background="new 0 0 102.891 102.891"
	 xml:space="preserve">
<polygon points="37,5.5 63.5,5.5 81.5,23.5 81.5,51.445 63.5,67.5 37,67.5 18.5,51.445 18.5,23.5 "/>
<polygon fill="#FF0000" points="37.929,8.714 62.536,8.714 78.25,23.561 78.25,49.51 62.536,63.286 37.929,63.286 21.75,50.378 
	21.75,24.429 "/>
<line fill="none" stroke="#000000" stroke-width="4" stroke-miterlimit="10" x1="50" y1="65.75" x2="50" y2="99.75"/>
<g>
	<path fill="#FFFFFF" d="M24.861,39.976l3.714-0.375c0.08,0.973,0.244,1.714,0.491,2.223c0.402,0.825,0.977,1.237,1.723,1.237
		c0.557,0,0.987-0.21,1.289-0.632c0.301-0.421,0.452-0.91,0.452-1.466c0-0.528-0.144-1-0.431-1.417c-0.288-0.417-0.954-0.81-2-1.181
		c-1.712-0.621-2.933-1.445-3.662-2.473c-0.735-1.028-1.103-2.339-1.103-3.933c0-1.046,0.188-2.035,0.564-2.966
		c0.376-0.931,0.942-1.663,1.697-2.195s1.791-0.799,3.107-0.799c1.614,0,2.845,0.484,3.692,1.452
		c0.848,0.969,1.352,2.508,1.513,4.62l-3.68,0.348c-0.098-0.917-0.303-1.584-0.616-2.001c-0.313-0.416-0.746-0.625-1.297-0.625
		c-0.454,0-0.796,0.155-1.026,0.465c-0.229,0.312-0.345,0.688-0.345,1.133c0,0.324,0.095,0.616,0.285,0.875
		c0.184,0.27,0.621,0.521,1.31,0.75c1.707,0.594,2.929,1.193,3.667,1.8s1.275,1.36,1.611,2.258c0.336,0.898,0.504,1.904,0.504,3.016
		c0,1.306-0.224,2.51-0.672,3.612c-0.448,1.104-1.074,1.938-1.878,2.509c-0.805,0.569-1.818,0.854-3.042,0.854
		c-2.149,0-3.637-0.667-4.464-2S24.97,42.032,24.861,39.976z"/>
	<path fill="#FFFFFF" d="M37.399,26.346h11.867v5.03h-3.981v15.339H41.38V31.375h-3.981V26.346z"/>
	<path fill="#FFFFFF" d="M49.938,36.544c0-3.326,0.574-5.914,1.725-7.767c1.148-1.852,2.748-2.779,4.799-2.779
		c2.104,0,3.723,0.91,4.861,2.73c1.137,1.82,1.705,4.37,1.705,7.648c0,2.381-0.248,4.333-0.746,5.856
		c-0.496,1.524-1.215,2.71-2.154,3.557c-0.938,0.848-2.109,1.271-3.512,1.271c-1.424,0-2.604-0.365-3.537-1.097
		s-1.689-1.89-2.27-3.474C50.228,40.907,49.938,38.925,49.938,36.544z M53.842,36.572c0,2.056,0.236,3.533,0.711,4.432
		c0.473,0.899,1.119,1.348,1.934,1.348c0.84,0,1.488-0.439,1.947-1.32c0.461-0.88,0.689-2.459,0.689-4.738
		c0-1.917-0.238-3.318-0.719-4.203c-0.48-0.885-1.131-1.327-1.951-1.327c-0.787,0-1.42,0.449-1.896,1.348
		C54.08,33.011,53.842,34.497,53.842,36.572z"/>
	<path fill="#FFFFFF" d="M65.113,26.346h6.489c1.413,0,2.472,0.542,3.175,1.625c0.704,1.083,1.056,2.626,1.056,4.626
		c0,2.057-0.383,3.664-1.15,4.822c-0.767,1.158-1.938,1.737-3.512,1.737h-2.137v7.558h-3.921V26.346z M69.034,35.03h0.957
		c0.752,0,1.28-0.211,1.585-0.632c0.305-0.422,0.457-0.961,0.457-1.62c0-0.638-0.132-1.181-0.396-1.625s-0.762-0.667-1.491-0.667
		h-1.111V35.03z"/>
</g>
</svg>
