<?xml version="1.0" encoding="utf-8"?>
<!-- Generator: Adobe Illustrator 16.0.0, SVG Export Plug-In . SVG Version: 6.00 Build 0)  -->
<!DOCTYPE svg PUBLIC "-//W3C//DTD SVG 1.1//EN" "http://www.w3.org/Graphics/SVG/1.1/DTD/svg11.dtd">
<svg version="1.1" id="Camada_2" xmlns="http://www.w3.org/2000/svg" xmlns:xlink="http://www.w3.org/1999/xlink" x="0px" y="0px"
	 width="200px" height="200px" viewBox="-75.838 -75.838 200 200" enable-background="new -75.838 -75.838 200 200"
	 xml:space="preserve">
<g>
	<polyline fill="none" stroke="#000000" stroke-width="4" stroke-miterlimit="10" points="-12.545,75.662 2.07,58.257 2.07,-9.943 
		-12.545,-27.338 	"/>
	<polyline fill="none" stroke="#000000" stroke-width="4" stroke-miterlimit="10" points="60.528,75.662 45.913,58.257 
		45.913,-9.943 60.528,-27.338 	"/>
</g>
<g>
	<g>
		<path fill="none" stroke="#000000" stroke-width="2" stroke-linecap="round" stroke-linejoin="round" stroke-miterlimit="10" d="
			M-73.77,38.889c0,0,4.522,7.129,10.093,7.129c7.654,0,12.224-8.262,22.791-8.262c2.889,0,5.211,8.225,9.22,8.783
			c7.483,1.044,9.34,0.358,17.225,0.351c4.41,0,11.137-8.225,9.2-6.003"/>
		<path fill="none" stroke="#000000" stroke-width="2" stroke-linecap="round" stroke-linejoin="round" stroke-miterlimit="10" d="
			M-73.77,31.583c0,0,4.522,7.128,10.093,7.128c7.654,0,12.224-8.262,22.791-8.262c2.889,0,5.211,8.229,9.22,8.783
			c7.483,1.044,9.34,0.359,17.225,0.351c4.41-0.008,11.137-8.229,9.2-6.011"/>
		<path fill="none" stroke="#000000" stroke-width="2" stroke-linecap="round" stroke-linejoin="round" stroke-miterlimit="10" d="
			M-73.77,24.266c0,0,4.522,7.133,10.093,7.133c7.654,0,12.224-8.264,22.791-8.264c2.889,0,5.211,8.23,9.22,8.785
			c7.483,1.044,9.34,0.354,17.225,0.347c4.41-0.004,11.137-8.225,9.2-6.003"/>
		<path fill="none" stroke="#000000" stroke-width="2" stroke-linecap="round" stroke-linejoin="round" stroke-miterlimit="10" d="
			M-73.77,16.958c0,0,4.522,7.133,10.093,7.133c7.654,0,12.224-8.264,22.791-8.264c2.889,0,5.211,8.227,9.22,8.785
			c7.483,1.044,9.34,0.357,17.225,0.347c4.41-0.004,11.137-8.221,9.2-6"/>
		<path fill="none" stroke="#000000" stroke-width="2" stroke-linecap="round" stroke-linejoin="round" stroke-miterlimit="10" d="
			M-73.77,9.647c0,0,4.522,7.133,10.093,7.133c7.654,0,12.224-8.264,22.791-8.264c2.889,0,5.211,8.227,9.22,8.785
			c7.483,1.044,9.34,0.357,17.225,0.347c4.41-0.004,11.137-8.225,9.2-6.005"/>
		<path fill="none" stroke="#000000" stroke-width="2" stroke-linecap="round" stroke-linejoin="round" stroke-miterlimit="10" d="
			M-73.77,2.335c0,0,4.522,7.133,10.093,7.133c7.654,0,12.224-8.264,22.791-8.264c2.889,0,5.211,8.227,9.22,8.785
			c7.483,1.044,9.34,0.354,17.225,0.347c4.41-0.004,11.137-8.225,9.2-6.005"/>
	</g>
	<g>
		<path fill="none" stroke="#000000" stroke-width="2" stroke-linecap="round" stroke-linejoin="round" stroke-miterlimit="10" d="
			M53.22,38.889c0,0,4.526,7.129,10.097,7.129c7.65,0,12.217-8.262,22.787-8.262c2.891,0,5.211,8.225,9.224,8.783
			c7.479,1.044,9.339,0.358,17.225,0.351c4.412,0,11.133-8.225,9.2-6.003"/>
		<path fill="none" stroke="#000000" stroke-width="2" stroke-linecap="round" stroke-linejoin="round" stroke-miterlimit="10" d="
			M53.22,31.583c0,0,4.526,7.128,10.097,7.128c7.65,0,12.217-8.262,22.787-8.262c2.891,0,5.211,8.229,9.224,8.783
			c7.479,1.044,9.339,0.359,17.225,0.351c4.412-0.008,11.133-8.229,9.2-6.011"/>
		<path fill="none" stroke="#000000" stroke-width="2" stroke-linecap="round" stroke-linejoin="round" stroke-miterlimit="10" d="
			M53.22,24.266c0,0,4.526,7.133,10.097,7.133c7.65,0,12.217-8.264,22.787-8.264c2.891,0,5.211,8.23,9.224,8.785
			c7.479,1.044,9.339,0.354,17.225,0.347c4.412-0.004,11.133-8.225,9.2-6.003"/>
		<path fill="none" stroke="#000000" stroke-width="2" stroke-linecap="round" stroke-linejoin="round" stroke-miterlimit="10" d="
			M53.22,16.958c0,0,4.526,7.133,10.097,7.133c7.65,0,12.217-8.264,22.787-8.264c2.891,0,5.211,8.227,9.224,8.785
			c7.479,1.044,9.339,0.357,17.225,0.347c4.412-0.004,11.133-8.221,9.2-6"/>
		<path fill="none" stroke="#000000" stroke-width="2" stroke-linecap="round" stroke-linejoin="round" stroke-miterlimit="10" d="
			M53.22,9.647c0,0,4.526,7.133,10.097,7.133c7.65,0,12.217-8.264,22.787-8.264c2.891,0,5.211,8.227,9.224,8.785
			c7.479,1.044,9.339,0.357,17.225,0.347c4.412-0.004,11.133-8.225,9.2-6.005"/>
		<path fill="none" stroke="#000000" stroke-width="2" stroke-linecap="round" stroke-linejoin="round" stroke-miterlimit="10" d="
			M53.22,2.335c0,0,4.526,7.133,10.097,7.133c7.65,0,12.217-8.264,22.787-8.264c2.891,0,5.211,8.227,9.224,8.785
			c7.479,1.044,9.339,0.354,17.225,0.347c4.412-0.004,11.133-8.225,9.2-6.005"/>
	</g>
</g>
</svg>
